<?xml version="1.0" encoding="UTF-8"?>
<svg version="1.1" xmlns="http://www.w3.org/2000/svg" width="225" height="225">
<path d="M0 0 C74.25 0 148.5 0 225 0 C225 74.25 225 148.5 225 225 C150.75 225 76.5 225 0 225 C0 150.75 0 76.5 0 0 Z " fill="#FEFEFE" transform="translate(0,0)"/>
<path d="M0 0 C3.19075968 2.35108608 5.06364193 3.73578235 5.69140625 7.796875 C5.90625397 11.92749567 5.51610622 14.44607891 3.75 18.25 C0.94911193 21.19830323 -0.62778343 21.56830834 -4.625 21.75 C-4.10231534 18.98723823 -3.51630413 16.4239124 -2.625 13.75 C-2.49343473 10.06617231 -2.45517862 7.25946415 -3.625 3.75 C-10.21144362 3.12271965 -14.11243439 3.74916353 -19.48046875 7.70703125 C-25.83956758 13.76497057 -30.23194181 21.77806908 -30.92578125 30.5546875 C-30.94509108 31.91132654 -30.94857601 33.26826875 -30.9375 34.625 C-30.93258545 35.33172852 -30.9276709 36.03845703 -30.92260742 36.76660156 C-30.77187486 43.46685726 -29.87304282 47.93994647 -25.625 53.25 C-21.00295834 55.56102083 -16.68854195 55.47443004 -11.625 54.75 C-2.59559318 50.49084584 1.45604975 42.15897808 5.39599609 33.52441406 C8.02361275 27.91325935 11.15125736 24.23249509 16.375 20.75 C22.69758065 20.2983871 22.69758065 20.2983871 26.375 22.75 C26.375 23.41 26.375 24.07 26.375 24.75 C27.7053125 23.7290625 27.7053125 23.7290625 29.0625 22.6875 C32.375 20.75 32.375 20.75 35.25 21 C35.95125 21.2475 36.6525 21.495 37.375 21.75 C36.87328468 26.1650948 35.9858298 30.27320475 34.8125 34.5625 C33.38231357 40.06802348 33.03680912 45.08843412 33.375 50.75 C35.28996622 50.68367961 35.28996622 50.68367961 37.375 49.75 C39.11422277 47.19986786 39.11422277 47.19986786 40.5 44.0625 C40.99757813 43.02738281 41.49515625 41.99226563 42.0078125 40.92578125 C44.3726835 35.43252375 45.62781281 30.63365175 46.03125 24.703125 C46.375 22.75 46.375 22.75 48.375 20.75 C50.875 20.5 50.875 20.5 53.375 20.75 C55.375 22.75 55.375 22.75 55.5703125 25.1328125 C55.54710938 26.03773437 55.52390625 26.94265625 55.5 27.875 C55.48195313 28.78507812 55.46390625 29.69515625 55.4453125 30.6328125 C55.42210938 31.33148438 55.39890625 32.03015625 55.375 32.75 C55.75011719 32.21890625 56.12523438 31.6878125 56.51171875 31.140625 C63.68897154 21.23348512 63.68897154 21.23348512 69.5 20.1875 C72.375 20.75 72.375 20.75 74.3125 22.625 C75.87612691 27.22390267 75.10765684 31.01256635 74.375 35.75 C74.20226562 36.99136719 74.02953125 38.23273438 73.8515625 39.51171875 C73.37501356 42.92698617 72.88123942 46.33902759 72.375 49.75 C75.62050931 48.81326556 77.10135745 48.12926981 79.10546875 45.3515625 C82.23142365 38.96556349 84.14867582 33.3422948 84.85546875 26.24609375 C85.375 23.75 85.375 23.75 86.55078125 21.91015625 C89.16808042 20.24562123 91.34533028 20.54802202 94.375 20.75 C94.40005615 21.45608398 94.4251123 22.16216797 94.45092773 22.88964844 C94.56707369 26.09327509 94.68971603 29.29662118 94.8125 32.5 C94.85181641 33.61117187 94.89113281 34.72234375 94.93164062 35.8671875 C94.99448242 37.47207031 94.99448242 37.47207031 95.05859375 39.109375 C95.09525146 40.09389648 95.13190918 41.07841797 95.16967773 42.09277344 C95.35098742 44.43923551 95.71831819 46.49718412 96.375 48.75 C100.20899908 47.27794396 101.55252164 45.33125389 103.5625 41.8125 C104.07167969 40.93722656 104.58085937 40.06195313 105.10546875 39.16015625 C106.47705451 36.71440258 106.47705451 36.71440258 107.375 33.75 C106.735625 33.46125 106.09625 33.1725 105.4375 32.875 C103.375 31.75 103.375 31.75 102.375 29.75 C101.76912518 24.37502477 101.44040059 20.15189912 104.5 15.5625 C107.86462135 13.44132567 109.47589815 12.98713225 113.375 13.75 C115.3125 15.1875 115.3125 15.1875 116.375 17.75 C116.43481332 23.0036029 115.25625361 27.85874061 113.375 32.75 C118.77091354 30.87794836 121.9319168 28.57017216 125.796875 24.37109375 C128.63128082 21.45951352 130.22369769 20.76440974 134.3125 20.375 C137.56809619 20.43495573 138.20445181 20.61356145 140.875 22.75 C141.37 23.41 141.865 24.07 142.375 24.75 C142.931875 24.09 143.48875 23.43 144.0625 22.75 C146.375 20.75 146.375 20.75 149.125 20.5 C149.8675 20.5825 150.61 20.665 151.375 20.75 C152.37445226 23.85554945 152.35425364 25.69772239 151.37890625 28.796875 C151.15009766 29.56 150.92128906 30.323125 150.68554688 31.109375 C150.19165042 32.6877804 149.69687616 34.26591142 149.20117188 35.84375 C147.65274235 41.01385643 147.12228029 45.35042766 147.375 50.75 C149.26158874 50.78525132 149.26158874 50.78525132 151.375 49.75 C152.97001537 47.50835678 154.12043018 45.21433357 155.375 42.75 C156.035 42.75 156.695 42.75 157.375 42.75 C156.96175744 48.0188427 156.14555562 50.97944438 152.375 54.75 C149.12483844 57.02511309 146.28400473 57.23862559 142.375 56.75 C140 54.875 140 54.875 138.375 52.75 C138.375 52.09 138.375 51.43 138.375 50.75 C137.87871094 51.183125 137.38242188 51.61625 136.87109375 52.0625 C133.38925085 54.91668621 131.14240517 56.62209914 126.625 57.375 C122.87724521 56.65427792 121.66501131 55.74463017 119.375 52.75 C117.88880105 49.77760209 118.24322991 47.05380422 118.25 43.75 C118.24742187 42.491875 118.24484375 41.23375 118.2421875 39.9375 C118.375 36.75 118.375 36.75 119.375 34.75 C118.385 35.245 118.385 35.245 117.375 35.75 C115.37539988 35.789992 113.37452758 35.79346799 111.375 35.75 C111.11074219 36.47316406 110.84648437 37.19632813 110.57421875 37.94140625 C107.53533374 45.05853435 102.22498287 52.833383 95.375 56.75 C92.14753756 56.89670284 91.07084099 56.36852532 88.6875 54.25 C86.7707092 50.59896991 86.10784151 46.78493911 85.375 42.75 C84.92769531 43.42546875 84.48039062 44.1009375 84.01953125 44.796875 C77.49257648 54.42726455 77.49257648 54.42726455 73.375 56.75 C70.25 57.1875 70.25 57.1875 67.375 56.75 C65.33832385 55.20493534 64.51426922 54.02853844 63.375 51.75 C62.84193918 43.75408763 64.52170347 36.50516344 66.375 28.75 C58.35118006 32.94771026 54.75598215 40.97074558 52.0625 49.3125 C51.63517578 50.79943359 51.63517578 50.79943359 51.19921875 52.31640625 C50.375 54.75 50.375 54.75 48.375 56.75 C45.9375 56.625 45.9375 56.625 43.375 55.75 C41.5625 53.6875 41.5625 53.6875 40.375 51.75 C39.529375 52.575 38.68375 53.4 37.8125 54.25 C35.23998422 56.37353897 34.27381446 56.76775185 30.8125 57.375 C26.55391863 56.60071248 25.08597377 55.03602882 22.375 51.75 C21.55 52.575 20.725 53.4 19.875 54.25 C17.33307801 56.36425265 15.56434037 57.16974751 12.25 57.3125 C8.375 56.75 8.375 56.75 6 55.0625 C4.33315269 52.69044806 3.28992668 50.49478005 2.375 47.75 C1.99988281 48.28109375 1.62476563 48.8121875 1.23828125 49.359375 C-2.94820758 55.13820593 -6.70065964 59.40867628 -13.625 61.75 C-20.49121221 62.47029747 -26.6882438 62.43078884 -32.625 58.75 C-38.01718646 53.8050328 -41.57218688 47.93174066 -42.09375 40.55078125 C-42.37940555 28.19515372 -40.53224396 18.99700803 -32.3125 9.3125 C-23.39546258 0.05307216 -12.77942575 -4.40669854 0 0 Z " fill="#15AAD4" transform="translate(54.625,82.25)"/>
<path d="M0 0 C1.9375 1.4375 1.9375 1.4375 3 4 C3.05981332 9.2536029 1.88125361 14.10874061 0 19 C5.39591354 17.12794836 8.5569168 14.82017216 12.421875 10.62109375 C15.25628082 7.70951352 16.84869769 7.01440974 20.9375 6.625 C24.19309619 6.68495573 24.82945181 6.86356145 27.5 9 C27.995 9.66 28.49 10.32 29 11 C29.556875 10.34 30.11375 9.68 30.6875 9 C33 7 33 7 35.75 6.75 C36.4925 6.8325 37.235 6.915 38 7 C38.99945226 10.10554945 38.97925364 11.94772239 38.00390625 15.046875 C37.66069336 16.1915625 37.66069336 16.1915625 37.31054688 17.359375 C36.81665042 18.9377804 36.32187616 20.51591142 35.82617188 22.09375 C34.27774235 27.26385643 33.74728029 31.60042766 34 37 C35.88658874 37.03525132 35.88658874 37.03525132 38 36 C39.59501537 33.75835678 40.74543018 31.46433357 42 29 C42.66 29 43.32 29 44 29 C43.58675744 34.2688427 42.77055562 37.22944438 39 41 C35.74983844 43.27511309 32.90900473 43.48862559 29 43 C26.625 41.125 26.625 41.125 25 39 C25 38.34 25 37.68 25 37 C24.50371094 37.433125 24.00742188 37.86625 23.49609375 38.3125 C20.01425085 41.16668621 17.76740517 42.87209914 13.25 43.625 C9.50224521 42.90427792 8.29001131 41.99463017 6 39 C4.51380105 36.02760209 4.86822991 33.30380422 4.875 30 C4.87242187 28.741875 4.86984375 27.48375 4.8671875 26.1875 C5 23 5 23 6 21 C5.01 21.495 5.01 21.495 4 22 C2.00039988 22.039992 -0.00047242 22.04346799 -2 22 C-2.26425781 22.72316406 -2.52851563 23.44632813 -2.80078125 24.19140625 C-5.83966626 31.30853435 -11.15001713 39.083383 -18 43 C-21.22746244 43.14670284 -22.30415901 42.61852532 -24.6875 40.5 C-26.6042908 36.84896991 -27.26715849 33.03493911 -28 29 C-28.67095703 30.01320313 -28.67095703 30.01320313 -29.35546875 31.046875 C-35.88242352 40.67726455 -35.88242352 40.67726455 -40 43 C-43.125 43.4375 -43.125 43.4375 -46 43 C-48.03667615 41.45493534 -48.86073078 40.27853844 -50 38 C-50.5049831 27.90033793 -49.13174913 17.61894376 -46 8 C-46 7.67 -46 7.34 -46 7 C-43.6875 6.6875 -43.6875 6.6875 -41 7 C-38.78540379 9.21459621 -38.01435574 10.91511647 -37.97265625 14.06640625 C-38.21427795 16.73303122 -38.59073831 19.35367228 -39 22 C-39.17273438 23.24136719 -39.34546875 24.48273438 -39.5234375 25.76171875 C-39.99998644 29.17698617 -40.49376058 32.58902759 -41 36 C-37.75449069 35.06326556 -36.27364255 34.37926981 -34.26953125 31.6015625 C-31.14357635 25.21556349 -29.22632418 19.5922948 -28.51953125 12.49609375 C-28 10 -28 10 -26.82421875 8.16015625 C-24.20691958 6.49562123 -22.02966972 6.79802202 -19 7 C-18.97494385 7.70608398 -18.9498877 8.41216797 -18.92407227 9.13964844 C-18.80792631 12.34327509 -18.68528397 15.54662118 -18.5625 18.75 C-18.52318359 19.86117187 -18.48386719 20.97234375 -18.44335938 22.1171875 C-18.40146484 23.18710938 -18.35957031 24.25703125 -18.31640625 25.359375 C-18.27974854 26.34389648 -18.24309082 27.32841797 -18.20532227 28.34277344 C-18.02401258 30.68923551 -17.65668181 32.74718412 -17 35 C-13.16600092 33.52794396 -11.82247836 31.58125389 -9.8125 28.0625 C-9.30332031 27.18722656 -8.79414063 26.31195313 -8.26953125 25.41015625 C-6.89794549 22.96440258 -6.89794549 22.96440258 -6 20 C-6.639375 19.71125 -7.27875 19.4225 -7.9375 19.125 C-10 18 -10 18 -11 16 C-11.60587482 10.62502477 -11.93459941 6.40189912 -8.875 1.8125 C-5.51037865 -0.30867433 -3.89910185 -0.76286775 0 0 Z " fill="#7532E5" transform="translate(168,96)"/>
<path d="M0 0 C2.3125 -0.3125 2.3125 -0.3125 5 0 C7.21459621 2.21459621 7.98564426 3.91511647 8.02734375 7.06640625 C7.78572205 9.73303122 7.40926169 12.35367228 7 15 C6.82726562 16.24136719 6.65453125 17.48273438 6.4765625 18.76171875 C6.00001356 22.17698617 5.50623942 25.58902759 5 29 C8.24550931 28.06326556 9.72635745 27.37926981 11.73046875 24.6015625 C14.85642365 18.21556349 16.77367582 12.5922948 17.48046875 5.49609375 C18 3 18 3 19.17578125 1.16015625 C21.79308042 -0.50437877 23.97033028 -0.20197798 27 0 C27.02505615 0.70608398 27.0501123 1.41216797 27.07592773 2.13964844 C27.19207369 5.34327509 27.31471603 8.54662118 27.4375 11.75 C27.47681641 12.86117187 27.51613281 13.97234375 27.55664062 15.1171875 C27.59853516 16.18710938 27.64042969 17.25703125 27.68359375 18.359375 C27.72025146 19.34389648 27.75690918 20.32841797 27.79467773 21.34277344 C27.97598742 23.68923551 28.34331819 25.74718412 29 28 C33.58640364 26.19113822 35.02181409 23.09882118 37.4375 18.99609375 C39.2223774 16.71591287 40.17895779 16.34655044 43 16 C41.12875628 24.10872278 34.90025269 31.49983521 28 36 C24.85385125 36.07316625 23.64689814 35.57502057 21.3125 33.5 C19.3957092 29.84896991 18.73284151 26.03493911 18 22 C17.32904297 23.01320313 17.32904297 23.01320313 16.64453125 24.046875 C10.11757648 33.67726455 10.11757648 33.67726455 6 36 C2.875 36.4375 2.875 36.4375 0 36 C-2.03667615 34.45493534 -2.86073078 33.27853844 -4 31 C-4.5049831 20.90033793 -3.13174913 10.61894376 0 1 C0 0.67 0 0.34 0 0 Z " fill="#5058E6" transform="translate(122,103)"/>
<path d="M0 0 C2.5 0.25 2.5 0.25 4.5 2.25 C4.6953125 4.6328125 4.6953125 4.6328125 4.625 7.375 C4.60695313 8.28507812 4.58890625 9.19515625 4.5703125 10.1328125 C4.54710938 10.83148438 4.52390625 11.53015625 4.5 12.25 C4.87511719 11.71890625 5.25023438 11.1878125 5.63671875 10.640625 C8.59129873 6.56226272 11.33771999 3.18808 15.5 0.25 C16.16 0.58 16.82 0.91 17.5 1.25 C16.40367317 5.96420538 14.93205942 7.82353971 11.1484375 10.73046875 C5.19134147 16.22172552 2.58066037 24.22108575 0.359375 31.78125 C-0.5 34.25 -0.5 34.25 -2.5 36.25 C-4.9375 36.125 -4.9375 36.125 -7.5 35.25 C-9.3125 33.1875 -9.3125 33.1875 -10.5 31.25 C-11.7684375 32.4875 -11.7684375 32.4875 -13.0625 33.75 C-15.82453135 36.09014589 -16.50048191 36.25003886 -20.375 36.5625 C-21.40625 36.459375 -22.4375 36.35625 -23.5 36.25 C-23.5 35.26 -23.5 34.27 -23.5 33.25 C-23.025625 32.79625 -22.55125 32.3425 -22.0625 31.875 C-20.05416651 29.78633317 -19.88130476 28.0716552 -19.5 25.25 C-19.17 25.25 -18.84 25.25 -18.5 25.25 C-18.17 26.9 -17.84 28.55 -17.5 30.25 C-15.58503378 30.18367961 -15.58503378 30.18367961 -13.5 29.25 C-11.76077723 26.69986786 -11.76077723 26.69986786 -10.375 23.5625 C-9.62863281 22.00982422 -9.62863281 22.00982422 -8.8671875 20.42578125 C-6.5023165 14.93252375 -5.24718719 10.13365175 -4.84375 4.203125 C-4.28740281 1.04206144 -3.11180684 0.31118068 0 0 Z " fill="#3282E0" transform="translate(105.5,102.75)"/>
<path d="M0 0 C2.3125 -0.3125 2.3125 -0.3125 5 0 C7.21459621 2.21459621 7.98564426 3.91511647 8.02734375 7.06640625 C7.78572205 9.73303122 7.40926169 12.35367228 7 15 C6.82726562 16.24136719 6.65453125 17.48273438 6.4765625 18.76171875 C6.00001356 22.17698617 5.50623942 25.58902759 5 29 C6.32 28.67 7.64 28.34 9 28 C8.74438677 30.3431213 8.40729228 32.67843403 8 35 C5.20129973 36.39935013 3.09501208 36.25265405 0 36 C-2.03667615 34.45493534 -2.86073078 33.27853844 -4 31 C-4.5049831 20.90033793 -3.13174913 10.61894376 0 1 C0 0.67 0 0.34 0 0 Z " fill="#3F6BE5" transform="translate(122,103)"/>
<path d="M0 0 C1.9375 1.4375 1.9375 1.4375 3 4 C3.05981332 9.2536029 1.88125361 14.10874061 0 19 C1.65 18.67 3.3 18.34 5 18 C5 18.66 5 19.32 5 20 C5.66 20.33 6.32 20.66 7 21 C6.04287109 21.07347656 6.04287109 21.07347656 5.06640625 21.1484375 C4.24011719 21.22320312 3.41382813 21.29796875 2.5625 21.375 C1.73878906 21.44460937 0.91507813 21.51421875 0.06640625 21.5859375 C-0.61550781 21.72257812 -1.29742187 21.85921875 -2 22 C-2.33 22.66 -2.66 23.32 -3 24 C-4.32 23.67 -5.64 23.34 -7 23 C-6.67 22.01 -6.34 21.02 -6 20 C-6.639375 19.71125 -7.27875 19.4225 -7.9375 19.125 C-10 18 -10 18 -11 16 C-11.60587482 10.62502477 -11.93459941 6.40189912 -8.875 1.8125 C-5.51037865 -0.30867433 -3.89910185 -0.76286775 0 0 Z " fill="#644EE1" transform="translate(168,96)"/>
<path d="M0 0 C4.55555556 0.55555556 4.55555556 0.55555556 6 2 C6.77848128 9.9145597 4.72527209 16.01117968 1 23 C-0.53515625 24.8671875 -0.53515625 24.8671875 -2 26 C-4.13745922 25.74853421 -5.45925779 25.54074221 -7 24 C-7.97874387 15.51289248 -6.6954563 9.14278505 -2 2 C-1.34 1.34 -0.68 0.68 0 0 Z " fill="#F9F7FD" transform="translate(189,108)"/>
<path d="M0 0 C2.6875 0.3125 2.6875 0.3125 5 1 C5.59523754 8.62234744 4.54177693 15.15693717 1 22 C-1.00390625 24.328125 -1.00390625 24.328125 -3 26 C-5.1875 25.875 -5.1875 25.875 -7 25 C-8.88148373 21.23703254 -8.51855619 17.09716373 -8 13 C-6.25228022 8.20220554 -4.07693176 3.248805 0 0 Z " fill="#F8FBFD" transform="translate(75,108)"/>
<path d="M0 0 C-1.28042876 4.77250719 -3.20001388 9.68114907 -7 13 C-9.66796875 13.1953125 -9.66796875 13.1953125 -12 13 C-10.90353942 11.20360704 -9.79754852 9.41302846 -8.6875 7.625 C-8.07261719 6.62726563 -7.45773438 5.62953125 -6.82421875 4.6015625 C-4.91125075 1.87343255 -3.52239463 0 0 0 Z " fill="#624BE1" transform="translate(165,119)"/>
<path d="M0 0 C0.66 0.33 1.32 0.66 2 1 C1.67 4.63 1.34 8.26 1 12 C0.34 12 -0.32 12 -1 12 C-2.17353189 8.47940432 -2.20146402 5.693507 -2 2 C-1.34 1.34 -0.68 0.68 0 0 Z " fill="#F5F4FC" transform="translate(164,100)"/>
<path d="M0 0 C0.66 0 1.32 0 2 0 C1.67 1.65 1.34 3.3 1 5 C0.34 5 -0.32 5 -1 5 C-1.33 5.66 -1.66 6.32 -2 7 C-2.125 4.625 -2.125 4.625 -2 2 C-1.34 1.34 -0.68 0.68 0 0 Z " fill="#4B9CE0" transform="translate(103,103)"/>
</svg>
