<?xml version="1.0" encoding="UTF-8"?>
<svg version="1.1" xmlns="http://www.w3.org/2000/svg" width="204" height="204">
<path d="M0 0 C67.32 0 134.64 0 204 0 C204 67.32 204 134.64 204 204 C136.68 204 69.36 204 0 204 C0 136.68 0 69.36 0 0 Z " fill="#049FFD" transform="translate(0,0)"/>
<path d="M0 0 C67.32 0 134.64 0 204 0 C204 67.32 204 134.64 204 204 C136.68 204 69.36 204 0 204 C0 136.68 0 69.36 0 0 Z M80 5 C80 5.66 80 6.32 80 7 C79.40574219 7.09796875 78.81148438 7.1959375 78.19921875 7.296875 C69.31144662 8.9002678 60.95281 11.70118378 53 16 C53 16.66 53 17.32 53 18 C51.35 18.33 49.7 18.66 48 19 C48 19.66 48 20.32 48 21 C45.99766096 22.07268163 44.28812694 22.94709046 42.04296875 23.359375 C39.48444448 24.16166559 38.6883777 25.20921777 37.0625 27.3125 C34.62067882 30.33248539 32.05406835 32.58889341 29 35 C25.96733837 38.0733249 25.96733837 38.0733249 25 42 C23.515 42.495 23.515 42.495 22 43 C22 43.66 22 44.32 22 45 C20.515 45.495 20.515 45.495 19 46 C17.64391082 48.13431595 16.46036423 50.19688819 15.3125 52.4375 C14.83200195 53.3356543 14.83200195 53.3356543 14.34179688 54.25195312 C12.56593117 57.45370025 12.56593117 57.45370025 12 61 C11.34 61 10.68 61 10 61 C9.08307039 63.75078884 8.89113917 65.35948913 8.9375 68.1875 C8.9684375 70.0746875 8.9684375 70.0746875 9 72 C8.34 72 7.68 72 7 72 C6.51555236 73.99872739 6.0377234 75.99905937 5.5625 78 C5.29566406 79.11375 5.02882813 80.2275 4.75390625 81.375 C1.51999859 96.92456635 2.25669434 112.63786248 6 128 C6.26683594 129.11890625 6.53367187 130.2378125 6.80859375 131.390625 C10.49121997 144.94268949 18.29989576 156.16357123 27 167 C27.90105469 168.16789062 27.90105469 168.16789062 28.8203125 169.359375 C37.54654671 180.01218039 50.05422607 188.40696344 63 193 C63.99 193 64.98 193 66 193 C66 193.66 66 194.32 66 195 C68.64 195.66 71.28 196.32 74 197 C74 197.66 74 198.32 74 199 C83.44879938 200.55575413 92.60399113 201.41673822 102.1875 201.4375 C103.43748779 201.44136719 104.68747559 201.44523438 105.9753418 201.44921875 C116.58458191 201.31828257 126.01535227 199.48157082 136 196 C136 195.34 136 194.68 136 194 C137.2684375 193.8453125 137.2684375 193.8453125 138.5625 193.6875 C146.09992261 192.18001548 151.07916484 188.66180699 157 184 C158.35227876 182.9974485 159.70643041 181.99741798 161.0625 181 C166.77460739 176.78171353 166.77460739 176.78171353 172 172 C172 171.34 172 170.68 172 170 C172.58136719 169.92394531 173.16273438 169.84789062 173.76171875 169.76953125 C181.67162875 167.0500683 187.43603631 154.02837533 191 147 C191.87350029 144.66184265 192.42543535 142.44189975 193 140 C193.52041933 138.74100576 194.0626308 137.49082378 194.625 136.25 C196.19482 133.12766613 196.19482 133.12766613 196 130 C196.66 130 197.32 130 198 130 C202.54472196 121.83727313 201.15388224 110.98245597 201.125 101.9375 C201.12886719 100.72255859 201.13273438 99.50761719 201.13671875 98.25585938 C201.44102245 85.54335727 201.44102245 85.54335727 197 74 C196.18364364 71.35181961 195.59717403 68.71025137 195 66 C194.34 66 193.68 66 193 66 C192.01 62.04 192.01 62.04 191 58 C190.34 58 189.68 58 189 58 C188.67128906 56.50726563 188.67128906 56.50726563 188.3359375 54.984375 C187.0141636 50.39392113 184.51176419 47.00055281 181.625 43.25 C180.83403931 42.21045166 180.83403931 42.21045166 180.02709961 41.14990234 C171.53208017 30.26951362 171.53208017 30.26951362 160.21484375 22.8984375 C159.48394531 22.60195313 158.75304687 22.30546875 158 22 C157.67 21.01 157.34 20.02 157 19 C155.34574535 18.25727342 153.6841343 17.52731684 151.9921875 16.875 C149.96131126 15.9830073 148.36678323 14.90804585 146.5625 13.625 C140.33618585 9.6266706 133.06465017 7.94738468 126 6 C124.89785156 5.67644531 123.79570313 5.35289063 122.66015625 5.01953125 C115.13681503 3.07714133 107.93341767 2.7249971 100.1875 2.6875 C99.22062256 2.68194092 98.25374512 2.67638184 97.25756836 2.6706543 C91.22352327 2.73135271 85.84408723 3.49242971 80 5 Z " fill="#FBFCFD" transform="translate(0,0)"/>
<path d="M0 0 C2.79341091 2.36984188 4.39724129 4.45073258 6.03515625 7.7265625 C6.03515625 8.3865625 6.03515625 9.0465625 6.03515625 9.7265625 C6.69515625 9.7265625 7.35515625 9.7265625 8.03515625 9.7265625 C10.85187 17.23401327 11.67501664 25.26219342 8.8671875 32.90625 C5.1900208 39.88246858 0.80495611 45.6083305 -6.4609375 49 C-13.5282891 51.05074477 -22.36479767 50.90391009 -29.14453125 47.8515625 C-32.78073792 45.60429314 -36.09391267 42.89527632 -38.96484375 39.7265625 C-38.96484375 39.0665625 -38.96484375 38.4065625 -38.96484375 37.7265625 C-39.62484375 37.7265625 -40.28484375 37.7265625 -40.96484375 37.7265625 C-42.79076089 33.05628839 -43.31732077 28.82105841 -43.27734375 23.8515625 C-43.2731543 23.14410889 -43.26896484 22.43665527 -43.26464844 21.70776367 C-43.09840937 14.03689193 -41.42831362 8.34179543 -35.96484375 2.7265625 C-25.99705942 -6.02067681 -11.05703552 -7.58710405 0 0 Z " fill="#F4F9FA" transform="translate(118.96484375,82.2734375)"/>
<path d="M0 0 C1.08506945 9.55784576 2.13878709 19.11890795 3.125 28.6875 C3.21249512 29.5115332 3.29999023 30.33556641 3.39013672 31.18457031 C3.86072902 35.81853156 4.08729358 40.34226409 4 45 C3.31035156 45.02578125 2.62070313 45.0515625 1.91015625 45.078125 C-4.06880482 45.43899508 -8.75795854 46.37897927 -14.125 49.0625 C-16 50 -16 50 -19 51 C-19 51.66 -19 52.32 -19 53 C-20.88671875 52.71484375 -20.88671875 52.71484375 -23 52 C-23.97583937 50.14927015 -24.93680805 48.28833441 -25.80078125 46.3828125 C-27.61279861 42.78238712 -29.99666862 39.63811168 -32.34375 36.37109375 C-34.04298751 33.93845892 -35.47751915 31.46246473 -36.890625 28.859375 C-38.89778415 25.49526319 -41.28252873 22.38246113 -43.609375 19.234375 C-45 17 -45 17 -45 14 C-33.43487034 4.2469183 -14.8385139 -0.35022579 0 0 Z " fill="#FAFCFC" transform="translate(101,22)"/>
<path d="M0 0 C4.65703227 4.65703227 4.26551509 12.81730744 4.32910156 19.0559082 C4.32362305 20.0068335 4.31814453 20.95775879 4.3125 21.9375 C4.30831055 22.9380542 4.30412109 23.9386084 4.29980469 24.96948242 C4.10643638 37.90150227 2.45949535 50.17109341 -3 62 C-3.46807202 63.30905855 -3.92667911 64.62154633 -4.375 65.9375 C-8.03210021 75.62492503 -13.60239687 84.71512225 -21 92 C-21.99 92 -22.98 92 -24 92 C-24.23460937 92.58007812 -24.46921875 93.16015625 -24.7109375 93.7578125 C-26.29823625 96.51875032 -28.10626103 97.93330958 -30.625 99.875 C-31.51960937 100.56851563 -32.41421875 101.26203125 -33.3359375 101.9765625 C-34.21507812 102.64429688 -35.09421875 103.31203125 -36 104 C-36.73476562 104.56460938 -37.46953125 105.12921875 -38.2265625 105.7109375 C-51.75380711 116 -51.75380711 116 -60 116 C-60 116.66 -60 117.32 -60 118 C-71.29735052 121.9393003 -81.8291442 123.47457387 -93.8125 123.4375 C-95.00254639 123.43492187 -96.19259277 123.43234375 -97.41870117 123.4296875 C-105.75901133 123.29157431 -113.77472547 122.35429956 -122 121 C-122 120.34 -122 119.68 -122 119 C-124.64 118.34 -127.28 117.68 -130 117 C-130 116.34 -130 115.68 -130 115 C-130.886875 114.896875 -131.77375 114.79375 -132.6875 114.6875 C-136.11254509 113.97664159 -138.08406617 112.86918835 -141 111 C-141.70640625 110.75894531 -142.4128125 110.51789063 -143.140625 110.26953125 C-160.40734751 102.60329516 -172.95900359 85.98135128 -182 70 C-182.74609375 67.59375 -182.74609375 67.59375 -183 66 C-182.34 66 -181.68 66 -181 66 C-180.67 67.65 -180.34 69.3 -180 71 C-179.01 71.33 -178.02 71.66 -177 72 C-176.30341637 73.65438613 -175.63903117 75.32254318 -175 77 C-174.01904252 78.01868662 -173.02297922 79.02351983 -172 80 C-172 80.66 -172 81.32 -172 82 C-171.01 82 -170.02 82 -169 82 C-167.92474806 84.65228812 -166.90543849 87.28368454 -166 90 C-165.34 90 -164.68 90 -164 90 C-162.83058062 91.1350247 -161.6669745 92.27657275 -160.53125 93.4453125 C-154.31548657 99.75621516 -147.87974121 103.99082179 -140 108 C-139.11957031 108.5053125 -138.23914063 109.010625 -137.33203125 109.53125 C-118.92637243 119.70758041 -94.26845787 122.97544431 -73.8359375 117.90234375 C-71.19714575 117.12352155 -68.72980906 116.20785889 -66.1640625 115.19140625 C-62.76322692 113.91084471 -59.60244299 113.39672473 -56 113 C-56 112.34 -56 111.68 -56 111 C-54.68 111 -53.36 111 -52 111 C-52 110.34 -52 109.68 -52 109 C-51.48953125 108.74347656 -50.9790625 108.48695313 -50.453125 108.22265625 C-44.362288 105.01524741 -39.01217488 101.11285999 -33.6015625 96.890625 C-31 95 -31 95 -28 94 C-26.79117904 91.99983534 -26.79117904 91.99983534 -26 90 C-25.34 90 -24.68 90 -24 90 C-23.73058594 89.43410156 -23.46117187 88.86820312 -23.18359375 88.28515625 C-21.94295056 85.88985503 -20.55594153 83.68336245 -19.0625 81.4375 C-18.30646484 80.29087891 -18.30646484 80.29087891 -17.53515625 79.12109375 C-16.14639859 77.20227591 -14.67261376 75.66302858 -13 74 C-12.31653318 72.34015202 -11.65411685 70.67163195 -11 69 C-10.22186511 67.59657815 -9.42853387 66.20153568 -8.625 64.8125 C2.53264655 44.79436942 2.6299605 22.28126998 0 0 Z " fill="#3D5666" transform="translate(196,78)"/>
<path d="M0 0 C4.10274081 0.5867711 6.51838297 1.34838134 9.3515625 4.390625 C11.72344917 8.96437062 11.44856715 13.55322537 10.44140625 18.4921875 C9.01704008 21.92023294 7.41680504 24.25303258 4.44140625 26.4921875 C0.00459625 28.13720796 -3.40103343 27.91514223 -7.80859375 26.3046875 C-15.03317002 21.54303496 -15.03317002 21.54303496 -16.55859375 18.4921875 C-16.6800768 16.87052998 -16.73403027 15.24334423 -16.74609375 13.6171875 C-16.76027344 12.75351563 -16.77445312 11.88984375 -16.7890625 11 C-16.44453198 7.25104078 -15.12828488 5.23344079 -12.859375 2.28125 C-8.89895821 -0.79832706 -4.83565535 -0.17144138 0 0 Z " fill="#049FFC" transform="translate(104.55859375,91.5078125)"/>
<path d="M0 0 C4.65703227 4.65703227 4.26551509 12.81730744 4.32910156 19.0559082 C4.32088379 20.48229614 4.32088379 20.48229614 4.3125 21.9375 C4.30621582 23.4383313 4.30621582 23.4383313 4.29980469 24.96948242 C4.10643638 37.90150227 2.45949535 50.17109341 -3 62 C-3.46807202 63.30905855 -3.92667911 64.62154633 -4.375 65.9375 C-8.03210021 75.62492503 -13.60239687 84.71512225 -21 92 C-21.99 92 -22.98 92 -24 92 C-24.2475 92.61875 -24.495 93.2375 -24.75 93.875 C-26.20628639 96.35068687 -27.37812506 96.95125002 -30 98 C-29.25 95.125 -29.25 95.125 -28 92 C-26 90.875 -26 90.875 -24 90 C-23.29984595 88.68394281 -22.63916712 87.3467322 -22 86 C-21.04445837 84.46421304 -20.06406807 82.94367489 -19.0625 81.4375 C-18.55847656 80.67308594 -18.05445313 79.90867187 -17.53515625 79.12109375 C-16.14639859 77.20227591 -14.67261376 75.66302858 -13 74 C-12.31653318 72.34015202 -11.65411685 70.67163195 -11 69 C-10.22186511 67.59657815 -9.42853387 66.20153568 -8.625 64.8125 C2.53264655 44.79436942 2.6299605 22.28126998 0 0 Z " fill="#245573" transform="translate(196,78)"/>
<path d="M0 0 C0.66 0 1.32 0 2 0 C2.33 1.65 2.66 3.3 3 5 C3.99 5.33 4.98 5.66 6 6 C6.69658363 7.65438613 7.36096883 9.32254318 8 11 C8.98095748 12.01868662 9.97702078 13.02351983 11 14 C11 14.66 11 15.32 11 16 C11.99 16 12.98 16 14 16 C15.07525194 18.65228812 16.09456151 21.28368454 17 24 C17.66 24 18.32 24 19 24 C20.16941938 25.1350247 21.3330255 26.27657275 22.46875 27.4453125 C28.6797148 33.75134309 35.11505827 38.01002948 43 42 C43.97324219 42.52851563 44.94648437 43.05703125 45.94921875 43.6015625 C52.7978603 47.23626638 59.40457681 49.46475489 67 51 C66.01 51.99 66.01 51.99 65 53 C73.56654988 54.88351219 81.93475202 55.40720223 90.6875 55.625 C91.97333984 55.66367188 93.25917969 55.70234375 94.58398438 55.7421875 C97.72252168 55.8355269 100.86106706 55.92131076 104 56 C104 56.33 104 56.66 104 57 C100.12634335 57.05038777 96.2528201 57.08617252 92.37890625 57.10986328 C90.4322232 57.12456776 88.48563053 57.15001202 86.5390625 57.17578125 C77.8062386 57.22033647 69.60170677 56.47719534 61 55 C61 54.34 61 53.68 61 53 C58.36 52.34 55.72 51.68 53 51 C53 50.34 53 49.68 53 49 C52.113125 48.896875 51.22625 48.79375 50.3125 48.6875 C46.88745491 47.97664159 44.91593383 46.86918835 42 45 C41.29359375 44.75894531 40.5871875 44.51789063 39.859375 44.26953125 C22.59265249 36.60329516 10.04099641 19.98135128 1 4 C0.25390625 1.59375 0.25390625 1.59375 0 0 Z " fill="#5E7D90" transform="translate(13,144)"/>
<path d="M0 0 C0.495 0.99 0.495 0.99 1 2 C0.13890625 1.84015625 -0.7221875 1.6803125 -1.609375 1.515625 C-11.2336424 0.05202673 -21.41187725 0.0235036 -29.9609375 5.18359375 C-36.03865401 9.86794731 -40.39135149 16.14789558 -41.59375 23.7578125 C-41.84271186 27.18103812 -41.99011062 30.56838565 -42 34 C-45.33176757 28.23551326 -44.56532095 21.65864552 -43 15.375 C-42.67 14.26125 -42.34 13.1475 -42 12 C-41.34 12 -40.68 12 -40 12 C-39.773125 11.278125 -39.54625 10.55625 -39.3125 9.8125 C-37.73764802 6.43781719 -35.71862354 4.51969987 -33 2 C-32.54625 1.49082031 -32.0925 0.98164062 -31.625 0.45703125 C-23.23060386 -7.0696749 -8.98729407 -4.974785 0 0 Z " fill="#285A79" transform="translate(116,78)"/>
<path d="M0 0 C1.8253125 -0.01546875 1.8253125 -0.01546875 3.6875 -0.03125 C7.48404133 0.57762927 8.64978257 1.53872604 11 4.5 C10.505 4.355625 10.01 4.21125 9.5 4.0625 C5.97753625 3.26994566 2.60694248 2.79088246 -1 2.5 C-1.66 3.16 -2.32 3.82 -3 4.5 C-3.99 4.5 -4.98 4.5 -6 4.5 C-6.12375 5.11875 -6.2475 5.7375 -6.375 6.375 C-7 8.5 -7 8.5 -9 10.5 C-9.54158082 16.0011511 -9.54158082 16.0011511 -7.625 21 C-3.50297254 23.35544426 0.37416858 23.20474579 5 22.5 C8.16666667 21.33333333 8.16666667 21.33333333 10 18.5 C10.97814653 15.19810854 11.56363002 11.91280404 12 8.5 C12.66 8.5 13.32 8.5 14 8.5 C14.60528186 13.96995458 14.66665964 18.35067642 11.5625 23.0625 C9.10107794 25.93706855 7.24242397 27.09225829 3.5 27.6875 C-2.96351669 27.83932757 -7.29372147 24.66841813 -12 20.5 C-13.22485812 18.05028376 -13.16722808 16.35765539 -13.1875 13.625 C-13.20167969 12.76132813 -13.21585937 11.89765625 -13.23046875 11.0078125 C-12.88623721 7.26210657 -11.56398599 5.24153713 -9.3125 2.28125 C-6.1420335 -0.16086609 -3.96301058 -0.03358484 0 0 Z " fill="#41ADEE" transform="translate(101,91.5)"/>
<path d="M0 0 C0.495 0.99 0.495 0.99 1 2 C-1.64 1.67 -4.28 1.34 -7 1 C-7 0.34 -7 -0.32 -7 -1 C-8.51980469 -1.29003906 -8.51980469 -1.29003906 -10.0703125 -1.5859375 C-11.42191568 -1.84874923 -12.77347592 -2.11178183 -14.125 -2.375 C-15.12273437 -2.56449219 -15.12273437 -2.56449219 -16.140625 -2.7578125 C-20.22351718 -3.55837959 -24.07465124 -4.63224392 -28 -6 C-32.08835033 -7.16685354 -36.04317686 -7.12607689 -40.265625 -7.09765625 C-41.05902283 -7.0962413 -41.85242065 -7.09482635 -42.66986084 -7.09336853 C-45.19661272 -7.08778415 -47.72327504 -7.07523454 -50.25 -7.0625 C-51.96614455 -7.05748298 -53.68229049 -7.05292043 -55.3984375 -7.04882812 C-59.59899269 -7.03781984 -63.79948117 -7.02056596 -68 -7 C-68 -7.66 -68 -8.32 -68 -9 C-45.94186568 -14.59885367 -19.94844171 -11.1332547 0 0 Z " fill="#5EBDF4" transform="translate(148,14)"/>
<path d="M0 0 C0 0.99 0 1.98 0 3 C-1.05316406 3.15855469 -2.10632813 3.31710938 -3.19140625 3.48046875 C-15.76257557 5.472958 -28.16515578 8.064637 -39.0703125 14.984375 C-41.34779801 16.18305159 -43.46985339 16.5972777 -46 17 C-45.35953563 14.11791034 -44.65269374 12.43282445 -42.15625 10.77734375 C-36.66129032 8 -36.66129032 8 -34 8 C-34 7.34 -34 6.68 -34 6 C-22.48869193 2.07117837 -12.28971659 -1.0987495 0 0 Z " fill="#526978" transform="translate(100,19)"/>
<path d="M0 0 C9.35795455 9.09801136 9.35795455 9.09801136 10 16 C10.66 16 11.32 16 12 16 C12.66 18.64 13.32 21.28 14 24 C14.66 24 15.32 24 16 24 C16.19335938 24.77085938 16.38671875 25.54171875 16.5859375 26.3359375 C16.97652344 27.84027344 16.97652344 27.84027344 17.375 29.375 C17.63023437 30.37273437 17.88546875 31.37046875 18.1484375 32.3984375 C18.82404319 35.12541015 18.82404319 35.12541015 21 37 C22.2517627 44.61356931 22.1495057 52.2386255 22.125 59.9375 C22.13080078 61.75411133 22.13080078 61.75411133 22.13671875 63.60742188 C22.11558544 83.12403085 22.11558544 83.12403085 18 88 C18.144375 86.96746094 18.28875 85.93492188 18.4375 84.87109375 C19.60431585 75.9279278 20.21455474 67.08405773 20.25 58.0625 C20.25902344 57.12913818 20.26804688 56.19577637 20.27734375 55.23413086 C20.24937225 48.64276365 19.36915102 42.44265086 18 36 C17.34 36 16.68 36 16 36 C15.73445312 35.39671875 15.46890625 34.7934375 15.1953125 34.171875 C14.84210938 33.37265625 14.48890625 32.5734375 14.125 31.75 C13.77695313 30.96109375 13.42890625 30.1721875 13.0703125 29.359375 C12.39088358 27.86165578 11.68049035 26.37730602 10.9296875 24.9140625 C9.05711764 21.05877162 8.19737486 16.76130302 7.125 12.625 C6.75375 11.75875 6.3825 10.8925 6 10 C4.68 9.67 3.36 9.34 2 9 C1.34 6.03 0.68 3.06 0 0 Z " fill="#8BA3B3" transform="translate(179,42)"/>
<path d="M0 0 C0.33 0 0.66 0 1 0 C1.1496717 4.19080757 1.20298598 7.31492231 0 11.375 C-1.64620813 17.63263589 -1.20981712 24.07999608 -1.125 30.5 C-1.11597656 31.799375 -1.10695313 33.09875 -1.09765625 34.4375 C-1.07421733 37.62519299 -1.0414044 40.8124982 -1 44 C-0.34 43.01 0.32 42.02 1 41 C1.04898437 41.96679688 1.09796875 42.93359375 1.1484375 43.9296875 C1.58029199 51.44991228 2.21953056 58.65340279 4 66 C4.66 66 5.32 66 6 66 C6.33 67.98 6.66 69.96 7 72 C6.34 72 5.68 72 5 72 C1.41107403 65.32316621 -0.22746984 58.30885841 -2 51 C-2.23074219 50.09121094 -2.46148437 49.18242188 -2.69921875 48.24609375 C-5.87333622 33.86126349 -4.22175855 19.18909208 -1 5 C-0.6619947 3.33427454 -0.32662255 1.66799478 0 0 Z " fill="#48AFEA" transform="translate(7,72)"/>
<path d="M0 0 C2.90654106 5.23177391 3.22840343 10.06151091 3 16 C2 17 2 17 -0.72265625 17.09765625 C-1.82480469 17.08605469 -2.92695312 17.07445313 -4.0625 17.0625 C-5.16722656 17.05347656 -6.27195312 17.04445313 -7.41015625 17.03515625 C-8.26480469 17.02355469 -9.11945313 17.01195313 -10 17 C-10 17.66 -10 18.32 -10 19 C-10.99 19.33 -11.98 19.66 -13 20 C-8.05 20.33 -3.1 20.66 2 21 C2 21.33 2 21.66 2 22 C1.07058594 22.10957031 0.14117187 22.21914062 -0.81640625 22.33203125 C-8.93304466 23.37305995 -15.14530869 24.43020579 -22 29 C-22.48607595 21.58734177 -22.48607595 21.58734177 -20.5 19.1875 C-12.8949087 15.57508163 -7.42035207 14.58207811 1 15 C0.7525 13.515 0.7525 13.515 0.5 12 C-0.08474517 7.97267058 -0.07132024 4.06525377 0 0 Z " fill="#0D9AEF" transform="translate(104,52)"/>
<path d="M0 0 C0.33 0 0.66 0 1 0 C0.9278125 0.71800781 0.855625 1.43601562 0.78125 2.17578125 C-0.36095389 14.9145274 -1.41455581 28.35118779 1.66015625 40.87109375 C2.03551733 43.2224936 1.73165143 44.75388129 1 47 C-0.4606285 44.35261084 -1 43.10551666 -1 40 C-1.99 39.67 -2.98 39.34 -4 39 C-4 28.44 -4 17.88 -4 7 C-3.01 7.33 -2.02 7.66 -1 8 C-0.67 5.36 -0.34 2.72 0 0 Z " fill="#E7F5F9" transform="translate(4,80)"/>
<path d="M0 0 C0.66 0 1.32 0 2 0 C2.33 1.65 2.66 3.3 3 5 C3.99 5.33 4.98 5.66 6 6 C6.69658363 7.65438613 7.36096883 9.32254318 8 11 C8.98095748 12.01868662 9.97702078 13.02351983 11 14 C11 14.66 11 15.32 11 16 C11.99 16 12.98 16 14 16 C15.07525194 18.65228812 16.09456151 21.28368454 17 24 C17.66 24 18.32 24 19 24 C20.16346819 25.12924853 21.32065844 26.26568377 22.4453125 27.43359375 C26.22299475 31.23975099 30.16070139 34.93729414 34.8125 37.625 C37.51757261 39.32533136 38.55726338 41.19046026 40 44 C22.58788736 35.67870214 10.31699381 20.46921912 1 4 C0.25390625 1.59375 0.25390625 1.59375 0 0 Z " fill="#2A8AC2" transform="translate(13,144)"/>
<path d="M0 0 C0.66 0.33 1.32 0.66 2 1 C-2.46970205 8.96772974 -9.54536878 13.86865511 -18 17 C-19.19625 17.556875 -20.3925 18.11375 -21.625 18.6875 C-24.76327266 19.90793937 -26.69270192 20.30066346 -30 20 C-28.68 19.67 -27.36 19.34 -26 19 C-26 18.34 -26 17.68 -26 17 C-24.68 17 -23.36 17 -22 17 C-22 16.34 -22 15.68 -22 15 C-21.48953125 14.74347656 -20.9790625 14.48695313 -20.453125 14.22265625 C-13.30313751 10.45750326 -5.75187145 5.75187145 0 0 Z " fill="#184766" transform="translate(166,172)"/>
<path d="M0 0 C0.66 0 1.32 0 2 0 C2.60528186 5.46995458 2.66665964 9.85067642 -0.4375 14.5625 C-2.89892206 17.43706855 -4.75757603 18.59225829 -8.5 19.1875 C-12.68292059 19.28608735 -15.51287452 18.40777712 -19 16 C-20.875 13.8125 -20.875 13.8125 -22 12 C-21.38125 12.33 -20.7625 12.66 -20.125 13 C-14.65113131 14.75163798 -9.27915182 15.04461125 -4 12.625 C-1.06501647 8.77283412 -0.60484206 4.73040656 0 0 Z " fill="#3A586A" transform="translate(113,100)"/>
<path d="M0 0 C0.53109375 0.27714844 1.0621875 0.55429688 1.609375 0.83984375 C2.31578125 1.20207031 3.0221875 1.56429687 3.75 1.9375 C4.79414062 2.47697266 4.79414062 2.47697266 5.859375 3.02734375 C12.5495186 6.06720827 21.72767434 6.51311534 28.625 4.0703125 C30.44580543 3.09966254 32.227675 2.05657837 34 1 C34.66 1.33 35.32 1.66 36 2 C35.67 2.66 35.34 3.32 35 4 C34.01 4 33.02 4 32 4 C31.34 5.32 30.68 6.64 30 8 C26.3958502 8.02900455 22.79173038 8.04680018 19.1875 8.0625 C17.65125977 8.07506836 17.65125977 8.07506836 16.08398438 8.08789062 C14.60961914 8.09272461 14.60961914 8.09272461 13.10546875 8.09765625 C12.19949951 8.10289307 11.29353027 8.10812988 10.36010742 8.11352539 C8 8 8 8 5 7 C4.67 7.99 4.34 8.98 4 10 C4 8.68 4 7.36 4 6 C3.01 5.67 2.02 5.34 1 5 C0.67 3.35 0.34 1.7 0 0 Z " fill="#42B2F4" transform="translate(84,126)"/>
<path d="M0 0 C4.19586599 4.19586599 4.11740616 10.95548323 4.23046875 16.62890625 C4.22653652 18.60681878 4.21207653 20.58473625 4.1875 22.5625 C4.18685547 23.55185547 4.18621094 24.54121094 4.18554688 25.56054688 C4.15230183 31.12724567 3.81843433 36.4935738 3 42 C2.34 42 1.68 42 1 42 C0.505 44.475 0.505 44.475 0 47 C-1.34296369 44.31407262 -0.71513638 43.04248028 -0.07421875 40.12890625 C1.11123959 34.01218051 1.26304306 28.15191049 1.1875 21.9375 C1.1865332 20.4205957 1.1865332 20.4205957 1.18554688 18.87304688 C1.14877797 12.52836723 0.75596942 6.29916518 0 0 Z " fill="#1F5D84" transform="translate(196,78)"/>
<path d="M0 0 C-1.32 0.33 -2.64 0.66 -4 1 C-4 1.66 -4 2.32 -4 3 C-21.65390909 9.8704848 -37.26117119 10.90617144 -56 10 C-56 9.67 -56 9.34 -56 9 C-46.76 9 -37.52 9 -28 9 C-28 8.34 -28 7.68 -28 7 C-26.27318563 6.49193553 -24.54342021 5.99389533 -22.8125 5.5 C-21.36810547 5.08234375 -21.36810547 5.08234375 -19.89453125 4.65625 C-17.14654124 4.03322392 -14.80401584 3.87697188 -12 4 C-12 3.34 -12 2.68 -12 2 C-7.8803623 0.70756464 -4.33168317 -0.26252625 0 0 Z " fill="#0C80C6" transform="translate(144,188)"/>
<path d="M0 0 C0.33 0 0.66 0 1 0 C0.72668337 6.4229407 -0.36892821 11.71482315 -2.96875 17.6015625 C-3.94711046 19.87699175 -4.65717582 22.13288931 -5.375 24.5 C-7 28 -7 28 -10.1875 29.5 C-11.5796875 29.7475 -11.5796875 29.7475 -13 30 C-11.96977026 27.92536305 -10.92681003 25.86034158 -9.8515625 23.80859375 C-7.10710908 18.50323315 -4.85321594 13.18564763 -2.89453125 7.54296875 C-1.99900707 4.99717729 -1.01838444 2.49885521 0 0 Z " fill="#285473" transform="translate(197,120)"/>
<path d="M0 0 C4.87799527 0.41811388 6.84882227 2.36402569 10 6 C13.73887583 11.08902544 15.13768765 14.52072733 15.09765625 20.765625 C15.09443359 21.65507813 15.09121094 22.54453125 15.08789062 23.4609375 C15.07951172 24.38132812 15.07113281 25.30171875 15.0625 26.25 C15.05798828 27.18585938 15.05347656 28.12171875 15.04882812 29.0859375 C15.03706918 31.39069041 15.02063426 33.69531227 15 36 C14.34 36 13.68 36 13 36 C12.34 37.32 11.68 38.64 11 40 C10.67 39.34 10.34 38.68 10 38 C10.46921875 37.113125 10.9384375 36.22625 11.421875 35.3125 C13.21369912 31.55144344 13.34071573 29.13663742 13.25 25 C13.23453125 23.824375 13.2190625 22.64875 13.203125 21.4375 C13.01315746 18.22266471 12.5976641 15.16183586 12 12 C11.34 12 10.68 12 10 12 C8.88671875 10.35546875 8.88671875 10.35546875 7.6875 8.1875 C5.58172973 4.64027985 3.77710274 2.83459276 0 1 C0 0.67 0 0.34 0 0 Z " fill="#3E9CD3" transform="translate(115,80)"/>
<path d="M0 0 C0.66 0.33 1.32 0.66 2 1 C1.01 2.485 1.01 2.485 0 4 C0.66 4 1.32 4 2 4 C2.7734375 5.423125 2.7734375 5.423125 3.5625 6.875 C5.34774639 10.01500783 7.33584622 12.93819122 9.4375 15.875 C18 27.94369612 18 27.94369612 18 32 C17.01 32 16.02 32 15 32 C14.15885829 30.56705502 13.32734313 29.12845595 12.5 27.6875 C11.80390625 26.48673828 11.80390625 26.48673828 11.09375 25.26171875 C10 23 10 23 10 20 C9.34 20 8.68 20 8 20 C6.32409509 17.63349128 4.80427184 15.29110082 3.3125 12.8125 C2.88388672 12.13896484 2.45527344 11.46542969 2.01367188 10.77148438 C-1.05454235 5.70720164 -1.05454235 5.70720164 -0.76953125 2.01171875 C-0.51558594 1.34785156 -0.26164062 0.68398438 0 0 Z " fill="#4B9ACD" transform="translate(54,32)"/>
<path d="M0 0 C0.33 0.66 0.66 1.32 1 2 C0.67 2.99 0.34 3.98 0 5 C-0.09697215 7.61539582 -0.13922262 10.1979083 -0.125 12.8125 C-0.12886719 13.51181641 -0.13273437 14.21113281 -0.13671875 14.93164062 C-0.12899562 19.05965562 0.19915368 22.95127695 1 27 C1.66 27 2.32 27 3 27 C4.38938077 28.96147874 5.7260411 30.96166576 7 33 C5.68 33 4.36 33 3 33 C3 32.01 3 31.02 3 30 C2.01 29.67 1.02 29.34 0 29 C-2.90378795 23.72410358 -3.4696533 19.3276409 -3.375 13.375 C-3.38660156 12.63765625 -3.39820312 11.9003125 -3.41015625 11.140625 C-3.38562217 6.57728638 -2.74035189 3.66830174 0 0 Z " fill="#79A5BE" transform="translate(77,93)"/>
<path d="M0 0 C0.33 0 0.66 0 1 0 C1.07347656 1.45019531 1.07347656 1.45019531 1.1484375 2.9296875 C1.58029199 10.44991228 2.21953056 17.65340279 4 25 C4.66 25 5.32 25 6 25 C6.33 26.98 6.66 28.96 7 31 C6.34 31 5.68 31 5 31 C2.63947707 26.61037427 1.09803412 22.37463346 -0.1875 17.5625 C-0.53167969 16.30566406 -0.87585938 15.04882812 -1.23046875 13.75390625 C-1.99786477 10.01041602 -2.28220984 6.80751962 -2 3 C-1.34 2.01 -0.68 1.02 0 0 Z " fill="#1DA1F0" transform="translate(7,113)"/>
<path d="M0 0 C7.39774955 -0.56663614 13.44074697 0.36922155 20 4 C20.33 4.66 20.66 5.32 21 6 C20.14148438 5.83757812 19.28296875 5.67515625 18.3984375 5.5078125 C10.31941007 4.30060151 2.04836852 4.73751082 -6 6 C-4.58480285 3.9656541 -3.45017877 3.09589607 -1.01953125 2.578125 C0.98176954 2.33726048 2.9909944 2.16467259 5 2 C3.35 1.67 1.7 1.34 0 1 C0 0.67 0 0.34 0 0 Z " fill="#125884" transform="translate(96,74)"/>
<path d="M0 0 C0.95261487 4.76307437 1.08333357 9.1666528 1 14 C-1 12 -1 12 -2 9 C-2 6.69 -2 4.38 -2 2 C-11.405 2.99 -11.405 2.99 -21 4 C-14.65939616 -0.22706923 -7.41567962 -0.2354184 0 0 Z " fill="#C0D7E2" transform="translate(101,22)"/>
<path d="M0 0 C-0.763125 0.268125 -1.52625 0.53625 -2.3125 0.8125 C-4.99226246 1.99658109 -6.01711858 2.93780332 -8 5 C-13.37142857 9 -13.37142857 9 -18 9 C-17.37081707 6.16867679 -16.67579102 4.45251205 -14.2265625 2.8125 C-5.29635576 -1.70240006 -5.29635576 -1.70240006 0 0 Z " fill="#3B5C72" transform="translate(72,27)"/>
<path d="M0 0 C2.90654106 5.23177391 3.22840343 10.06151091 3 16 C0.94077598 18.05922402 -3.21708124 17.41427579 -6.0625 17.5625 C-7.20041992 17.62727539 -7.20041992 17.62727539 -8.36132812 17.69335938 C-10.24065438 17.79973633 -12.12030244 17.90039934 -14 18 C-10.72698081 15.03090402 -8.61934238 14.65645206 -4.25 14.8125 C-3.26515625 14.83957031 -2.2803125 14.86664063 -1.265625 14.89453125 C-0.51796875 14.92933594 0.2296875 14.96414062 1 15 C0.835 14.01 0.67 13.02 0.5 12 C-0.08474517 7.97267058 -0.07132024 4.06525377 0 0 Z " fill="#44AFEF" transform="translate(104,52)"/>
<path d="M0 0 C0.33 0 0.66 0 1 0 C0.34 10.56 -0.32 21.12 -1 32 C-3.47773977 28.28339035 -3.34258313 25.36767848 -3.3125 21.0625 C-3.31056641 19.93146851 -3.31056641 19.93146851 -3.30859375 18.77758789 C-3.19750703 12.23388551 -2.01764067 6.2330685 0 0 Z " fill="#CCEFFB" transform="translate(4,80)"/>
<path d="M0 0 C0.33 0 0.66 0 1 0 C1 2.31 1 4.62 1 7 C0.31035156 7.02578125 -0.37929687 7.0515625 -1.08984375 7.078125 C-7.06880482 7.43899508 -11.75795854 8.37897927 -17.125 11.0625 C-19 12 -19 12 -22 13 C-22 13.66 -22 14.32 -22 15 C-23.32 14.67 -24.64 14.34 -26 14 C-26.33 12.68 -26.66 11.36 -27 10 C-26.030625 10.0825 -25.06125 10.165 -24.0625 10.25 C-20.76336257 10.27644599 -18.67257521 9.49551597 -15.75 8 C-10.5277757 5.43849447 -5.70812193 5.61590208 0 6 C0 4.02 0 2.04 0 0 Z " fill="#ACE4FC" transform="translate(104,60)"/>
<path d="M0 0 C0.66 0.33 1.32 0.66 2 1 C0.7934375 2.11375 0.7934375 2.11375 -0.4375 3.25 C-2.93362022 5.92876317 -3.35075526 6.64556883 -4 10 C-5.1875 12.25 -5.1875 12.25 -7 14 C-8.99956611 14.04165763 -11.00043389 14.04165763 -13 14 C-14.87890434 15.37506099 -14.87890434 15.37506099 -16 17 C-16.66 16.67 -17.32 16.34 -18 16 C-15.08061576 13.55402942 -12.15362774 11.12375568 -9.1875 8.734375 C-8.1975 7.93515625 -7.2075 7.1359375 -6.1875 6.3125 C-5.23230469 5.54550781 -4.27710938 4.77851563 -3.29296875 3.98828125 C-0.94464701 2.20827354 -0.94464701 2.20827354 0 0 Z " fill="#B6B7B8" transform="translate(172,170)"/>
<path d="M0 0 C4.455 1.98 4.455 1.98 9 4 C9 4.66 9 5.32 9 6 C9.680625 6.185625 10.36125 6.37125 11.0625 6.5625 C15.18689821 8.58082253 17.90378945 11.66287393 21 15 C20.01 15.495 20.01 15.495 19 16 C18.01 15.67 17.02 15.34 16 15 C16 14.01 16 13.02 16 12 C14.35 11.67 12.7 11.34 11 11 C11 10.01 11 9.02 11 8 C10.236875 7.896875 9.47375 7.79375 8.6875 7.6875 C5.75105648 6.93631677 4.95087501 6.21690342 3 4 C2.01 3.34 1.02 2.68 0 2 C0 1.34 0 0.68 0 0 Z " fill="#53B2EA" transform="translate(149,16)"/>
<path d="M0 0 C1.2375 -0.020625 2.475 -0.04125 3.75 -0.0625 C4.44609375 -0.07410156 5.1421875 -0.08570313 5.859375 -0.09765625 C8 0 8 0 9.71289062 0.48632812 C12.733857 1.16482015 15.63990104 1.22140047 18.734375 1.31640625 C20.02988281 1.35830078 21.32539062 1.40019531 22.66015625 1.44335938 C24.02343476 1.48316671 25.38671606 1.52287906 26.75 1.5625 C28.12891875 1.60572274 29.50782526 1.64933821 30.88671875 1.69335938 C34.2577119 1.79943958 37.62877826 1.9014985 41 2 C41 2.33 41 2.66 41 3 C36.28606679 3.04970487 31.5722886 3.085863 26.8581543 3.10986328 C25.25689026 3.11987623 23.65564429 3.1334906 22.05444336 3.15087891 C19.74328124 3.17533565 17.43236238 3.18653029 15.12109375 3.1953125 C14.0597245 3.21079636 14.0597245 3.21079636 12.97691345 3.22659302 C8.24165735 3.22764468 4.44683503 2.46788729 0 1 C0 0.67 0 0.34 0 0 Z " fill="#0B4467" transform="translate(76,196)"/>
<path d="M0 0 C0.99 0 1.98 0 3 0 C1.53437194 6.18820738 -2.08459594 11.09651048 -6 16 C-6.66 16.33 -7.32 16.66 -8 17 C-7.54917531 15.53932801 -7.08906463 14.08151968 -6.625 12.625 C-6.36976563 11.81289062 -6.11453125 11.00078125 -5.8515625 10.1640625 C-5 8 -5 8 -3 6 C-2.31246699 4.34183216 -1.64438717 2.67540664 -1 1 C-0.67 0.67 -0.34 0.34 0 0 Z " fill="#4F626E" transform="translate(186,148)"/>
<path d="M0 0 C0.66 0.33 1.32 0.66 2 1 C0.58993317 3.73275772 -0.82772634 6.46110394 -2.25 9.1875 C-2.64574219 9.95642578 -3.04148437 10.72535156 -3.44921875 11.51757812 C-5.63981168 15.7012515 -7.87203706 19.42006077 -11 23 C-10.67 20.69 -10.34 18.38 -10 16 C-9.34 16 -8.68 16 -8 16 C-7.58427734 14.92492187 -7.58427734 14.92492187 -7.16015625 13.828125 C-6.02739977 11.06679269 -4.77517772 8.4173693 -3.4375 5.75 C-2.78587891 4.44289063 -2.78587891 4.44289063 -2.12109375 3.109375 C-1 1 -1 1 0 0 Z " fill="#7DCBF7" transform="translate(20,45)"/>
<path d="M0 0 C3.4570323 1.59366737 6.46364568 3.60746489 9.5625 5.8125 C10.51253906 6.47894531 11.46257813 7.14539063 12.44140625 7.83203125 C15.04001818 10.03390854 16.44301036 11.9961109 18 15 C14.27699494 13.32734555 11.14978486 11.04689249 7.875 8.625 C6.82054687 7.85414063 5.76609375 7.08328125 4.6796875 6.2890625 C2.24290466 4.20749582 1.09211224 2.9527479 0 0 Z " fill="#2F749B" transform="translate(35,173)"/>
<path d="M0 0 C1.24523437 0.01804687 2.49046875 0.03609375 3.7734375 0.0546875 C5.18496094 0.08949219 5.18496094 0.08949219 6.625 0.125 C6.625 0.785 6.625 1.445 6.625 2.125 C0.025 2.785 -6.575 3.445 -13.375 4.125 C-13.375 3.465 -13.375 2.805 -13.375 2.125 C-8.75130977 0.31820413 -4.94971347 -0.09339082 0 0 Z " fill="#0A4468" transform="translate(93.375,18.875)"/>
<path d="M0 0 C2.74811229 2.74811229 2.7516517 5.02898874 3.09765625 8.8046875 C3 11 3 11 1.3125 13.5 C-0.87425275 14.91843422 -2.43706896 15.63386699 -5 16 C-4.360625 15.21625 -3.72125 14.4325 -3.0625 13.625 C-0.21991345 9.44649822 -0.19460806 4.92358402 0 0 Z " fill="#C0C1C2" transform="translate(115,100)"/>
<path d="M0 0 C0 0.33 0 0.66 0 1 C-0.97582031 1.04898438 -1.95164062 1.09796875 -2.95703125 1.1484375 C-4.22933594 1.22320312 -5.50164062 1.29796875 -6.8125 1.375 C-8.70935547 1.47941406 -8.70935547 1.47941406 -10.64453125 1.5859375 C-14.12755234 1.76102939 -14.12755234 1.76102939 -17 4 C-19.1875 3.625 -19.1875 3.625 -21 3 C-14.38496781 -2.42771872 -8.13199052 -1.66810062 0 0 Z " fill="#174562" transform="translate(107,76)"/>
<path d="M0 0 C2.1640625 -0.29296875 2.1640625 -0.29296875 4.625 -0.1875 C5.44226563 -0.16042969 6.25953125 -0.13335937 7.1015625 -0.10546875 C8.04128906 -0.05326172 8.04128906 -0.05326172 9 0 C9 0.66 9 1.32 9 2 C9.639375 2.28875 10.27875 2.5775 10.9375 2.875 C13 4 13 4 14 6 C13.46890625 5.68289062 12.9378125 5.36578125 12.390625 5.0390625 C9.45464152 3.7629651 6.93825671 3.58292979 3.75 3.375 C2.67234375 3.30023438 1.5946875 3.22546875 0.484375 3.1484375 C-0.33546875 3.09945312 -1.1553125 3.05046875 -2 3 C-1.34 2.01 -0.68 1.02 0 0 Z " fill="#BFE6F9" transform="translate(98,89)"/>
<path d="M0 0 C0.721875 0.144375 1.44375 0.28875 2.1875 0.4375 C3.5796875 0.7159375 3.5796875 0.7159375 5 1 C6.66666667 1.33333333 8.33333333 1.66666667 10 2 C6.8745041 4.64465038 3.91211733 5.84414715 0 7 C0 4.69 0 2.38 0 0 Z " fill="#0B94E7" transform="translate(56,24)"/>
<path d="M0 0 C-10.86152625 6.64991403 -10.86152625 6.64991403 -16.20703125 5.54296875 C-16.79871094 5.36378906 -17.39039063 5.18460938 -18 5 C-4.86101549 -1.86962134 -4.86101549 -1.86962134 0 0 Z " fill="#33ACF0" transform="translate(74,10)"/>
<path d="M0 0 C0.33 0.66 0.66 1.32 1 2 C1.66 2 2.32 2 3 2 C3.53122363 3.76774419 4.04964073 5.53934083 4.5625 7.3125 C4.85253906 8.29863281 5.14257812 9.28476563 5.44140625 10.30078125 C6 13 6 13 5 16 C5 15.34 5 14.68 5 14 C4.34 14 3.68 14 3 14 C2.49307308 12.4188708 1.99473557 10.83498617 1.5 9.25 C1.2215625 8.36828125 0.943125 7.4865625 0.65625 6.578125 C0 4 0 4 0 0 Z " fill="#4B87AC" transform="translate(192,64)"/>
<path d="M0 0 C0.33 0 0.66 0 1 0 C1 1.98 1 3.96 1 6 C-0.98 6.99 -0.98 6.99 -3 8 C-3 9.98 -3 11.96 -3 14 C-3.99 14.495 -3.99 14.495 -5 15 C-4.72569093 8.82804592 -3.96185965 4.82851645 0 0 Z " fill="#26A6F4" transform="translate(13,62)"/>
<path d="M0 0 C2.97 0 5.94 0 9 0 C6.82276258 2.17723742 5.99514021 2.41899846 3.0859375 3.0703125 C1.94511719 3.33134766 1.94511719 3.33134766 0.78125 3.59765625 C-0.0128125 3.77167969 -0.806875 3.94570313 -1.625 4.125 C-2.42679687 4.30675781 -3.22859375 4.48851562 -4.0546875 4.67578125 C-6.03499476 5.12370789 -8.0173177 5.56270604 -10 6 C-9.67 5.01 -9.34 4.02 -9 3 C-5.92382812 2.70703125 -5.92382812 2.70703125 -2.84765625 2.4140625 C-2.23792969 2.27742188 -1.62820312 2.14078125 -1 2 C-0.67 1.34 -0.34 0.68 0 0 Z " fill="#0D86CF" transform="translate(77,19)"/>
<path d="M0 0 C5.852795 0.51482919 11.3297637 1.45357192 17 3 C14.37500427 4.71634336 13.17882263 5.01862736 10 4.6875 C5.08 3.56 5.08 3.56 3 3 C3 2.34 3 1.68 3 1 C2.01 0.67 1.02 0.34 0 0 Z " fill="#285B7A" transform="translate(63,192)"/>
<path d="M0 0 C3.26008643 3.16952847 6.22237877 6.39937989 9 10 C8.67 10.66 8.34 11.32 8 12 C5.125 11.0625 5.125 11.0625 2 9 C0.87244628 6.05583195 0.37960328 3.12190974 0 0 Z " fill="#3E9BD2" transform="translate(179,42)"/>
<path d="M0 0 C-0.75925781 0.26554688 -1.51851562 0.53109375 -2.30078125 0.8046875 C-3.79158203 1.33449219 -3.79158203 1.33449219 -5.3125 1.875 C-6.29863281 2.22304687 -7.28476562 2.57109375 -8.30078125 2.9296875 C-11.15594377 3.95305924 -11.15594377 3.95305924 -14 6 C-14.99 6 -15.98 6 -17 6 C-17 5.01 -17 4.02 -17 3 C-15.35 3 -13.7 3 -12 3 C-12 2.34 -12 1.68 -12 1 C-3.96428571 -1.27678571 -3.96428571 -1.27678571 0 0 Z " fill="#B8E4FB" transform="translate(70,10)"/>
<path d="M0 0 C0.66 0.33 1.32 0.66 2 1 C1.67 1.33 1.34 1.66 1 2 C1.99 2.66 2.98 3.32 4 4 C1.69 5.65 -0.62 7.3 -3 9 C-3.99 7.68 -4.98 6.36 -6 5 C-4.02 3.35 -2.04 1.7 0 0 Z " fill="#3F647F" transform="translate(86,77)"/>
<path d="M0 0 C0.66 0.33 1.32 0.66 2 1 C-1.625 6.75 -1.625 6.75 -5 9 C-5 8.34 -5 7.68 -5 7 C-6.65 7.66 -8.3 8.32 -10 9 C-6.83047153 5.73991357 -3.60062011 2.77762123 0 0 Z " fill="#154E70" transform="translate(166,172)"/>
<path d="M0 0 C0.66 0 1.32 0 2 0 C2.66 3.3 3.32 6.6 4 10 C4.66 10 5.32 10 6 10 C6.33 11.98 6.66 13.96 7 16 C6.34 16 5.68 16 5 16 C2.01253155 10.83982722 0.97458672 5.80165739 0 0 Z " fill="#349EDD" transform="translate(7,128)"/>
<path d="M0 0 C0.33 0 0.66 0 1 0 C1.28571429 8.57142857 1.28571429 8.57142857 -1 12 C-1.66 12 -2.32 12 -3 12 C-3.33 12.99 -3.66 13.98 -4 15 C-4.85010911 12.59494448 -5.14566919 11.39944025 -4.2578125 8.96484375 C-3.88398438 8.29582031 -3.51015625 7.62679687 -3.125 6.9375 C-1.8322555 4.58253537 -0.85673059 2.57019176 0 0 Z " fill="#ADAFB2" transform="translate(196,130)"/>
<path d="M0 0 C0.99 0 1.98 0 3 0 C3 0.99 3 1.98 3 3 C1.68 3.33 0.36 3.66 -1 4 C-1 4.66 -1 5.32 -1 6 C-3.64 6.66 -6.28 7.32 -9 8 C-8.34 7.01 -7.68 6.02 -7 5 C-6.34 5 -5.68 5 -5 5 C-5 4.34 -5 3.68 -5 3 C-3.35 2.67 -1.7 2.34 0 2 C0 1.34 0 0.68 0 0 Z " fill="#33ABF3" transform="translate(53,16)"/>
<path d="M0 0 C2.31 0 4.62 0 7 0 C6.835 0.763125 6.67 1.52625 6.5 2.3125 C5.90854604 5.03596236 5.90854604 5.03596236 6 8 C3.69 6.02 1.38 4.04 -1 2 C-0.67 1.34 -0.34 0.68 0 0 Z " fill="#0998ED" transform="translate(33,168)"/>
<path d="M0 0 C0.33 0 0.66 0 1 0 C1 5.28 1 10.56 1 16 C0.34 16 -0.32 16 -1 16 C-1.66 17.32 -2.32 18.64 -3 20 C-3.33 19.34 -3.66 18.68 -4 18 C-3.54625 17.21625 -3.0925 16.4325 -2.625 15.625 C-0.3386041 10.52457838 -0.25963056 5.53281684 0 0 Z " fill="#5EB8EE" transform="translate(129,100)"/>
<path d="M0 0 C0.66 0 1.32 0 2 0 C2.05395478 1.62463842 2.09277195 3.24978541 2.125 4.875 C2.14820312 5.77992187 2.17140625 6.68484375 2.1953125 7.6171875 C2 10 2 10 0 12 C-0.99 11.67 -1.98 11.34 -3 11 C-2.690625 10.29875 -2.38125 9.5975 -2.0625 8.875 C-0.96697322 5.91063343 -0.43577008 3.12301892 0 0 Z " fill="#225675" transform="translate(113,100)"/>
<path d="M0 0 C0.99 0.66 1.98 1.32 3 2 C3 2.66 3 3.32 3 4 C2.34 4 1.68 4 1 4 C0.96261719 4.69867188 0.92523438 5.39734375 0.88671875 6.1171875 C0.82097656 7.02726562 0.75523438 7.93734375 0.6875 8.875 C0.62949219 9.77992187 0.57148437 10.68484375 0.51171875 11.6171875 C0 14 0 14 -3 16 C-3 14.35 -3 12.7 -3 11 C-2.34 11 -1.68 11 -1 11 C-0.67 7.37 -0.34 3.74 0 0 Z " fill="#2690CD" transform="translate(112,96)"/>
<path d="M0 0 C4.8333472 -0.08333357 9.23692563 0.04738513 14 1 C14 1.66 14 2.32 14 3 C14.66 3 15.32 3 16 3 C16 3.66 16 4.32 16 5 C10.72 3.68 5.44 2.36 0 1 C0 0.67 0 0.34 0 0 Z " fill="#D6F3FC" transform="translate(122,5)"/>
<path d="M0 0 C2.9375 1.25 2.9375 1.25 6 3 C6.875 5.1875 6.875 5.1875 7 7 C6.34 7 5.68 7 5 7 C4.67 7.99 4.34 8.98 4 10 C4 8.68 4 7.36 4 6 C3.01 5.67 2.02 5.34 1 5 C0.67 3.35 0.34 1.7 0 0 Z " fill="#32AAF1" transform="translate(84,126)"/>
<path d="M0 0 C4.93133998 1.08656644 8.78316189 2.1009238 13 5 C10.13822943 6.43088528 8.06624227 5.59991697 5 5 C5 4.34 5 3.68 5 3 C3.35 2.67 1.7 2.34 0 2 C0 1.34 0 0.68 0 0 Z " fill="#62BAEC" transform="translate(136,10)"/>
<path d="M0 0 C1.32 0.33 2.64 0.66 4 1 C4 1.66 4 2.32 4 3 C4.66 3 5.32 3 6 3 C8.1875 5.3125 8.1875 5.3125 10 8 C9.67 8.99 9.34 9.98 9 11 C7.49703315 9.35687553 5.99769719 7.71042916 4.5 6.0625 C3.6646875 5.14597656 2.829375 4.22945312 1.96875 3.28515625 C0 1 0 1 0 0 Z " fill="#4288B1" transform="translate(26,165)"/>
<path d="M0 0 C1 2 1 2 0.29296875 4.3125 C-0.25423828 5.6428125 -0.25423828 5.6428125 -0.8125 7 C-1.16957031 7.886875 -1.52664062 8.77375 -1.89453125 9.6875 C-3 12 -3 12 -5 14 C-4.17672405 9.60919494 -3.21774968 5.29794004 -2 1 C-1.34 0.67 -0.68 0.34 0 0 Z " fill="#0F90DD" transform="translate(192,130)"/>
<path d="M0 0 C0.33 0 0.66 0 1 0 C0.88512252 1.58409994 0.75765492 3.16728963 0.625 4.75 C0.52058594 6.07257813 0.52058594 6.07257813 0.4140625 7.421875 C0.00149945 9.99066382 -0.71160957 11.75841015 -2 14 C-2.33 14 -2.66 14 -3 14 C-2.58846263 9.02906176 -2.20399168 4.55491614 0 0 Z " fill="#2B4D66" transform="translate(197,120)"/>
<path d="M0 0 C1.46513058 0.01988865 2.93011492 0.05558907 4.39453125 0.10546875 C5.14412109 0.11900391 5.89371094 0.13253906 6.66601562 0.14648438 C8.51332892 0.18178336 10.36027191 0.23558958 12.20703125 0.29296875 C12.20703125 0.62296875 12.20703125 0.95296875 12.20703125 1.29296875 C2.80203125 2.28296875 2.80203125 2.28296875 -6.79296875 3.29296875 C-3.79296875 0.29296875 -3.79296875 0.29296875 0 0 Z " fill="#7D8589" transform="translate(96.79296875,76.70703125)"/>
<path d="M0 0 C3.53586014 3.17320782 5.58578031 5.16743695 6 10 C5.34 10 4.68 10 4 10 C4 9.34 4 8.68 4 8 C3.34 8 2.68 8 2 8 C0.23537317 4.91190305 0 3.76687864 0 0 Z " fill="#499CCE" transform="translate(72,64)"/>
<path d="M0 0 C0.33 0.66 0.66 1.32 1 2 C-0.07192184 3.3218362 -1.15802695 4.63217927 -2.25 5.9375 C-2.85328125 6.66839844 -3.4565625 7.39929688 -4.078125 8.15234375 C-6.10741134 10.10326334 -7.254407 10.61731779 -10 11 C-6.79239749 7.19364503 -3.59253891 3.45436433 0 0 Z " fill="#E6E5E6" transform="translate(177,167)"/>
<path d="M0 0 C0.66 0 1.32 0 2 0 C2 2.64 2 5.28 2 8 C1.34 8 0.68 8 0 8 C-0.33 9.65 -0.66 11.3 -1 13 C-2.40742022 10.18515955 -1.66652164 8.43063887 -1.0625 5.375 C-0.86785156 4.37210937 -0.67320312 3.36921875 -0.47265625 2.3359375 C-0.31667969 1.56507812 -0.16070312 0.79421875 0 0 Z " fill="#14537D" transform="translate(197,112)"/>
<path d="M0 0 C0.66 0.33 1.32 0.66 2 1 C1.01 2.485 1.01 2.485 0 4 C0.66 4 1.32 4 2 4 C3.6875 6.25 3.6875 6.25 5 9 C4.58203125 11.171875 4.58203125 11.171875 4 13 C-1.05908096 5.9452954 -1.05908096 5.9452954 -0.8125 2 C-0.544375 1.34 -0.27625 0.68 0 0 Z " fill="#2982B8" transform="translate(54,32)"/>
<path d="M0 0 C3.98175544 2.10148204 6.35039045 4.36905358 9 8 C8.67 8.66 8.34 9.32 8 10 C5.5 8.75 5.5 8.75 3 7 C3 5.68 3 4.36 3 3 C2.01 2.67 1.02 2.34 0 2 C0 1.34 0 0.68 0 0 Z " fill="#49A6DB" transform="translate(170,32)"/>
<path d="M0 0 C0.33 0.66 0.66 1.32 1 2 C0.67 2.66 0.34 3.32 0 4 C-0.66 4 -1.32 4 -2 4 C-2.33 5.98 -2.66 7.96 -3 10 C-3.99 10.33 -4.98 10.66 -6 11 C-5.1875 7.5625 -5.1875 7.5625 -4 4 C-3.01 3.67 -2.02 3.34 -1 3 C-0.67 2.01 -0.34 1.02 0 0 Z " fill="#40B0F2" transform="translate(26,39)"/>
<path d="M0 0 C1.32 0 2.64 0 4 0 C3.67 0.99 3.34 1.98 3 3 C2.34 3 1.68 3 1 3 C0.731875 3.598125 0.46375 4.19625 0.1875 4.8125 C-0.98493467 6.97224808 -2.19369282 8.35790256 -4 10 C-3.42655063 7.13275314 -3.1385485 6.1385485 -1 4 C-0.3574765 1.93125966 -0.3574765 1.93125966 0 0 Z " fill="#B7E5F9" transform="translate(28,32)"/>
<path d="M0 0 C-3.96 1.65 -7.92 3.3 -12 5 C-10 1 -10 1 -7.125 -0.3125 C-4 -1 -4 -1 0 0 Z " fill="#1F3F58" transform="translate(72,27)"/>
<path d="M0 0 C2.475 0.495 2.475 0.495 5 1 C5 1.66 5 2.32 5 3 C7.97 3.495 7.97 3.495 11 4 C7.30581799 5.231394 4.7943739 4.64432764 1 4 C0.67 2.68 0.34 1.36 0 0 Z " fill="#C1C7C8" transform="translate(61,192)"/>
<path d="M0 0 C0.33 0 0.66 0 1 0 C0.67 2.31 0.34 4.62 0 7 C-1.65 7.66 -3.3 8.32 -5 9 C-3.50164236 5.88802644 -1.86022073 2.91164984 0 0 Z " fill="#0C5884" transform="translate(189,141)"/>
<path d="M0 0 C1.5 1.375 1.5 1.375 3 3 C3 3.66 3 4.32 3 5 C3.66 5 4.32 5 5 5 C5.33 6.32 5.66 7.64 6 9 C5.01 9 4.02 9 3 9 C0.50022457 5.66696609 0 4.26696398 0 0 Z " fill="#D6F1FB" transform="translate(122,87)"/>
<path d="M0 0 C4.95696581 1.23924145 7.11658466 2.78577758 10 7 C8.35 6.67 6.7 6.34 5 6 C5 5.01 5 4.02 5 3 C3.35 2.67 1.7 2.34 0 2 C0 1.34 0 0.68 0 0 Z " fill="#35A4E3" transform="translate(160,25)"/>
<path d="M0 0 C2.0625 0.4375 2.0625 0.4375 4 1 C2.25 4.875 2.25 4.875 0 6 C-0.38218767 4.34385343 -0.71395102 2.67542976 -1 1 C-0.67 0.67 -0.34 0.34 0 0 Z " fill="#0A95EA" transform="translate(172,160)"/>
<path d="M0 0 C0.66 0.309375 1.32 0.61875 2 0.9375 C5.70476015 2.24960255 9.09263991 2.60264135 13 3 C13 3.33 13 3.66 13 4 C9.97545382 4.65273326 7.09973249 5.1493847 4 5 C1.4375 2.5625 1.4375 2.5625 0 0 Z " fill="#1C6692" transform="translate(91,112)"/>
<path d="M0 0 C0.86625 0.3403125 0.86625 0.3403125 1.75 0.6875 C-2.875 4.6875 -2.875 4.6875 -6.25 4.6875 C-6.25 4.0275 -6.25 3.3675 -6.25 2.6875 C-3.02697842 -0.42041367 -3.02697842 -0.42041367 0 0 Z " fill="#3DAEF2" transform="translate(88.25,70.3125)"/>
<path d="M0 0 C4.58826282 1.93726652 6.80528594 3.48864333 9 8 C5.56247993 6.4722133 2.81046312 4.49818944 0 2 C0 1.34 0 0.68 0 0 Z " fill="#3E7799" transform="translate(44,180)"/>
<path d="M0 0 C2.97 0.495 2.97 0.495 6 1 C5.67 1.66 5.34 2.32 5 3 C1.7 3 -1.6 3 -5 3 C-5 2.67 -5 2.34 -5 2 C-3.35 2 -1.7 2 0 2 C0 1.34 0 0.68 0 0 Z " fill="#1090E0" transform="translate(101,112)"/>
<path d="M0 0 C2.125 0.375 2.125 0.375 4 1 C3.34 1 2.68 1 2 1 C2 1.66 2 2.32 2 3 C0.37373596 4.38232443 -1.2925002 5.71937515 -3 7 C-2.25 2.25 -2.25 2.25 0 0 Z " fill="#1C435E" transform="translate(80,83)"/>
<path d="M0 0 C3.82097239 0.53069061 6.06171403 1.49701566 9 4 C8.67 4.66 8.34 5.32 8 6 C6.66402348 5.19185349 5.331275 4.37836819 4 3.5625 C3.2575 3.11003906 2.515 2.65757813 1.75 2.19140625 C1.1725 1.79824219 0.595 1.40507813 0 1 C0 0.67 0 0.34 0 0 Z " fill="#2E78A9" transform="translate(115,80)"/>
<path d="M0 0 C2.64 0.33 5.28 0.66 8 1 C7.4225 1.268125 6.845 1.53625 6.25 1.8125 C3.9674132 3.01719859 2.0262058 4.40798115 0 6 C0 4.02 0 2.04 0 0 Z " fill="#0D93E5" transform="translate(82,75)"/>
<path d="M0 0 C2.97 0.495 2.97 0.495 6 1 C5.67 2.32 5.34 3.64 5 5 C3.68 4.67 2.36 4.34 1 4 C0.67 2.68 0.34 1.36 0 0 Z " fill="#C6E8F7" transform="translate(77,70)"/>
<path d="M0 0 C0.33 1.32 0.66 2.64 1 4 C0.34 4 -0.32 4 -1 4 C-1.33 6.64 -1.66 9.28 -2 12 C-3.37553268 8.17907588 -2.81309902 4.91765889 -2 1 C-1.34 0.67 -0.68 0.34 0 0 Z " fill="#B4E3FC" transform="translate(8,68)"/>
<path d="M0 0 C2.0245738 1.93254772 3.42105792 3.63158688 5 6 C5 6.99 5 7.98 5 9 C4.34 9 3.68 9 3 9 C0.56839395 5.63316085 0 4.26649636 0 0 Z " fill="#4496C7" transform="translate(59,43)"/>
<path d="M0 0 C1.32 0.66 2.64 1.32 4 2 C-0.75 6 -0.75 6 -3 6 C-3 5.01 -3 4.02 -3 3 C-2.01 3 -1.02 3 0 3 C0 2.01 0 1.02 0 0 Z " fill="#0D92E5" transform="translate(153,178)"/>
<path d="M0 0 C0.6875 1.6875 0.6875 1.6875 1 4 C-0.3125 6.75 -0.3125 6.75 -2 9 C-2.66 9 -3.32 9 -4 9 C-2.94124926 5.59687262 -1.99097846 2.98646769 0 0 Z " fill="#D6D2D1" transform="translate(190,147)"/>
<path d="M0 0 C0.66 0 1.32 0 2 0 C2.33 1.65 2.66 3.3 3 5 C3.99 5.33 4.98 5.66 6 6 C6 6.66 6 7.32 6 8 C5.01 8 4.02 8 3 8 C0 2.25 0 2.25 0 0 Z " fill="#2D90CF" transform="translate(13,144)"/>
<path d="M0 0 C0.99 0.33 1.98 0.66 3 1 C3.33 3.64 3.66 6.28 4 9 C1.47740939 7.02579865 1.0070192 6.03254358 0.3125 2.8125 C0.209375 1.884375 0.10625 0.95625 0 0 Z " fill="#118BD4" transform="translate(189,61)"/>
<path d="M0 0 C1.32 0 2.64 0 4 0 C3.67 1.65 3.34 3.3 3 5 C3.66 5.33 4.32 5.66 5 6 C4.34 6.66 3.68 7.32 3 8 C2.01 5.36 1.02 2.72 0 0 Z " fill="#DAEAEB" transform="translate(186,50)"/>
<path d="M0 0 C0.99 0 1.98 0 3 0 C2.34 1.98 1.68 3.96 1 6 C0.67 5.34 0.34 4.68 0 4 C-0.66 4 -1.32 4 -2 4 C-1.34 2.68 -0.68 1.36 0 0 Z " fill="#37596E" transform="translate(186,148)"/>
<path d="M0 0 C0.99 1.32 1.98 2.64 3 4 C2.67 4.66 2.34 5.32 2 6 C-0.0625 6.625 -0.0625 6.625 -2 7 C-1.42415568 4.61435923 -0.77772405 2.33317216 0 0 Z " fill="#0B99F2" transform="translate(186,55)"/>
<path d="M0 0 C0.66 0.33 1.32 0.66 2 1 C1.67 1.99 1.34 2.98 1 4 C0.34 4 -0.32 4 -1 4 C-1.33 4.99 -1.66 5.98 -2 7 C-2.99 6.67 -3.98 6.34 -5 6 C-3.35 4.02 -1.7 2.04 0 0 Z " fill="#3DB0F5" transform="translate(32,32)"/>
<path d="M0 0 C2.64 0 5.28 0 8 0 C4.55549263 2.29633824 2.06187717 2.54016485 -2 3 C-1.34 2.67 -0.68 2.34 0 2 C0 1.34 0 0.68 0 0 Z " fill="#9BDAFB" transform="translate(72,6)"/>
</svg>
