<?xml version="1.0" encoding="UTF-8"?>
<svg version="1.1" xmlns="http://www.w3.org/2000/svg" width="212" height="238">
<path d="M0 0 C69.96 0 139.92 0 212 0 C212 78.54 212 157.08 212 238 C142.04 238 72.08 238 0 238 C0 159.46 0 80.92 0 0 Z " fill="#A179DB" transform="translate(0,0)"/>
<path d="M0 0 C1.18501592 2.37003185 1.13080586 3.8078229 1.14044189 6.4520874 C1.14615204 7.38855103 1.15186218 8.32501465 1.15774536 9.28985596 C1.15942215 10.8358548 1.15942215 10.8358548 1.16113281 12.41308594 C1.16609772 13.49614014 1.17106262 14.57919434 1.17617798 15.69506836 C1.19082763 19.29151029 1.19760674 22.88790809 1.203125 26.484375 C1.20887472 28.97821047 1.21463247 31.47204592 1.22039795 33.96588135 C1.22957068 38.53173399 1.23586735 43.09757393 1.2388947 47.66343474 C1.24292654 53.7109138 1.25519012 59.75823749 1.28125 65.80566406 C1.30877166 72.29187785 1.32164219 78.77795825 1.32357025 85.26422882 C1.32659872 87.73776611 1.33463373 90.21130249 1.34775543 92.68480682 C1.36480625 96.14647359 1.36293758 99.60764423 1.35644531 103.06933594 C1.3656601 104.09190491 1.37487488 105.11447388 1.3843689 106.16802979 C1.34738845 112.46125872 0.63852178 116.90962376 -3.58813477 121.86010742 C-9.50374482 127.00632525 -16.04547079 130.62396404 -22.9375 134.3125 C-24.77057762 135.30913635 -26.60146175 136.30971728 -28.43214417 137.31074524 C-29.63798693 137.9700594 -30.84439283 138.62834473 -32.05137634 139.28556824 C-36.56815465 141.74835017 -41.02138374 144.29941871 -45.4375 146.9375 C-54.14378833 152.120923 -62.93279845 157.1596684 -71.74975586 162.15209961 C-76.85350161 165.04406321 -81.94809996 167.93424667 -86.93359375 171.02734375 C-99.14056638 178.53986993 -99.14056638 178.53986993 -106.828125 177.875 C-114.1384814 175.85834996 -120.53020681 171.85873813 -127 168 C-128.29354289 167.24484544 -129.58779258 166.49090003 -130.8828125 165.73828125 C-133.61470765 164.14330225 -136.33623396 162.53182793 -139.0546875 160.9140625 C-144.54738439 157.65972559 -150.09305152 154.49863073 -155.63961792 151.33737183 C-157.43871305 150.31180851 -159.23715818 149.28511466 -161.03540039 148.25805664 C-168.35209409 144.07950092 -168.35209409 144.07950092 -175.67431641 139.91064453 C-178.06461088 138.55170951 -180.45324386 137.18993752 -182.84008789 135.82495117 C-185.04908413 134.56174125 -187.26037325 133.30252911 -189.47436523 132.0480957 C-205.37023921 122.93575436 -205.37023921 122.93575436 -206.70800781 118.82373047 C-206.80436523 118.22189941 -206.90072266 117.62006836 -207 117 C-206.21351074 116.56655273 -205.42702148 116.13310547 -204.61669922 115.68652344 C-201.67461549 114.0634544 -198.7338591 112.43802905 -195.79394531 110.81103516 C-194.52590767 110.10990391 -193.25736154 109.40969144 -191.98828125 108.71044922 C-190.15487478 107.70005776 -188.32337654 106.6862785 -186.4921875 105.671875 C-185.39245605 105.0644043 -184.29272461 104.45693359 -183.15966797 103.83105469 C-179.93575398 102.01943211 -179.93575398 102.01943211 -176.78173828 99.77050781 C-174 98 -174 98 -171 98 C-169.7109375 99.6171875 -169.7109375 99.6171875 -168.375 101.875 C-157.4514103 118.97162564 -140.13543094 130.55510758 -120.46484375 135.34375 C-114.76545311 136.33796961 -109.02240515 136.39379859 -103.25 136.4375 C-102.2086792 136.44773193 -101.1673584 136.45796387 -100.09448242 136.46850586 C-92.97686727 136.38779704 -86.75759269 135.19686516 -80 133 C-78.26943359 132.45279297 -78.26943359 132.45279297 -76.50390625 131.89453125 C-60.00314004 125.82452827 -46.36183637 114.91049656 -37 100 C-36.67 99.01 -36.34 98.02 -36 97 C-36.68860107 96.74621582 -37.37720215 96.49243164 -38.08666992 96.23095703 C-41.41230143 94.82579202 -44.49503484 93.11005708 -47.61328125 91.3046875 C-48.22769577 90.95238068 -48.84211029 90.60007385 -49.47514343 90.23709106 C-51.42269509 89.1194353 -53.36761959 87.99729638 -55.3125 86.875 C-56.63850046 86.11298289 -57.96467062 85.351261 -59.29101562 84.58984375 C-62.5293146 82.72997479 -65.76527423 80.8660782 -69 79 C-69.62310059 79.78697266 -70.24620117 80.57394531 -70.88818359 81.38476562 C-77.36970589 89.41136295 -86.48899426 96.03260128 -96.97607422 97.22460938 C-110.26780224 97.98645613 -119.53100601 96.62094891 -130.2734375 88.22265625 C-137.55201414 81.45081596 -142.34053251 71.27576431 -143.23828125 61.37109375 C-143.52006013 50.23341264 -140.30961487 40.52528642 -133 32 C-122.69375777 22.27295155 -113.23342457 19.36467077 -99.15234375 19.66015625 C-89.2857044 20.20541194 -81.77648309 25.15835842 -75 32 C-74.175 32.763125 -73.35 33.52625 -72.5 34.3125 C-71 36 -71 36 -71 38 C-64.88510277 35.55907394 -59.27269359 32.45331977 -53.5625 29.1875 C-52.56549072 28.62071533 -51.56848145 28.05393066 -50.54125977 27.4699707 C-43.14656139 23.25506768 -35.78708052 18.98047928 -28.4375 14.6875 C-27.43444824 14.10170166 -26.43139648 13.51590332 -25.39794922 12.91235352 C-20.01461444 9.76692277 -20.01461444 9.76692277 -14.63867188 6.60888672 C-12.65806279 5.44215893 -10.67341176 4.28266927 -8.6875 3.125 C-7.11548828 2.20074219 -7.11548828 2.20074219 -5.51171875 1.2578125 C-3 0 -3 0 0 0 Z " fill="#380190" transform="translate(210,60)"/>
<path d="M0 0 C8.00995955 6.40569209 16.07242042 13.89829337 21 23 C21 23.66 21 24.32 21 25 C19.75126099 25.7113208 19.75126099 25.7113208 18.47729492 26.43701172 C15.38487116 28.19893432 12.29326594 29.96228887 9.2019043 31.72607422 C7.86456176 32.48883437 6.52699841 33.2512075 5.18920898 34.01318359 C3.26487796 35.10933056 1.34134879 36.20687293 -0.58203125 37.3046875 C-1.17901321 37.6443454 -1.77599518 37.9840033 -2.3910675 38.33395386 C-4.98893265 39.81834818 -7.50877862 41.33918575 -10 43 C-14 43 -14 43 -15.74609375 41.390625 C-16.58333984 40.33101562 -16.58333984 40.33101562 -17.4375 39.25 C-23.16101614 32.07900531 -30.69092171 27.00009361 -39.95556641 25.73242188 C-52.54040915 24.77714676 -62.44185762 26.9660858 -72.51953125 34.76953125 C-79.71732978 41.24188236 -84.23916988 50.40043982 -85.34765625 60.015625 C-85.70433901 72.11182305 -81.81843388 82.88450907 -73.53125 91.7421875 C-64.85177665 99.48406342 -56.23340104 101.91838769 -44.84106445 101.62353516 C-34.10274498 101.00282305 -25.78605171 97.52079544 -18 90 C-16.1202558 87.73726342 -14.57758544 85.49360279 -13 83 C-1.18424614 88.45917742 9.85535269 95.3090465 21 102 C18.21926665 114.56811742 5.06819065 124.54361864 -5.125 131.25 C-23.50823044 142.11682567 -46.23506953 145.56733839 -67.0625 140.5 C-88.56404931 133.57577226 -106.58370147 119.90294666 -117.2421875 99.69921875 C-126.11445562 81.75762781 -128.55271511 58.82847411 -122.4453125 39.609375 C-113.02398473 16.08151862 -98.15524846 0.17346596 -74.8671875 -10.22216797 C-50.44290936 -20.39682149 -21.05468454 -15.21529937 0 0 Z " fill="#FDFDFE" transform="translate(153,55)"/>
<path d="M0 0 C33.66 0 67.32 0 102 0 C102 78.54 102 157.08 102 238 C32.04 238 -37.92 238 -110 238 C-110 216.55 -110 195.1 -110 173 C-108.63700142 175.04449787 -107.33781613 177.13264715 -106.09765625 179.25390625 C-102.37648524 184.41701412 -96.91909879 186.94547417 -91.4375 189.9375 C-89.68562642 190.92040262 -87.93376457 191.9033267 -86.18252563 192.88735962 C-84.35218885 193.91293657 -82.51807232 194.9314643 -80.68310547 195.94873047 C-75.3410476 198.91579661 -70.04397793 201.96126702 -64.7432251 205.00128174 C-62.99645081 206.00203338 -61.24824789 207.00023964 -59.49951172 207.99755859 C-53.62650751 211.34730678 -47.76133436 214.70990827 -41.91015625 218.09765625 C-41.33131683 218.43260101 -40.75247742 218.76754578 -40.15609741 219.11264038 C-37.42348826 220.69420598 -34.69215085 222.27789525 -31.96289062 223.86523438 C-26.70083018 226.91386116 -21.41481299 229.91877204 -16.09375 232.86328125 C-15.06056641 233.43731689 -14.02738281 234.01135254 -12.96289062 234.6027832 C-7.67598602 237.09594034 -3.6437622 237.50841209 2 236 C8.02807161 233.44494368 13.61744545 230.04137977 19.21679688 226.67236328 C22.01029189 224.99381584 24.82137573 223.34971768 27.640625 221.71484375 C31.62468023 219.40362927 35.60175547 217.08107996 39.57421875 214.75 C45.86100577 211.07011971 52.18047305 207.449498 58.50872803 203.84161377 C60.2998838 202.81969797 62.08981112 201.79566254 63.87939453 200.77099609 C69.1647464 197.74653195 74.45727062 194.73814534 79.78515625 191.7890625 C81.08876099 191.05852661 81.08876099 191.05852661 82.41870117 190.31323242 C83.98682997 189.43494937 85.56072517 188.56683176 87.1418457 187.7121582 C92.90459655 184.4613585 97.85463576 180.43609273 100 174 C100.09719493 172.47819741 100.13917886 170.95254041 100.14717102 169.42765808 C100.15432632 168.48981979 100.16148163 167.55198151 100.16885376 166.58572388 C100.17154266 165.55865326 100.17423157 164.53158264 100.17700195 163.47338867 C100.18685875 161.84858833 100.18685875 161.84858833 100.19691467 160.19096375 C100.2166545 156.59996474 100.22831109 153.00900754 100.23828125 149.41796875 C100.24235678 148.19256189 100.2464323 146.96715504 100.25063133 145.70461464 C100.26934238 139.88898452 100.28390837 134.07337086 100.2922433 128.25771636 C100.30104282 122.2181621 100.32034488 116.17885899 100.35668945 110.1394043 C100.39507122 103.65850804 100.41392532 97.17783848 100.41844749 90.69683266 C100.42332321 88.22607495 100.43496503 85.75532102 100.45348549 83.28462791 C100.47779024 79.82774836 100.47692741 76.37173347 100.4699707 72.91479492 C100.48278076 71.893797 100.49559082 70.87279907 100.50878906 69.82086182 C100.46521185 63.88219515 99.92378093 60.54033889 96 56 C89.34203883 50.16990474 81.11094134 46.13329332 73.375 41.9375 C70.96262781 40.61599304 68.55324668 39.28909605 66.14453125 37.9609375 C65.54054001 37.6282637 64.93654877 37.2955899 64.31425476 36.95283508 C58.5101556 33.74716023 52.77933242 30.42114508 47.0625 27.0625 C38.66237576 22.13542907 30.24966149 17.23209908 21.80343628 12.38449097 C20.57485263 11.6786627 19.34706725 10.97144282 18.12014771 10.26272583 C9.29177058 5.15867202 9.29177058 5.15867202 0 1 C0 0.67 0 0.34 0 0 Z " fill="#FCFCFD" transform="translate(110,0)"/>
<path d="M0 0 C1.2890625 1.6171875 1.2890625 1.6171875 2.625 3.875 C13.5485897 20.97162564 30.86456906 32.55510758 50.53515625 37.34375 C56.23454689 38.33796961 61.97759485 38.39379859 67.75 38.4375 C68.7913208 38.44773193 69.8326416 38.45796387 70.90551758 38.46850586 C78.02313273 38.38779704 84.24240731 37.19686516 91 35 C92.15371094 34.63519531 93.30742187 34.27039063 94.49609375 33.89453125 C110.76915014 27.90829404 123.34652427 17.4726571 133.08984375 3.30859375 C133.72019531 2.54675781 134.35054687 1.78492188 135 1 C138.70373316 1 140.30481048 2.09685767 143.515625 3.921875 C144.60230469 4.53546875 145.68898437 5.1490625 146.80859375 5.78125 C147.94425781 6.4309375 149.07992187 7.080625 150.25 7.75 C151.37019531 8.38421875 152.49039063 9.0184375 153.64453125 9.671875 C156.76684339 11.44130809 159.88441365 13.21875723 163 15 C164.16692383 15.66612305 164.16692383 15.66612305 165.35742188 16.34570312 C166.905436 17.22961451 168.45282425 18.11462197 170 19 C166.23786832 27.33600961 157.59039675 31.15309699 149.90774536 35.2897644 C146.85758421 36.93266494 143.82263196 38.60333215 140.78515625 40.26953125 C139.88883736 40.75970482 139.88883736 40.75970482 138.97441101 41.25978088 C134.45263176 43.73662324 129.98914072 46.2951974 125.5625 48.9375 C116.85600688 54.12059631 108.06721182 59.15966258 99.25024414 64.15209961 C94.14649839 67.04406321 89.05190004 69.93424667 84.06640625 73.02734375 C71.85943362 80.53986993 71.85943362 80.53986993 64.171875 79.875 C56.8615186 77.85834996 50.46979319 73.85873813 44 70 C42.70645711 69.24484544 41.41220742 68.49090003 40.1171875 67.73828125 C37.38529235 66.14330225 34.66376604 64.53182793 31.9453125 62.9140625 C26.45261561 59.65972559 20.90694848 56.49863073 15.36038208 53.33737183 C13.56128695 52.31180851 11.76284182 51.28511466 9.96459961 50.25805664 C2.64790591 46.07950092 2.64790591 46.07950092 -4.67431641 41.91064453 C-7.06461088 40.55170951 -9.45324386 39.18993752 -11.84008789 37.82495117 C-14.04908413 36.56174125 -16.26037325 35.30252911 -18.47436523 34.0480957 C-34.37023921 24.93575436 -34.37023921 24.93575436 -35.70800781 20.82373047 C-35.85254395 19.92098389 -35.85254395 19.92098389 -36 19 C-35.21351074 18.56655273 -34.42702148 18.13310547 -33.61669922 17.68652344 C-30.67461549 16.0634544 -27.7338591 14.43802905 -24.79394531 12.81103516 C-23.52590767 12.10990391 -22.25736154 11.40969144 -20.98828125 10.71044922 C-19.15487478 9.70005776 -17.32337654 8.6862785 -15.4921875 7.671875 C-14.39245605 7.0644043 -13.29272461 6.45693359 -12.15966797 5.83105469 C-8.93575398 4.01943211 -8.93575398 4.01943211 -5.78173828 1.77050781 C-3 0 -3 0 0 0 Z " fill="#270168" transform="translate(39,158)"/>
<path d="M0 0 C33.33 0 66.66 0 101 0 C98.539676 1.640216 96.0958891 3.10480379 93.51953125 4.546875 C92.61525391 5.05476562 91.71097656 5.56265625 90.77929688 6.0859375 C89.80025391 6.63507812 88.82121094 7.18421875 87.8125 7.75 C78.48640165 12.99850456 69.2260324 18.34964651 59.99438477 23.76220703 C52.17971878 28.33475959 44.30354411 32.79008501 36.40722656 37.21972656 C28.91802988 41.43873601 21.53695473 45.82219052 14.20410156 50.30712891 C13.04346191 51.01361572 13.04346191 51.01361572 11.859375 51.734375 C10.84568848 52.35650879 10.84568848 52.35650879 9.81152344 52.99121094 C8 54 8 54 5 55 C4.28752268 56.6476038 3.62599617 58.31763529 3 60 C2.01 61.32 1.02 62.64 0 64 C0 42.88 0 21.76 0 0 Z " fill="#FEFEFE" transform="translate(0,0)"/>
<path d="M0 0 C2.89934319 2.13635814 5.46836252 4.44401985 8 7 C8.825 7.763125 9.65 8.52625 10.5 9.3125 C12 11 12 11 12 13 C12.66 13.33 13.32 13.66 14 14 C11.15479517 15.62583133 8.30958548 17.25165414 5.46435547 18.87744141 C2.96327357 20.30661916 0.46231036 21.73600433 -2.03857422 23.16552734 C-7.97009249 26.55580671 -13.90209696 29.94521212 -19.83764648 33.32843018 C-22.33491066 34.75192838 -24.83171523 36.17623168 -27.32849121 37.60058594 C-29.07955339 38.59908521 -30.83127199 39.59643302 -32.58300781 40.59375 C-38.471907 43.95385584 -44.31129957 47.36696315 -50.06982422 50.94677734 C-52 52 -52 52 -54 52 C-54.33 52.66 -54.66 53.32 -55 54 C-55.64836042 52.25093469 -56.29358784 50.50070781 -56.9375 48.75 C-57.29714844 47.77546875 -57.65679687 46.8009375 -58.02734375 45.796875 C-61.6056165 35.50754453 -60.71507264 25.78377572 -56 16 C-51.11284299 6.59222275 -43.10875851 -0.63041383 -33 -4 C-21.63757736 -6.7708364 -10.09982553 -6.01180091 0 0 Z " fill="#A079DB" transform="translate(127,85)"/>
<path d="M0 0 C3.52499353 0.91262056 6.17921498 2.24224742 9.32861328 4.06567383 C11.03210938 5.04890625 11.03210938 5.04890625 12.77001953 6.05200195 C13.35315918 6.39513428 13.93629883 6.7382666 14.53710938 7.09179688 C16.31644085 8.13733068 18.10479195 9.16588601 19.89501953 10.19262695 C29.43191396 15.74225323 29.43191396 15.74225323 33.19580078 19.82739258 C27.14705282 29.29392902 19.08224658 35.09884037 8.19580078 37.82739258 C-4.15896006 39.71417151 -14.50486277 37.95663756 -24.80419922 30.82739258 C-28.47477437 27.82363858 -31.17898686 24.76521112 -33.80419922 20.82739258 C-33.80419922 19.83739258 -33.80419922 18.84739258 -33.80419922 17.82739258 C-32.97170654 17.35317871 -32.13921387 16.87896484 -31.28149414 16.39038086 C-28.18907038 14.62845825 -25.09746516 12.86510371 -22.00610352 11.10131836 C-20.66876098 10.33855821 -19.33119763 9.57618507 -17.9934082 8.81420898 C-16.06907718 7.71806202 -14.14554801 6.62051965 -12.22216797 5.52270508 C-11.32669502 5.01321823 -11.32669502 5.01321823 -10.41313171 4.49343872 C-2.3011877 -0.14164546 -2.3011877 -0.14164546 0 0 Z " fill="#270168" transform="translate(106.80419921875,119.172607421875)"/>
<path d="M0 0 C1.98 0 3.96 0 6 0 C6 3.63 6 7.26 6 11 C9.63 11 13.26 11 17 11 C17 7.37 17 3.74 17 0 C18.98 0 20.96 0 23 0 C23 3.63 23 7.26 23 11 C26.63 11 30.26 11 34 11 C34 12.98 34 14.96 34 17 C30.37 17 26.74 17 23 17 C23 20.63 23 24.26 23 28 C26.63 28 30.26 28 34 28 C34 29.98 34 31.96 34 34 C30.37 34 26.74 34 23 34 C23 37.63 23 41.26 23 45 C21.02 45 19.04 45 17 45 C17 41.37 17 37.74 17 34 C13.37 34 9.74 34 6 34 C6 37.63 6 41.26 6 45 C4.02 45 2.04 45 0 45 C0 41.37 0 37.74 0 34 C-3.63 34 -7.26 34 -11 34 C-11 32.02 -11 30.04 -11 28 C-7.04 28 -3.08 28 1 28 C1 24.37 1 20.74 1 17 C-2.96 17 -6.92 17 -11 17 C-11 15.02 -11 13.04 -11 11 C-7.37 11 -3.74 11 0 11 C0 7.37 0 3.74 0 0 Z " fill="#F3F2F7" transform="translate(161,96)"/>
<path d="M0 0 C3.63 0 7.26 0 11 0 C11 3.63 11 7.26 11 11 C7.37 11 3.74 11 0 11 C0 7.37 0 3.74 0 0 Z " fill="#380791" transform="translate(167,113)"/>
</svg>
