<?xml version="1.0" encoding="UTF-8"?>
<svg version="1.1" xmlns="http://www.w3.org/2000/svg" width="225" height="225">
<path d="M0 0 C74.25 0 148.5 0 225 0 C225 74.25 225 148.5 225 225 C150.75 225 76.5 225 0 225 C0 150.75 0 76.5 0 0 Z " fill="#BB0000" transform="translate(0,0)"/>
<path d="M0 0 C0.33 0.99 0.66 1.98 1 3 C14.86 3 28.72 3 43 3 C43.33 2.34 43.66 1.68 44 1 C43.40478799 9.03076586 41.98559614 16.80443746 40.375 24.6875 C40.24572113 25.32785187 40.11644226 25.96820374 39.98324585 26.62796021 C37.64977513 38.18577957 35.10003782 49.69167119 32.44873047 61.18041992 C30.73955216 68.60300871 29.16255097 76.03933434 27.68969727 83.51245117 C26.77007336 88.16265561 25.79648733 92.80057435 24.8125 97.4375 C24.214375 100.263125 23.61625 103.08875 23 106 C32.9 106 42.8 106 53 106 C53.33 103.03 53.66 100.06 54 97 C54.3687874 94.96956329 54.77088426 92.94472511 55.21508789 90.92944336 C55.45859985 89.81388062 55.70211182 88.69831787 55.95300293 87.5489502 C56.20698853 86.40744507 56.46097412 85.26593994 56.72265625 84.08984375 C57.07499329 82.48163757 57.07499329 82.48163757 57.43444824 80.84094238 C58.30540249 76.87201383 59.1844172 72.90485753 60.0625 68.9375 C62.021875 60.048125 63.98125 51.15875 66 42 C89.43 42 112.86 42 137 42 C130.24827098 49.87701719 130.24827098 49.87701719 126.77392578 53.35546875 C125.61209274 54.52203003 125.61209274 54.52203003 124.42678833 55.7121582 C123.19845779 56.93745239 123.19845779 56.93745239 121.9453125 58.1875 C121.08493378 59.04883545 120.22455505 59.9101709 119.33810425 60.79760742 C117.52562245 62.61076687 115.71188859 64.42267549 113.89697266 66.23339844 C111.13720482 68.98781883 108.38280318 71.74752373 105.62890625 74.5078125 C103.85969546 76.27636231 102.0901744 78.04460179 100.3203125 79.8125 C99.50547394 80.62936279 98.69063538 81.44622559 97.85110474 82.2878418 C93.57671298 86.54497877 89.23004162 90.6499931 84.64816284 94.57545471 C82.67646139 96.27964191 80.82337164 98.07614145 79 99.9375 C78.4225 100.52402344 77.845 101.11054688 77.25 101.71484375 C76.8375 102.13894531 76.425 102.56304687 76 103 C77.59623144 107.39383706 79.78024333 111.28995807 82.125 115.3125 C82.49753906 115.95767578 82.87007813 116.60285156 83.25390625 117.26757812 C84.16632213 118.84675945 85.08275509 120.42361864 86 122 C86.64324219 121.7834375 87.28648438 121.566875 87.94921875 121.34375 C98.74611202 118.01688988 108.39175414 118.62331706 119.375 120.5 C137.98106294 123.64180922 152.04729298 120.38581211 170 115 C171.65 106.42 173.3 97.84 175 89 C172.256875 89.94875 169.51375 90.8975 166.6875 91.875 C156.16088005 95.391684 146.80398477 97.14816046 135.6875 97.25 C134.82656738 97.25950684 133.96563477 97.26901367 133.07861328 97.27880859 C128.32232814 97.25377063 124.46805445 96.83678584 120 95 C123.88749954 90.35187209 127.91881872 85.93211473 132.2109375 81.65625 C132.78276764 81.08346313 133.35459778 80.51067627 133.9437561 79.92053223 C135.14421938 78.71939378 136.34592495 77.51949574 137.54882812 76.32080078 C139.36703437 74.50794221 141.17984947 72.68981672 142.9921875 70.87109375 C148.2459299 65.61415048 153.49500284 60.41508143 159.14892578 55.58447266 C175.13914919 42.09484873 175.13914919 42.09484873 182 23 C182.33 21.35 182.66 19.7 183 18 C146.37 17.67 109.74 17.34 72 17 C72.69221683 10.77004856 73.4027357 5.85663575 75 0 C75.495 1.485 75.495 1.485 76 3 C119.56 3 163.12 3 208 3 C208.33 2.01 208.66 1.02 209 0 C209.61848958 1.72526042 210.23697917 3.45052083 210.85546875 5.17578125 C211.9287939 7.23993641 211.9287939 7.23993641 214.53395367 8.25453663 C217 10 217 10 217.61523914 12.58681011 C217.61063018 13.63120156 217.60602121 14.67559301 217.60127258 15.75163269 C217.60816007 16.94807246 217.61504755 18.14451223 217.62214375 19.37720776 C217.6041532 20.6967209 217.58616266 22.01623404 217.56762695 23.37573242 C217.56609547 24.79784483 217.56676242 26.21996104 217.56945324 27.64207172 C217.57058321 31.45445532 217.54158221 35.26605603 217.50640106 39.0782547 C217.47794913 42.65396116 217.47658684 46.22947616 217.47302246 49.80529785 C217.44677424 60.26613582 217.37696851 70.72682776 217.3125 81.1875 C217.209375 104.555625 217.10625 127.92375 217 152 C142.75 152 68.5 152 -8 152 C-8.12375 128.6525 -8.2475 105.305 -8.375 81.25 C-8.42962402 73.87301758 -8.48424805 66.49603516 -8.54052734 58.89550781 C-8.56762695 49.89990234 -8.56762695 49.89990234 -8.57266235 45.69110107 C-8.57826156 42.74600204 -8.60078017 39.80154929 -8.63345337 36.85662842 C-8.67456256 33.10169857 -8.68695667 29.34771051 -8.67843366 25.5925765 C-8.68105814 23.56213783 -8.71326596 21.53180369 -8.74657249 19.50163651 C-8.72393983 16.22155697 -8.67043638 13.2108618 -8 10 C-5.04336548 7.36004639 -5.04336548 7.36004639 -2 6 C-0.57220726 2.89064982 -0.57220726 2.89064982 0 0 Z " fill="#960000" transform="translate(8,73)"/>
<path d="M0 0 C32.67 0 65.34 0 99 0 C96 18 96 18 93 30 C70.23 30 47.46 30 24 30 C23.67 32.97 23.34 35.94 23 39 C21.68 44.94 20.36 50.88 19 57 C55.96 57 92.92 57 131 57 C126.47035412 77.38340647 126.47035412 77.38340647 120 83 C118.54622375 84.48390286 117.09996234 85.97519456 115.66015625 87.47265625 C114.13021502 89.005215 112.59763203 90.53514079 111.0625 92.0625 C110.30259766 92.82626953 109.54269531 93.59003906 108.75976562 94.37695312 C105.35577631 97.77512862 101.94017181 101.09997812 98.27734375 104.21875 C92.02188325 109.60464171 86.31191735 115.58352481 80.5 121.4375 C79.28408886 122.6584369 78.06794484 123.87914192 76.8515625 125.09960938 C73.89835034 128.06374013 70.94830602 131.03098958 68 134 C72.97161682 136.18849157 77.0158885 136.34690842 82.375 136.3125 C83.2611499 136.30831055 84.1472998 136.30412109 85.06030273 136.29980469 C96.19236842 136.11121062 106.48069757 133.95553598 116.828125 129.76953125 C119 129 119 129 122 129 C121.8383873 132.36154411 121.44630329 135.66467991 121 139 C120.88591797 139.97187256 120.88591797 139.97187256 120.76953125 140.96337891 C120.12091135 145.98665805 119.17291656 150.399727 117 155 C112.96908683 158.03339341 108.88470774 158.97051165 104 160 C102.93910156 160.309375 101.87820312 160.61875 100.78515625 160.9375 C88.26482275 164.40419308 76.49100194 163.23002385 63.92529297 161.08105469 C52.99490526 159.25450891 43.5701354 159.44131714 33 163 C31.31899223 160.25852669 29.65781165 157.5055518 28 154.75 C27.52304688 153.97269531 27.04609375 153.19539062 26.5546875 152.39453125 C26.10351562 151.64042969 25.65234375 150.88632813 25.1875 150.109375 C24.55908203 149.07248535 24.55908203 149.07248535 23.91796875 148.01464844 C23 146 23 146 23 142 C24.9393957 139.73835715 26.85079595 137.7299555 29 135.6875 C29.55300781 135.14416016 30.10601562 134.60082031 30.67578125 134.04101562 C33.58193216 131.21169399 36.56252663 128.50043724 39.64453125 125.86425781 C44.40739946 121.70724762 48.85810121 117.26799976 53.3125 112.78515625 C54.07111328 112.02553589 54.82972656 111.26591553 55.61132812 110.48327637 C58.41031561 107.67910661 61.20490842 104.87055306 64 102.0625 C70.27 95.771875 76.54 89.48125 83 83 C59.9 82.67 36.8 82.34 13 82 C12.67 84.64 12.34 87.28 12 90 C11.62301285 92.02170683 11.21893975 94.03859485 10.78491211 96.04882812 C10.54473862 97.16938599 10.30456512 98.28994385 10.05711365 99.44445801 C9.79978958 100.62809937 9.54246552 101.81174072 9.27734375 103.03125 C9.01240616 104.26290894 8.74746857 105.49456787 8.47450256 106.7635498 C7.77499233 110.01250508 7.07253084 113.26079266 6.36859131 116.50878906 C5.64881357 119.83344276 4.9329414 123.15893714 4.21679688 126.484375 C2.81538404 132.9905 1.40753665 139.49518505 0 146 C-9.9 146 -19.8 146 -30 146 C-29.3538029 139.53802904 -28.74371382 134.30695435 -27.1875 128.1875 C-25.42961083 121.05775062 -23.99797027 113.90418527 -22.66181946 106.68492126 C-21.3406043 99.63007841 -19.87712265 92.61257504 -18.359375 85.59765625 C-17.82496393 83.11565605 -17.29062523 80.63364027 -16.75634766 78.15161133 C-16.46967478 76.82182621 -16.18299246 75.49204313 -15.89630127 74.16226196 C-14.46372206 67.51371515 -13.04088569 60.86307756 -11.61673737 54.21272087 C-10.8556564 50.65899686 -10.09406581 47.10538214 -9.33251953 43.55175781 C-8.23979736 38.4523877 -8.23979736 38.4523877 -7.125 33.25 C-4.77375 22.2775 -2.4225 11.305 0 0 Z " fill="#FDFCFC" transform="translate(61,33)"/>
<path d="M0 0 C0.33 0.99 0.66 1.98 1 3 C44.56 3 88.12 3 133 3 C133.33 2.01 133.66 1.02 134 0 C134.61848958 1.72526042 135.23697917 3.45052083 135.85546875 5.17578125 C136.909049 7.25204328 136.909049 7.25204328 139.53605652 8.01899719 C142 10 142 10 142.45673561 11.86719322 C142.61851825 14.43038024 142.61757134 16.95228288 142.56762695 19.52026367 C142.56872215 20.98395638 142.56872215 20.98395638 142.56983948 22.47721863 C142.5663513 25.70803083 142.52743085 28.93740789 142.48828125 32.16796875 C142.47895753 34.40569776 142.47183934 36.64343696 142.46684265 38.88117981 C142.44773832 44.7751374 142.39860714 50.66848034 142.34332275 56.56219482 C142.29220476 62.57458175 142.2693445 68.58706785 142.24414062 74.59960938 C142.19049238 86.40000986 142.10513745 98.19995385 142 110 C138.11664917 108.58902801 136.23919006 107.53556325 134 104 C133.67 104.33 133.34 104.66 133 105 C130.40640678 105.08851529 127.83960309 105.11525945 125.24609375 105.09765625 C124.47064713 105.0962413 123.6952005 105.09482635 122.89625549 105.09336853 C120.40996506 105.08775345 117.9237634 105.07519846 115.4375 105.0625 C113.75586067 105.05748694 112.07421994 105.0529237 110.39257812 105.04882812 C106.26168434 105.03777913 102.13085724 105.02050445 98 105 C98.14235457 103.27054347 98.28904382 101.54144346 98.4375 99.8125 C98.51871094 98.84957031 98.59992188 97.88664062 98.68359375 96.89453125 C98.97666151 94.21350398 99.42703754 91.6337014 100 89 C98.82824219 89.40992188 97.65648437 89.81984375 96.44921875 90.2421875 C84.31177978 94.43474429 73.58630779 97.13183237 60.6875 97.25 C59.82656738 97.25950684 58.96563477 97.26901367 58.07861328 97.27880859 C53.32232814 97.25377063 49.46805445 96.83678584 45 95 C48.88749954 90.35187209 52.91881872 85.93211473 57.2109375 81.65625 C57.78276764 81.08346313 58.35459778 80.51067627 58.9437561 79.92053223 C60.14421938 78.71939378 61.34592495 77.51949574 62.54882812 76.32080078 C64.36703437 74.50794221 66.17984947 72.68981672 67.9921875 70.87109375 C73.2459299 65.61415048 78.49500284 60.41508143 84.14892578 55.58447266 C100.13914919 42.09484873 100.13914919 42.09484873 107 23 C107.33 21.35 107.66 19.7 108 18 C71.37 17.67 34.74 17.34 -3 17 C-2.30778317 10.77004856 -1.5972643 5.85663575 0 0 Z " fill="#A40000" transform="translate(83,73)"/>
<path d="M0 0 C23.43 0 46.86 0 71 0 C64.24827098 7.87701719 64.24827098 7.87701719 60.77392578 11.35546875 C59.61209274 12.52203003 59.61209274 12.52203003 58.42678833 13.7121582 C57.19845779 14.93745239 57.19845779 14.93745239 55.9453125 16.1875 C55.08493378 17.04883545 54.22455505 17.9101709 53.33810425 18.79760742 C51.52562245 20.61076687 49.71188859 22.42267549 47.89697266 24.23339844 C45.13720482 26.98781883 42.38280318 29.74752373 39.62890625 32.5078125 C37.85969546 34.27636231 36.0901744 36.04460179 34.3203125 37.8125 C33.50547394 38.62936279 32.69063538 39.44622559 31.85110474 40.2878418 C27.57525081 44.54643503 23.22727173 48.65155153 18.64129639 52.57545471 C16.07724271 54.80089712 13.77459545 57.25013737 11.4453125 59.71484375 C10 61 10 61 8 61 C8 61.66 8 62.32 8 63 C1.4 63 -5.2 63 -12 63 C-13.15791407 59.52625778 -12.79714678 58.11802615 -12.02783203 54.58227539 C-11.79073517 53.47425064 -11.55363831 52.36622589 -11.30935669 51.22462463 C-10.91259232 49.42927528 -10.91259232 49.42927528 -10.5078125 47.59765625 C-10.24241669 46.36840927 -9.97702087 45.13916229 -9.70358276 43.87266541 C-8.9960915 40.60305674 -8.2817674 37.33509161 -7.56420898 34.06768799 C-6.83756016 30.75020692 -6.12051461 27.43065267 -5.40234375 24.11132812 C-4.34939072 19.25567249 -3.29409317 14.40055623 -2.23095703 9.54711914 C-2.01698273 8.57021622 -1.80300842 7.59331329 -1.58255005 6.58680725 C-1.08645285 4.38389296 -0.54766584 2.19066336 0 0 Z " fill="#A00404" transform="translate(74,115)"/>
<path d="M0 0 C3.70713777 1.23571259 4.9315495 2.73821267 7 6 C7 6.66 7 7.32 7 8 C1.72 8 -3.56 8 -9 8 C-5.8 0 -5.8 0 0 0 Z " fill="#F8F3F3" transform="translate(201,217)"/>
<path d="M0 0 C3.70713777 1.23571259 4.9315495 2.73821267 7 6 C7 6.66 7 7.32 7 8 C1.72 8 -3.56 8 -9 8 C-5.8 0 -5.8 0 0 0 Z " fill="#F8F3F3" transform="translate(176,217)"/>
<path d="M0 0 C3.70713777 1.23571259 4.9315495 2.73821267 7 6 C7 6.66 7 7.32 7 8 C1.72 8 -3.56 8 -9 8 C-5.8 0 -5.8 0 0 0 Z " fill="#F8F3F3" transform="translate(151,217)"/>
<path d="M0 0 C3.70713777 1.23571259 4.9315495 2.73821267 7 6 C7 6.66 7 7.32 7 8 C1.72 8 -3.56 8 -9 8 C-5.8 0 -5.8 0 0 0 Z " fill="#F8F3F3" transform="translate(126,217)"/>
<path d="M0 0 C3.70713777 1.23571259 4.9315495 2.73821267 7 6 C7 6.66 7 7.32 7 8 C1.72 8 -3.56 8 -9 8 C-5.8 0 -5.8 0 0 0 Z " fill="#F8F3F3" transform="translate(101,217)"/>
<path d="M0 0 C3.70713777 1.23571259 4.9315495 2.73821267 7 6 C7 6.66 7 7.32 7 8 C1.72 8 -3.56 8 -9 8 C-5.8 0 -5.8 0 0 0 Z " fill="#F8F3F3" transform="translate(76,217)"/>
<path d="M0 0 C3.70713777 1.23571259 4.9315495 2.73821267 7 6 C7 6.66 7 7.32 7 8 C1.72 8 -3.56 8 -9 8 C-5.8 0 -5.8 0 0 0 Z " fill="#F8F3F3" transform="translate(51,217)"/>
<path d="M0 0 C3.70713777 1.23571259 4.9315495 2.73821267 7 6 C7 6.66 7 7.32 7 8 C1.72 8 -3.56 8 -9 8 C-5.8 0 -5.8 0 0 0 Z " fill="#F8F3F3" transform="translate(26,217)"/>
<path d="M0 0 C0 5.28 0 10.56 0 16 C-6.25 13.5 -6.25 13.5 -8 10 C-8 7 -8 7 -7 4 C-2.89473684 0 -2.89473684 0 0 0 Z " fill="#F8F3F3" transform="translate(225,192)"/>
<path d="M0 0 C6.25 2.5 6.25 2.5 8 6 C8 9 8 9 7 12 C2.89473684 16 2.89473684 16 0 16 C0 10.72 0 5.44 0 0 Z " fill="#F8F3F3" transform="translate(0,192)"/>
<path d="M0 0 C0 5.28 0 10.56 0 16 C-6.25 13.5 -6.25 13.5 -8 10 C-8 7 -8 7 -7 4 C-2.89473684 0 -2.89473684 0 0 0 Z " fill="#F8F3F3" transform="translate(225,167)"/>
<path d="M0 0 C6.25 2.5 6.25 2.5 8 6 C8 9 8 9 7 12 C2.89473684 16 2.89473684 16 0 16 C0 10.72 0 5.44 0 0 Z " fill="#F8F3F3" transform="translate(0,167)"/>
<path d="M0 0 C0 5.28 0 10.56 0 16 C-6.25 13.5 -6.25 13.5 -8 10 C-8 7 -8 7 -7 4 C-2.89473684 0 -2.89473684 0 0 0 Z " fill="#F9F3F3" transform="translate(225,142)"/>
<path d="M0 0 C6.25 2.5 6.25 2.5 8 6 C8 9 8 9 7 12 C2.89473684 16 2.89473684 16 0 16 C0 10.72 0 5.44 0 0 Z " fill="#F9F3F3" transform="translate(0,142)"/>
<path d="M0 0 C0 5.28 0 10.56 0 16 C-6.25 13.5 -6.25 13.5 -8 10 C-8 7 -8 7 -7 4 C-2.89473684 0 -2.89473684 0 0 0 Z " fill="#F9F3F3" transform="translate(225,117)"/>
<path d="M0 0 C6.25 2.5 6.25 2.5 8 6 C8 9 8 9 7 12 C2.89473684 16 2.89473684 16 0 16 C0 10.72 0 5.44 0 0 Z " fill="#F9F3F3" transform="translate(0,117)"/>
<path d="M0 0 C0 5.28 0 10.56 0 16 C-6.25 13.5 -6.25 13.5 -8 10 C-8 7 -8 7 -7 4 C-2.89473684 0 -2.89473684 0 0 0 Z " fill="#FAF3F3" transform="translate(225,92)"/>
<path d="M0 0 C6.25 2.5 6.25 2.5 8 6 C8 9 8 9 7 12 C2.89473684 16 2.89473684 16 0 16 C0 10.72 0 5.44 0 0 Z " fill="#FAF3F3" transform="translate(0,92)"/>
<path d="M0 0 C0 5.28 0 10.56 0 16 C-6.25 13.5 -6.25 13.5 -8 10 C-8 7 -8 7 -7 4 C-2.89473684 0 -2.89473684 0 0 0 Z " fill="#FAF3F3" transform="translate(225,67)"/>
<path d="M0 0 C6.25 2.5 6.25 2.5 8 6 C8 9 8 9 7 12 C2.89473684 16 2.89473684 16 0 16 C0 10.72 0 5.44 0 0 Z " fill="#FAF3F3" transform="translate(0,67)"/>
<path d="M0 0 C0 5.28 0 10.56 0 16 C-6.25 13.5 -6.25 13.5 -8 10 C-8 7 -8 7 -7 4 C-2.89473684 0 -2.89473684 0 0 0 Z " fill="#FBF3F3" transform="translate(225,42)"/>
<path d="M0 0 C6.25 2.5 6.25 2.5 8 6 C8 9 8 9 7 12 C2.89473684 16 2.89473684 16 0 16 C0 10.72 0 5.44 0 0 Z " fill="#FBF3F3" transform="translate(0,42)"/>
<path d="M0 0 C0 5.28 0 10.56 0 16 C-6.25 13.5 -6.25 13.5 -8 10 C-8 7 -8 7 -7 4 C-2.89473684 0 -2.89473684 0 0 0 Z " fill="#FBF3F3" transform="translate(225,17)"/>
<path d="M0 0 C6.25 2.5 6.25 2.5 8 6 C8 9 8 9 7 12 C2.89473684 16 2.89473684 16 0 16 C0 10.72 0 5.44 0 0 Z " fill="#FBF3F3" transform="translate(0,17)"/>
<path d="M0 0 C5.28 0 10.56 0 16 0 C13.5 6.25 13.5 6.25 10 8 C7 8 7 8 4 7 C0 2.89473684 0 2.89473684 0 0 Z " fill="#FBF3F3" transform="translate(192,0)"/>
<path d="M0 0 C5.28 0 10.56 0 16 0 C13.5 6.25 13.5 6.25 10 8 C7 8 7 8 4 7 C0 2.89473684 0 2.89473684 0 0 Z " fill="#FBF3F3" transform="translate(167,0)"/>
<path d="M0 0 C5.28 0 10.56 0 16 0 C13.5 6.25 13.5 6.25 10 8 C7 8 7 8 4 7 C0 2.89473684 0 2.89473684 0 0 Z " fill="#FBF3F3" transform="translate(142,0)"/>
<path d="M0 0 C5.28 0 10.56 0 16 0 C13.5 6.25 13.5 6.25 10 8 C7 8 7 8 4 7 C0 2.89473684 0 2.89473684 0 0 Z " fill="#FBF3F3" transform="translate(117,0)"/>
<path d="M0 0 C5.28 0 10.56 0 16 0 C13.5 6.25 13.5 6.25 10 8 C7 8 7 8 4 7 C0 2.89473684 0 2.89473684 0 0 Z " fill="#FBF3F3" transform="translate(92,0)"/>
<path d="M0 0 C5.28 0 10.56 0 16 0 C13.5 6.25 13.5 6.25 10 8 C7 8 7 8 4 7 C0 2.89473684 0 2.89473684 0 0 Z " fill="#FBF3F3" transform="translate(67,0)"/>
<path d="M0 0 C5.28 0 10.56 0 16 0 C13.5 6.25 13.5 6.25 10 8 C7 8 7 8 4 7 C0 2.89473684 0 2.89473684 0 0 Z " fill="#FBF3F3" transform="translate(42,0)"/>
<path d="M0 0 C5.28 0 10.56 0 16 0 C13.5 6.25 13.5 6.25 10 8 C7 8 7 8 4 7 C0 2.89473684 0 2.89473684 0 0 Z " fill="#FBF3F3" transform="translate(17,0)"/>
<path d="M0 0 C0 2.64 0 5.28 0 8 C-2.64 8 -5.28 8 -8 8 C-6.65580512 3.85539913 -4.87800266 0 0 0 Z " fill="#F8F3F3" transform="translate(225,217)"/>
<path d="M0 0 C3.88862987 1.26117725 5.89375599 2.45264167 8 6 C8 6.66 8 7.32 8 8 C5.36 8 2.72 8 0 8 C0 5.36 0 2.72 0 0 Z " fill="#F8F3F3" transform="translate(0,217)"/>
<path d="M0 0 C2.64 0 5.28 0 8 0 C8 2.64 8 5.28 8 8 C4.11137013 6.73882275 2.10624401 5.54735833 0 2 C0 1.34 0 0.68 0 0 Z " fill="#FBF3F3" transform="translate(217,0)"/>
<path d="M0 0 C2.64 0 5.28 0 8 0 C6.73882275 3.88862987 5.54735833 5.89375599 2 8 C1.34 8 0.68 8 0 8 C0 5.36 0 2.72 0 0 Z " fill="#FBF3F3" transform="translate(0,0)"/>
</svg>
