<?xml version="1.0" encoding="UTF-8"?>
<svg version="1.1" xmlns="http://www.w3.org/2000/svg" width="225" height="225">
<path d="M0 0 C74.25 0 148.5 0 225 0 C225 74.25 225 148.5 225 225 C150.75 225 76.5 225 0 225 C0 150.75 0 76.5 0 0 Z " fill="#FEFEFE" transform="translate(0,0)"/>
<path d="M0 0 C2.05748835 -0.00223424 4.11447735 -0.02063389 6.171875 -0.03930664 C8.14414062 -0.04220703 8.14414062 -0.04220703 10.15625 -0.04516602 C11.3333252 -0.0492749 12.51040039 -0.05338379 13.72314453 -0.05761719 C16.8984375 0.18530273 16.8984375 0.18530273 21.8984375 2.18530273 C21.8984375 6.47530273 21.8984375 10.76530273 21.8984375 15.18530273 C20.92084473 15.23541504 19.94325195 15.28552734 18.93603516 15.3371582 C15.26406948 15.52735196 11.5926835 15.72726822 7.92138672 15.92993164 C6.34079675 16.01586475 4.76006637 16.09925835 3.17919922 16.17993164 C-5.42393993 16.62069968 -13.68932924 17.21661067 -22.1015625 19.18530273 C-23.2978125 19.38510742 -24.4940625 19.58491211 -25.7265625 19.79077148 C-45.87089264 23.26473582 -66.90278464 32.03189673 -79.20703125 49.10717773 C-84.41957239 57.68730942 -88.70510389 67.02605086 -89.1015625 77.18530273 C-89.153125 78.35963867 -89.2046875 79.53397461 -89.2578125 80.74389648 C-89.77353413 98.06195612 -85.87513592 112.54192582 -74.4765625 125.99780273 C-66.57368933 134.23645807 -53.71006702 143.21533039 -42.05078125 144.52905273 C-38.49724631 144.11486588 -37.36041559 143.17440107 -34.8515625 140.68530273 C-31.26822917 137.18530273 -31.26822917 137.18530273 -29.1015625 137.18530273 C-29.1015625 136.52530273 -29.1015625 135.86530273 -29.1015625 135.18530273 C-27.98950999 134.03849858 -26.8699525 132.89841004 -25.72265625 131.78686523 C-19.38952602 125.53003778 -14.33010798 119.02326086 -10.1015625 111.18530273 C-9.1734375 109.54561523 -9.1734375 109.54561523 -8.2265625 107.87280273 C-6.53936284 102.34253718 -6.86862089 96.92256838 -7.1015625 91.18530273 C-12.66459253 87.55723967 -17.59009652 86.24263081 -24.1015625 85.18530273 C-24.822229 85.01869141 -25.54289551 84.85208008 -26.28540039 84.68041992 C-29.73861734 84.07330037 -33.08470878 83.96664925 -36.58984375 83.86889648 C-37.6446418 83.83772484 -37.6446418 83.83772484 -38.7207489 83.80592346 C-40.95176067 83.74090159 -43.18288319 83.68176497 -45.4140625 83.62280273 C-46.93295384 83.57957238 -48.45183427 83.53595669 -49.97070312 83.49194336 C-53.6808737 83.3852694 -57.39116671 83.28387052 -61.1015625 83.18530273 C-60.1015625 81.18530273 -60.1015625 81.18530273 -58.0637207 80.34741211 C-57.18546631 80.07735352 -56.30721191 79.80729492 -55.40234375 79.52905273 C-54.44005859 79.22870117 -53.47777344 78.92834961 -52.48632812 78.61889648 C-51.47248047 78.31081055 -50.45863281 78.00272461 -49.4140625 77.68530273 C-47.43091753 77.07095193 -45.44784268 76.45637476 -43.46484375 75.84155273 C-42.52785645 75.55417236 -41.59086914 75.26679199 -40.62548828 74.97070312 C-38.63314689 74.35072225 -36.65210377 73.69443701 -34.67578125 73.02514648 C-32.31311319 72.25432155 -30.04244574 71.69902235 -27.6015625 71.24780273 C-24.73567101 70.71786718 -21.93512658 70.14107958 -19.1171875 69.39233398 C-11.63910992 67.48703431 -4.55259684 66.84222254 3.1484375 66.74780273 C4.05883789 66.72572754 4.96923828 66.70365234 5.90722656 66.6809082 C15.24471395 66.70967538 23.25361437 69.5404796 29.8984375 76.18530273 C33.34438804 81.47305443 32.42533102 88.15604015 31.8984375 94.18530273 C31.03605773 97.53154281 29.66701161 100.22895843 27.8984375 103.18530273 C27.40085938 104.06831055 26.90328125 104.95131836 26.390625 105.86108398 C22.92782692 111.68341658 19.05869841 116.39856105 14.109375 121.01733398 C11.77039095 123.22768136 11.77039095 123.22768136 9.5078125 126.14233398 C6.93878459 129.27880001 4.02331632 131.62488986 0.7734375 134.06030273 C0.21156738 134.48448486 -0.35030273 134.90866699 -0.92919922 135.34570312 C-5.5212834 138.79849032 -10.17632447 142.16573446 -14.859375 145.49389648 C-17.33506836 147.28014146 -17.33506836 147.28014146 -20.1015625 150.18530273 C-7.2315625 150.51530273 5.6384375 150.84530273 18.8984375 151.18530273 C18.8984375 156.79530273 18.8984375 162.40530273 18.8984375 168.18530273 C7.96308248 169.04970344 -2.87315824 169.34238413 -13.84082031 169.31567383 C-16.52153929 169.31021108 -19.20209792 169.31570821 -21.8828125 169.32202148 C-23.58854204 169.32136234 -25.29427147 169.32008459 -27 169.31811523 C-28.20129044 169.32115158 -28.20129044 169.32115158 -29.42684937 169.32424927 C-34.9865469 169.30031834 -34.9865469 169.30031834 -36.1015625 168.18530273 C-48.73498328 166.806853 -57.43350894 168.71395722 -68.30566406 175.13354492 C-75.60235328 179.40680989 -83.05273756 182.65689696 -91.1015625 185.19311523 C-97.1928357 187.20767694 -103.03926843 189.86381484 -108.92578125 192.40405273 C-114.89819238 194.94619772 -120.92493888 197.26088378 -127.0390625 199.43530273 C-127.7611792 199.6936792 -128.4832959 199.95205566 -129.22729492 200.21826172 C-132.82526355 201.48009459 -136.33584834 202.56628123 -140.1015625 203.18530273 C-136.37393109 199.981715 -132.13045746 198.34921754 -127.6640625 196.43530273 C-109.29267024 188.34638044 -91.1247077 179.15105243 -74.20263672 168.33422852 C-69.27404123 165.18530273 -69.27404123 165.18530273 -67.1015625 165.18530273 C-67.1015625 164.52530273 -67.1015625 163.86530273 -67.1015625 163.18530273 C-67.96201172 163.09055664 -67.96201172 163.09055664 -68.83984375 162.99389648 C-75.46832404 162.03834925 -81.53170218 160.11974787 -87.7890625 157.81030273 C-88.58417236 157.51824951 -89.37928223 157.22619629 -90.19848633 156.92529297 C-95.34731346 154.98065551 -100.2162959 152.72005821 -105.1015625 150.18530273 C-105.1015625 149.52530273 -105.1015625 148.86530273 -105.1015625 148.18530273 C-106.12830078 148.1040918 -106.12830078 148.1040918 -107.17578125 148.02124023 C-111.2483105 146.85766045 -113.76635593 144.57361196 -116.9140625 141.81030273 C-117.84436279 140.99565552 -117.84436279 140.99565552 -118.79345703 140.16455078 C-126.69795677 133.05711739 -131.86173796 125.12692011 -136.4765625 115.62280273 C-136.81091309 114.93871338 -137.14526367 114.25462402 -137.48974609 113.54980469 C-143.82883938 99.79877312 -144.72701578 80.55067245 -140.265625 66.10327148 C-131.14393031 43.23781532 -116.7376753 29.47841704 -95.1015625 18.18530273 C-94.11917603 17.66178223 -94.11917603 17.66178223 -93.11694336 17.12768555 C-88.53904811 14.74679997 -83.98305113 13.01808406 -79.0390625 11.56030273 C-78.03649414 11.25479492 -78.03649414 11.25479492 -77.01367188 10.94311523 C-75.67969586 10.53864437 -74.34399289 10.13982363 -73.0065918 9.74682617 C-71.2678819 9.23432678 -69.53586229 8.69926784 -67.8046875 8.16186523 C-62.88587923 6.86471116 -57.92840798 6.02523821 -52.9140625 5.18530273 C-51.88539062 5.01087646 -50.85671875 4.8364502 -49.796875 4.65673828 C-47.78098495 4.31516756 -45.76487951 3.97486494 -43.74853516 3.63598633 C-41.64869454 3.27845951 -39.55219225 2.90133455 -37.45703125 2.51733398 C-25.09747305 0.26860452 -12.53299077 -0.00152395 0 0 Z " fill="#5E8FCB" transform="translate(167.1015625,11.814697265625)"/>
<path d="M0 0 C0.91040039 -0.0220752 1.82080078 -0.04415039 2.75878906 -0.06689453 C12.09627645 -0.03812735 20.10517687 2.79267687 26.75 9.4375 C30.19595054 14.72525169 29.27689352 21.40823742 28.75 27.4375 C27.88762023 30.78374007 26.51857411 33.4811557 24.75 36.4375 C24.25242187 37.32050781 23.75484375 38.20351562 23.2421875 39.11328125 C19.77938942 44.93561384 15.91026091 49.65075832 10.9609375 54.26953125 C8.62195345 56.47987863 8.62195345 56.47987863 6.359375 59.39453125 C3.79034709 62.53099727 0.87487882 64.87708713 -2.375 67.3125 C-3.21780518 67.94877319 -3.21780518 67.94877319 -4.07763672 68.59790039 C-8.6697209 72.05068758 -13.32476197 75.41793172 -18.0078125 78.74609375 C-19.9384856 80.20250743 -21.60127374 81.67562586 -23.25 83.4375 C-20.94 83.4375 -18.63 83.4375 -16.25 83.4375 C-16.25 83.7675 -16.25 84.0975 -16.25 84.4375 C-22.40234375 84.53515625 -22.40234375 84.53515625 -24.25 84.4375 C-24.58 84.1075 -24.91 83.7775 -25.25 83.4375 C-26.73135898 83.07221561 -28.22512181 82.75681587 -29.72265625 82.46484375 C-31.07133789 82.19897461 -31.07133789 82.19897461 -32.44726562 81.92773438 C-33.39279297 81.74533203 -34.33832031 81.56292969 -35.3125 81.375 C-36.26189453 81.18873047 -37.21128906 81.00246094 -38.18945312 80.81054688 C-40.54232047 80.34943217 -42.89583076 79.89191308 -45.25 79.4375 C-43.765 78.4475 -43.765 78.4475 -42.25 77.4375 C-40.17113859 75.6179817 -38.13057587 73.76055806 -36.08984375 71.8984375 C-34.25 70.4375 -34.25 70.4375 -32.25 70.4375 C-32.25 69.7775 -32.25 69.1175 -32.25 68.4375 C-31.13794749 67.29069585 -30.01839 66.15060731 -28.87109375 65.0390625 C-22.53796352 58.78223504 -17.47854548 52.27545813 -13.25 44.4375 C-12.63125 43.344375 -12.0125 42.25125 -11.375 41.125 C-9.68780034 35.59473445 -10.01705839 30.17476565 -10.25 24.4375 C-15.81303003 20.80943693 -20.73853402 19.49482808 -27.25 18.4375 C-27.9706665 18.27088867 -28.69133301 18.10427734 -29.43383789 17.93261719 C-32.88705484 17.32549764 -36.23314628 17.21884652 -39.73828125 17.12109375 C-40.7930793 17.0899221 -40.7930793 17.0899221 -41.8691864 17.05812073 C-44.10019817 16.99309885 -46.33132069 16.93396224 -48.5625 16.875 C-50.08139134 16.83176964 -51.60027177 16.78815395 -53.11914062 16.74414062 C-56.8293112 16.63746666 -60.53960421 16.53606779 -64.25 16.4375 C-63.25 14.4375 -63.25 14.4375 -61.2121582 13.59960938 C-60.33390381 13.32955078 -59.45564941 13.05949219 -58.55078125 12.78125 C-57.10735352 12.33072266 -57.10735352 12.33072266 -55.63476562 11.87109375 C-54.11399414 11.40896484 -54.11399414 11.40896484 -52.5625 10.9375 C-50.57935503 10.32314919 -48.59628018 9.70857202 -46.61328125 9.09375 C-45.67629395 8.80636963 -44.73930664 8.51898926 -43.77392578 8.22290039 C-41.78158439 7.60291952 -39.80054127 6.94663427 -37.82421875 6.27734375 C-35.46155069 5.50651881 -33.19088324 4.95121961 -30.75 4.5 C-27.88410851 3.97006444 -25.08356408 3.39327684 -22.265625 2.64453125 C-14.78754742 0.73923158 -7.70103434 0.0944198 0 0 Z " fill="#8FB0DB" transform="translate(170.25,78.5625)"/>
<path d="M0 0 C11.88 1.485 11.88 1.485 24 3 C24 3.33 24 3.66 24 4 C23.3915625 3.979375 22.783125 3.95875 22.15625 3.9375 C12.49827596 4.16474645 5.2768617 8.50902439 -3 13 C-9.88795001 16.62913495 -16.56962895 19.66647162 -24 22.0078125 C-30.0912732 24.02237421 -35.93770593 26.6785121 -41.82421875 29.21875 C-47.79662988 31.76089498 -53.82337638 34.07558105 -59.9375 36.25 C-61.02067505 36.6375647 -61.02067505 36.6375647 -62.12573242 37.03295898 C-65.72370105 38.29479185 -69.23428584 39.38097849 -73 40 C-69.27236859 36.79641226 -65.02889496 35.16391481 -60.5625 33.25 C-42.19110774 25.16107771 -24.0231452 15.96574969 -7.10107422 5.14892578 C-2.17247873 2 -2.17247873 2 0 2 C0 1.34 0 0.68 0 0 Z " fill="#93B3DC" transform="translate(100,175)"/>
<path d="M0 0 C-1 3 -1 3 -3.5625 4.39453125 C-4.696875 4.86246094 -5.83125 5.33039063 -7 5.8125 C-7.61286865 6.06604248 -8.2257373 6.31958496 -8.85717773 6.58081055 C-28.56858912 14.6029826 -28.56858912 14.6029826 -37 16 C-34.29673094 13.849803 -31.71642363 12.28721737 -28.55078125 10.9140625 C-27.70193359 10.54023438 -26.85308594 10.16640625 -25.97851562 9.78125 C-25.09873047 9.3996875 -24.21894531 9.018125 -23.3125 8.625 C-17.29818128 6.01203756 -11.56910338 3.30834674 -5.99682617 -0.16650391 C-3.56775891 -1.18042194 -2.43081073 -0.88436441 0 0 Z " fill="#98B7DE" transform="translate(64,199)"/>
<path d="M0 0 C-2.36253009 2.36253009 -4.31227271 3.037848 -7.4375 4.1875 C-8.40558594 4.55230469 -9.37367187 4.91710937 -10.37109375 5.29296875 C-13 6 -13 6 -16 5 C-13.90163996 3.96728358 -11.79609109 2.94916283 -9.6875 1.9375 C-8.51574219 1.36902344 -7.34398437 0.80054688 -6.13671875 0.21484375 C-3 -1 -3 -1 0 0 Z " fill="#C7D7EC" transform="translate(43,209)"/>
<path d="M0 0 C2 1 2 1 3 3 C1.56656 3.53190541 0.12804633 4.05015258 -1.3125 4.5625 C-2.51326172 4.99755859 -2.51326172 4.99755859 -3.73828125 5.44140625 C-6 6 -6 6 -9 5 C-7.54735962 4.1361871 -6.0876837 3.28419546 -4.625 2.4375 C-3.40683594 1.72400391 -3.40683594 1.72400391 -2.1640625 0.99609375 C-1.44992188 0.66738281 -0.73578125 0.33867187 0 0 Z " fill="#A1BDE0" transform="translate(51,203)"/>
</svg>
