<?xml version="1.0" encoding="UTF-8"?>
<svg version="1.1" xmlns="http://www.w3.org/2000/svg" width="318" height="159">
<path d="M0 0 C104.94 0 209.88 0 318 0 C318 52.47 318 104.94 318 159 C213.06 159 108.12 159 0 159 C0 106.53 0 54.06 0 0 Z " fill="#FDFDFF" transform="translate(0,0)"/>
<path d="M0 0 C4.84119915 2.03940279 7.10116315 6.4813814 9.23828125 11.03515625 C11.94263484 18.01100168 11.95771453 25.16808913 9.375 32.1875 C7.01114709 37.49155158 4.05480669 42.29157107 -1.109375 45.1796875 C-5.20276594 46.34132547 -9.0820534 46.21181264 -13.3125 46.125 C-14.14845703 46.11597656 -14.98441406 46.10695312 -15.84570312 46.09765625 C-17.89725969 46.07420989 -19.94866777 46.03834266 -22 46 C-22.24234375 47.05316406 -22.4846875 48.10632812 -22.734375 49.19140625 C-24.6073485 57.27610911 -26.56042042 65.32633602 -28.73535156 73.33618164 C-30.37890938 79.38945433 -32.00673295 85.44696806 -33.63671875 91.50390625 C-34.12271545 93.30945984 -34.12271545 93.30945984 -34.61853027 95.15148926 C-35.4124252 98.10097355 -36.20624651 101.05047764 -37 104 C-36.00663635 103.99555878 -35.01327271 103.99111755 -33.98980713 103.98654175 C-24.63159958 103.94601108 -15.27340982 103.916023 -5.91513443 103.89637566 C-1.10386753 103.88593524 3.70732855 103.87177128 8.51855469 103.84912109 C13.16102037 103.82740199 17.80341791 103.81543332 22.44593048 103.81024551 C24.21776655 103.80654809 25.98959886 103.79932802 27.76140594 103.78853989 C30.24173566 103.77403736 32.72178319 103.77202154 35.20214844 103.77294922 C35.93582642 103.76575867 36.66950439 103.75856812 37.42541504 103.75115967 C41.11569151 103.76611004 43.86504394 103.95689615 47 106 C47.48553553 113.16164912 47.48553553 113.16164912 45.49163818 116.60441589 C42.63751573 119.34851029 41.00023678 119.58498166 37.10810852 119.62210083 C36.32767685 119.60412445 35.54724518 119.58614807 34.74316406 119.56762695 C33.91352646 119.56835709 33.08388885 119.56908722 32.22911072 119.56983948 C29.49061385 119.56635979 26.75382418 119.52748205 24.015625 119.48828125 C22.11563038 119.47895445 20.21562373 119.47183771 18.31561279 119.46684265 C13.31759373 119.44776239 8.32030251 119.39865261 3.3225708 119.34332275 C-1.77834222 119.29215251 -6.87937299 119.26933336 -11.98046875 119.24414062 C-21.98729876 119.19053498 -31.99358883 119.1052096 -42 119 C-42.19743805 119.74810944 -42.3948761 120.49621887 -42.59829712 121.26699829 C-42.86186005 122.25219452 -43.12542297 123.23739075 -43.39697266 124.25244141 C-43.65628571 125.22742584 -43.91559875 126.20241028 -44.18276978 127.2069397 C-45.24923414 130.85181136 -46.65994027 133.98368279 -48.375 137.375 C-48.93960938 138.51710937 -49.50421875 139.65921875 -50.0859375 140.8359375 C-52.74015503 145.22352158 -55.74972354 148.16648236 -60 151 C-65.17366992 151.63381141 -70.20423307 151.87877956 -74.9375 149.5625 C-81.45372107 141.46658897 -84.0975731 133.3743211 -83 123 C-81.11353524 116.25564414 -78.36246098 110.54456506 -72.6875 106.25 C-65.64156931 102.97282293 -57.59506134 103.8972097 -50 104 C-49.85304687 103.29359375 -49.70609375 102.5871875 -49.5546875 101.859375 C-47.86819379 94.1441509 -45.73352002 86.65530464 -43.41479492 79.11083984 C-41.02071807 71.24405872 -38.93954363 63.30782189 -36.91674805 55.33837891 C-36.67996338 54.40944824 -36.44317871 53.48051758 -36.19921875 52.5234375 C-35.99127686 51.69763184 -35.78333496 50.87182617 -35.5690918 50.02099609 C-35 48 -35 48 -34 46 C-34.98395752 46.01571045 -34.98395752 46.01571045 -35.98779297 46.03173828 C-38.95015658 46.07322503 -41.91245916 46.09930262 -44.875 46.125 C-45.90753906 46.14175781 -46.94007812 46.15851562 -48.00390625 46.17578125 C-49.48310547 46.18544922 -49.48310547 46.18544922 -50.9921875 46.1953125 C-52.35899658 46.21102295 -52.35899658 46.21102295 -53.75341797 46.22705078 C-56 46 -56 46 -58 44 C-58.6907908 36.86182843 -58.6907908 36.86182843 -56.32373047 33.90869141 C-53.4713163 31.56574394 -52.01123962 31.46832425 -48.359375 31.390625 C-47.28945313 31.35839844 -46.21953125 31.32617188 -45.1171875 31.29296875 C-44.00601563 31.27878906 -42.89484375 31.26460937 -41.75 31.25 C-40.62335937 31.22035156 -39.49671875 31.19070312 -38.3359375 31.16015625 C-35.55721979 31.08951088 -32.77933852 31.03678723 -30 31 C-29.67128906 29.80117188 -29.67128906 29.80117188 -29.3359375 28.578125 C-23.10614746 7.00177901 -23.10614746 7.00177901 -14 1 C-9.78765628 -1.10617186 -4.57574923 -0.51507125 0 0 Z " fill="#0404FF" transform="translate(86,5)"/>
<path d="M0 0 C3.4375 1.5 3.4375 1.5 6 3 C6.556875 2.484375 7.11375 1.96875 7.6875 1.4375 C10 0 10 0 12.625 0.1875 C15 1 15 1 17 3 C17.70349524 9.43440773 15.76224564 15.02148382 13.875 21.125 C13.23503256 23.25241039 12.59572352 25.38001893 11.95703125 27.5078125 C11.6317041 28.58192383 11.30637695 29.65603516 10.97119141 30.76269531 C9.45171546 35.82761513 8.00597751 40.9129983 6.5625 46 C6.06387028 47.75001943 5.56517921 49.50002139 5.06640625 51.25 C4.71449219 52.4875 4.36257813 53.725 4 55 C4.62044189 54.98428955 5.24088379 54.9685791 5.88012695 54.95239258 C8.69082528 54.89003786 11.50137812 54.85100852 14.3125 54.8125 C15.28896484 54.78736328 16.26542969 54.76222656 17.27148438 54.73632812 C18.20927734 54.72666016 19.14707031 54.71699219 20.11328125 54.70703125 C20.97735596 54.6913208 21.84143066 54.67561035 22.73168945 54.65942383 C25.48217353 55.07239609 26.35342102 55.79668564 28 58 C28.21484375 60.15625 28.21484375 60.15625 27.9375 62.5 C27.86402344 63.2734375 27.79054688 64.046875 27.71484375 64.84375 C26.75642518 67.7347175 25.59615055 68.44362793 23 70 C20.34277344 70.34057617 20.34277344 70.34057617 17.359375 70.29296875 C16.28945313 70.28330078 15.21953125 70.27363281 14.1171875 70.26367188 C12.45042969 70.2259668 12.45042969 70.2259668 10.75 70.1875 C9.06003906 70.16719727 9.06003906 70.16719727 7.3359375 70.14648438 C4.55680736 70.11115645 1.77864637 70.0618252 -1 70 C-1.17849487 70.97622314 -1.17849487 70.97622314 -1.3605957 71.97216797 C-3.42890841 82.85516937 -6.68034301 92.31121748 -15 100 C-19.69542132 103.13028088 -24.50935614 102.67722796 -30 102 C-35.91904063 98.77143239 -38.97816888 93.367904 -41 87 C-42.19808022 77.67531907 -40.99668569 69.53783833 -35.8125 61.6875 C-28.855408 55.03961209 -22.96947847 54.61591612 -13.63964844 54.79541016 C-11.7593221 54.85002717 -9.87954729 54.92310943 -8 55 C-8 53.68 -8 52.36 -8 51 C-9.051875 51.226875 -10.10375 51.45375 -11.1875 51.6875 C-15.48043713 52.03938009 -16.74327158 51.71394035 -20 49 C-25.12061918 42.05058825 -24.75463739 33.28386044 -24 25 C-21.58687274 15.61792765 -17.45147056 7.78848558 -10.0625 1.5 C-6.33322215 -0.32658507 -4.11062939 -0.51382867 0 0 Z " fill="#0404FF" transform="translate(287,54)"/>
<path d="M0 0 C3.94726562 -0.42905061 6.61242079 -0.08466413 10 2 C10.99 1.34 11.98 0.68 13 0 C16.70206644 -0.48287823 18.46830639 -0.32148916 21.6875 1.625 C27.14343535 7.22839306 27.52110293 12.68102137 27.4375 20.125 C27.42992676 21.05916748 27.42235352 21.99333496 27.41455078 22.95581055 C27.16027042 33.65136223 24.75865867 43.2209774 17 51 C12.82213883 53.78524078 6.86896461 53.89771535 2 53 C-0.8125 50.9765625 -0.8125 50.9765625 -3 49 C-3.1959375 49.92554688 -3.391875 50.85109375 -3.59375 51.8046875 C-5.66145192 61.21159515 -8.23481317 70.41818633 -11.0625 79.625 C-11.4028125 80.73858887 -11.743125 81.85217773 -12.09375 82.99951172 C-17.2397798 99.54139449 -17.2397798 99.54139449 -21 102 C-23.5625 102.375 -23.5625 102.375 -26 102 C-28.939467 97.5907995 -27.83865635 94.07342 -27 89 C-26.25875472 85.5833016 -25.34028036 82.23456026 -24.375 78.875 C-24.11138672 77.93342041 -23.84777344 76.99184082 -23.57617188 76.02172852 C-21.02542156 66.95894849 -18.37888135 57.9229608 -15.72265625 48.890625 C-14.34686975 44.20480832 -13.00547832 39.51020027 -11.67871094 34.81030273 C-9.46274428 26.96902151 -7.1740391 19.15469933 -4.75 11.375 C-4.5037085 10.57473389 -4.25741699 9.77446777 -4.00366211 8.94995117 C-2.95091956 5.61499367 -1.95217312 2.92825969 0 0 Z " fill="#0404FF" transform="translate(157,54)"/>
<path d="M0 0 C6.02904398 2.20291992 8.59110739 5.58475552 11.75 11 C15.30899938 20.01482809 13.16940014 31.17366255 10 40 C7.58181439 45.07735878 4.75753342 48.8700438 0 52 C-5.84676955 53.94892318 -11.93952262 53.99344445 -17.5 51.3125 C-22.34489416 46.8309729 -24.65935756 41.48605505 -25.30078125 34.921875 C-25.33950661 24.44021186 -23.70043231 15.3442717 -17 7 C-11.61155563 1.65810807 -7.83203818 -0.80366063 0 0 Z " fill="#0303FF" transform="translate(87,54)"/>
<path d="M0 0 C5.4393432 2.56572792 7.474523 5.76197363 10 11 C13.36702914 20.96550236 11.4208398 32.88614713 7.484375 42.265625 C4.31403141 48.10573162 1.41934485 51.00053193 -5 53 C-10.94930959 53.76867186 -15.74827143 53.0892521 -21 50 C-25.89345434 43.81879452 -26.23032848 38.92382324 -26.3125 31.375 C-26.34150391 30.51003906 -26.37050781 29.64507812 -26.40039062 28.75390625 C-26.49491172 19.05458798 -22.61116161 11.04025142 -16 4 C-11.23517631 -0.0661356 -6.06305208 -1.07320447 0 0 Z " fill="#0404FF" transform="translate(131,54)"/>
<path d="M0 0 C0.94875 0.04125 1.8975 0.0825 2.875 0.125 C3.535 1.445 4.195 2.765 4.875 4.125 C5.720625 3.465 6.56625 2.805 7.4375 2.125 C11.41087593 -0.18678236 13.35509183 -0.53244119 17.875 0.125 C20.84830958 1.90898575 22.44473514 3.38740309 24.1875 6.375 C26.11797701 14.09690804 24.14142728 20.72337939 21.875 28.125 C21.44574219 29.57326172 21.44574219 29.57326172 21.0078125 31.05078125 C20.30648463 33.41191842 19.59540658 35.76962813 18.875 38.125 C20.86067708 38.05989583 22.84635417 37.99479167 24.83203125 37.9296875 C26.875 38.125 26.875 38.125 29.875 40.125 C30.30859375 42.1484375 30.30859375 42.1484375 30.3125 44.5 C30.33183594 45.27085938 30.35117187 46.04171875 30.37109375 46.8359375 C29.66032245 50.1155594 28.62065127 51.19784729 25.875 53.125 C23.02849716 53.49807106 20.64214443 53.64145498 17.8125 53.5625 C17.09255859 53.56958984 16.37261719 53.57667969 15.63085938 53.58398438 C10.421155 53.52110029 10.421155 53.52110029 7.94140625 51.72265625 C5.02509811 47.35353527 5.30587519 43.24113246 5.875 38.125 C6.81065509 34.15896628 7.96417556 30.25819925 9.18408203 26.37109375 C9.41337402 25.62214844 9.64266602 24.87320313 9.87890625 24.1015625 C10.09361572 23.43205566 10.3083252 22.76254883 10.52954102 22.07275391 C10.93199679 19.80364283 10.57336006 18.3004386 9.875 16.125 C7.44315489 16.2497666 7.44315489 16.2497666 4.875 17.125 C3.36914553 19.17670428 3.36914553 19.17670428 2.4375 21.9375 C2.02628906 23.00742188 1.61507812 24.07734375 1.19140625 25.1796875 C0.15932157 28.15778779 -0.73206649 31.16490248 -1.59765625 34.1953125 C-1.85168213 35.07985107 -2.10570801 35.96438965 -2.36743164 36.87573242 C-2.86468018 38.63925809 -3.34494367 40.40767946 -3.80639648 42.1809082 C-5.24816404 47.38314656 -6.666758 50.72523999 -11.125 54.125 C-15.31547619 53.93452381 -15.31547619 53.93452381 -17.125 52.125 C-17.43594377 45.65229292 -16.71809879 40.11460506 -15.0625 33.875 C-14.84424561 33.0288916 -14.62599121 32.1827832 -14.40112305 31.31103516 C-12.63198111 24.63712925 -10.59592041 18.05742741 -8.4375 11.5 C-8.14029053 10.5934668 -7.84308105 9.68693359 -7.53686523 8.75292969 C-7.25270752 7.91407227 -6.9685498 7.07521484 -6.67578125 6.2109375 C-6.42481689 5.4689209 -6.17385254 4.7269043 -5.9152832 3.96240234 C-4.49676637 0.66436166 -3.60018639 0.14400746 0 0 Z " fill="#0303FF" transform="translate(231.125,53.875)"/>
<path d="M0 0 C0.79395172 -0.00540298 1.58790344 -0.01080597 2.40591431 -0.01637268 C5.02750043 -0.02886893 7.64799024 -0.01236363 10.26953125 0.00561523 C12.09269264 0.00546027 13.91585437 0.00397166 15.73901367 0.00120544 C19.55890476 -0.00017895 23.37842056 0.01238613 27.19824219 0.03515625 C32.09446637 0.06354104 36.99006695 0.06080412 41.88633728 0.04806614 C45.65072963 0.04111091 49.41497786 0.04889645 53.17935181 0.06132317 C54.98466438 0.06583919 56.78999242 0.06617315 58.5953064 0.06225777 C61.11854766 0.05934706 63.6409298 0.07584524 66.1640625 0.09765625 C67.28320541 0.09090378 67.28320541 0.09090378 68.42495728 0.08401489 C71.56159662 0.12906089 73.77217728 0.33274284 76.54956055 1.84727478 C78.08203125 3.50170898 78.08203125 3.50170898 78.51953125 6.37670898 C78.03777539 9.8178223 77.14264115 11.72781104 75.08203125 14.50170898 C71.95173926 16.06685498 68.61275989 15.65788513 65.17578125 15.6628418 C64.35940186 15.6678067 63.54302246 15.67277161 62.7019043 15.67788696 C59.99527146 15.69251964 57.28869718 15.69931141 54.58203125 15.70483398 C52.70638018 15.71058328 50.83072914 15.71634103 48.95507812 15.72210693 C45.02083054 15.73261921 41.08660341 15.73846081 37.15234375 15.74194336 C32.10124149 15.74743723 27.05040757 15.77148325 21.99938965 15.79991531 C18.12531736 15.81849832 14.25131037 15.8237449 10.37719727 15.82527924 C8.51438933 15.8283147 6.65158277 15.83637309 4.78881836 15.84946442 C2.18842857 15.86643925 -0.4112967 15.86466626 -3.01171875 15.8581543 C-3.78684814 15.86736908 -4.56197754 15.87658386 -5.3605957 15.88607788 C-7.50195312 15.86920166 -7.50195312 15.86920166 -10.91796875 15.50170898 C-13.19101057 12.09214626 -12.98041388 10.50988947 -12.59765625 6.53686523 C-10.50185978 0.26152062 -5.87136711 -0.0760817 0 0 Z " fill="#0808FF" transform="translate(166.91796875,108.498291015625)"/>
<path d="M0 0 C2.625 0.25 2.625 0.25 4.29467773 1.49267578 C6.49098303 4.39394308 5.63830934 6.84501296 5.17626953 10.30371094 C4.15549882 15.7592738 2.62487269 21.05365143 1.0625 26.375 C0.73314453 27.52226563 0.40378906 28.66953125 0.06445312 29.8515625 C-0.74106037 32.65334858 -1.55432967 35.45262355 -2.375 38.25 C-1.27027344 38.22679687 -0.16554687 38.20359375 0.97265625 38.1796875 C4.625 38.25 4.625 38.25 7.0625 39.375 C8.625 41.25 8.625 41.25 9.0625 44.125 C8.57773683 47.58759409 7.75266196 49.49191969 5.625 52.25 C2.17165458 53.40111514 -0.67393888 53.48995786 -4.3125 53.5625 C-5.53839844 53.59988281 -6.76429688 53.63726562 -8.02734375 53.67578125 C-11.375 53.25 -11.375 53.25 -13.75390625 51.66796875 C-16.64139715 47.36108474 -16.57038776 43.5382117 -15.80859375 38.515625 C-15.49174637 37.17340807 -15.15891779 35.83489073 -14.8125 34.5 C-14.63340088 33.77844727 -14.45430176 33.05689453 -14.26977539 32.31347656 C-12.78485634 26.493341 -11.08832037 20.73735138 -9.3125 15 C-9.06749756 14.20239258 -8.82249512 13.40478516 -8.57006836 12.58300781 C-4.70920546 0.49570584 -4.70920546 0.49570584 0 0 Z " fill="#0505FF" transform="translate(202.375,53.75)"/>
<path d="M0 0 C2.5625 0.375 2.5625 0.375 4.375 1.8125 C6.48378324 6.36303226 6.43923155 10.95884311 4.73046875 15.66796875 C3.26685893 18.67741367 1.93981985 20.99768015 -0.4375 23.375 C-3.9375 23.25 -3.9375 23.25 -7.4375 22.375 C-10.08728035 18.59442167 -9.52526122 15.2379772 -8.98828125 10.8515625 C-7.95004106 6.18316336 -5.03215187 0.77417721 0 0 Z " fill="#F6F6FF" transform="translate(125.4375,68.625)"/>
<path d="M0 0 C2.5625 0.3125 2.5625 0.3125 4.1953125 1.47265625 C7.07900206 5.35327849 6.08299028 10.72863675 5.5625 15.3125 C4.64958552 18.52400273 3.83230058 19.69349933 1.5625 22.3125 C-2.1875 23.25 -2.1875 23.25 -5.4375 23.3125 C-8.10199255 20.75902797 -8.72072166 18.63558639 -8.875 15.0625 C-8.70160889 9.54136202 -6.32617851 0.81104853 0 0 Z " fill="#F7F7FF" transform="translate(82.4375,68.6875)"/>
<path d="M0 0 C2.5 0.25 2.5 0.25 4.5 2.25 C5.69403647 9.46975542 3.85942488 15.87444914 0.5 22.25 C-1.5 24.25 -1.5 24.25 -4.5 24.5625 C-5.49 24.459375 -6.48 24.35625 -7.5 24.25 C-9.98392151 20.52411773 -9.63047291 19.06507198 -9.05078125 14.8046875 C-5.98804501 0.5988045 -5.98804501 0.5988045 0 0 Z " fill="#F6F6FF" transform="translate(168.5,67.75)"/>
<path d="M0 0 C0.804375 0.12375 1.60875 0.2475 2.4375 0.375 C4.4375 3.375 4.4375 3.375 4.3359375 5.50390625 C1.56292065 18.39636518 1.56292065 18.39636518 -1.5625 23.375 C-4.8125 24.5 -4.8125 24.5 -7.5625 24.375 C-10.41431593 20.09727611 -10.17911923 16.39710358 -9.5625 11.375 C-7.91548035 6.53941521 -5.49449212 0.80407202 0 0 Z " fill="#F5F5FF" transform="translate(284.5625,67.625)"/>
<path d="M0 0 C-0.49215613 6.39802971 -3.46557393 12.46557393 -8 17 C-10.80584236 17.35972338 -12.34098932 17.50413527 -14.62890625 15.75390625 C-16.78492711 12.99591945 -16.5440515 10.62513224 -16.39453125 7.23046875 C-16 5 -16 5 -14.1875 1.9375 C-9.53688468 -0.88934461 -5.30836275 -0.41834733 0 0 Z " fill="#F7F7FF" transform="translate(31,124)"/>
<path d="M0 0 C1.670625 0.4021875 1.670625 0.4021875 3.375 0.8125 C4.97586627 4.01423254 4.87417089 7.33827059 4.375 10.8125 C2.58136089 13.6225346 1.35619065 15.32190468 -1.625 16.8125 C-3.33202735 16.88246014 -5.04168003 16.89690154 -6.75 16.875 C-7.66007812 16.86597656 -8.57015625 16.85695313 -9.5078125 16.84765625 C-10.55582031 16.83025391 -10.55582031 16.83025391 -11.625 16.8125 C-11.03382302 10.90073023 -8.94283458 5.69691636 -5.21875 1.0625 C-3.625 -0.1875 -3.625 -0.1875 0 0 Z " fill="#F6F6FF" transform="translate(80.625,20.1875)"/>
<path d="M0 0 C-3.01576182 11.56042032 -3.01576182 11.56042032 -7 16 C-10.0625 17.0625 -10.0625 17.0625 -13 17 C-15.25759987 15.36684265 -15.9176317 14.4111551 -16.46875 11.66015625 C-16.55129708 4.79843025 -16.55129708 4.79843025 -14.1875 1.375 C-9.48580989 -0.65318005 -5.04644262 -0.31816451 0 0 Z " fill="#F8F8FF" transform="translate(274,124)"/>
<path d="M0 0 C2.37160148 2.37160148 2.31983352 3.00621122 2.375 6.25 C2.2636699 10.85164417 1.18912839 13.55229363 -2 17 C-4.5625 18.0625 -4.5625 18.0625 -7 18 C-9.79607684 16.4022418 -10.04306247 14.85071678 -10.9375 11.75 C-11.01954046 6.82757236 -9.79584933 4.99407047 -7 1 C-4.48718205 -0.25640898 -2.78302919 -0.20872719 0 0 Z " fill="#0C0CFF" transform="translate(212,32)"/>
</svg>
