<?xml version="1.0" encoding="UTF-8"?>
<svg version="1.1" xmlns="http://www.w3.org/2000/svg" width="306" height="165">
<path d="M0 0 C100.98 0 201.96 0 306 0 C306 54.45 306 108.9 306 165 C205.02 165 104.04 165 0 165 C0 110.55 0 56.1 0 0 Z " fill="#767AB2" transform="translate(0,0)"/>
<path d="M0 0 C100.98 0 201.96 0 306 0 C306 54.45 306 108.9 306 165 C205.02 165 104.04 165 0 165 C0 110.55 0 56.1 0 0 Z M18 49 C8.99691903 59.42077391 3.53450449 71.25783208 3.72265625 85.16015625 C5.36763659 102.00382823 15.69024555 114.91997614 28.125 125.5625 C51.92238599 144.32900606 81.51876814 153.12312956 111 158 C112.04671875 158.18691406 113.0934375 158.37382812 114.171875 158.56640625 C126.79718931 160.57042439 139.49747577 160.39554597 152.25 160.375 C153.4538736 160.37478851 154.65774719 160.37457703 155.89810181 160.37435913 C173.26617194 160.34383325 190.0132952 159.92345518 207 156 C207.85271484 155.81276367 208.70542969 155.62552734 209.58398438 155.43261719 C215.13426518 154.18992091 220.57328929 152.70015492 226 151 C227.23073242 150.61521484 227.23073242 150.61521484 228.48632812 150.22265625 C253.62035569 142.20890833 283.40205212 128.95711795 296.13598633 104.38330078 C301.75731614 92.95696661 303.02461266 80.88369763 300.1640625 68.33203125 C291.38695176 46.03581371 270.93185294 32.45261418 250 23 C249.33129883 22.69465332 248.66259766 22.38930664 247.97363281 22.07470703 C229.27927833 13.64559631 210.03366548 9.19023304 189.77539062 6.390625 C187.44234845 6.06225875 185.12080439 5.69867224 182.796875 5.3125 C129.40457642 -2.59747016 56.3481106 7.58785358 18 49 Z " fill="#FEFEFE" transform="translate(0,0)"/>
<path d="M0 0 C3.47914941 -0.02887814 6.95826831 -0.04675687 10.4375 -0.0625 C11.92733398 -0.07506836 11.92733398 -0.07506836 13.44726562 -0.08789062 C14.39150391 -0.09111328 15.33574219 -0.09433594 16.30859375 -0.09765625 C17.62041626 -0.10551147 17.62041626 -0.10551147 18.95874023 -0.11352539 C21 0 21 0 22 1 C22.62764392 7.90408311 20.68135229 14.34464718 19 21 C19.57854736 20.97905273 20.15709473 20.95810547 20.75317383 20.93652344 C45.7257148 20.1513953 45.7257148 20.1513953 52.984375 26.82421875 C54.6875 28.75 54.6875 28.75 57 32 C57.12117187 31.37351562 57.24234375 30.74703125 57.3671875 30.1015625 C57.61855469 28.87566406 57.61855469 28.87566406 57.875 27.625 C58.03742188 26.81289063 58.19984375 26.00078125 58.3671875 25.1640625 C59 23 59 23 61 21 C62.86813354 20.71911621 62.86813354 20.71911621 65.16748047 20.67773438 C66.02953094 20.65851929 66.89158142 20.6393042 67.77975464 20.61950684 C69.18428391 20.6067572 69.18428391 20.6067572 70.6171875 20.59375 C71.58471954 20.58234985 72.55225159 20.57094971 73.54910278 20.5592041 C75.60528175 20.54027695 77.66152176 20.52722536 79.71777344 20.51953125 C82.82859761 20.50028705 85.93668146 20.43835213 89.046875 20.375 C109.51615952 20.15437891 109.51615952 20.15437891 118 27 C125.01766992 35.19698444 125.61256782 42.42753311 125 53 C123.28826914 63.50248427 117.43869473 71.50488257 109.4296875 78.2734375 C100.50779885 84.61342911 90.66048311 85.16727094 80.0625 85.0625 C79.18787109 85.05798828 78.31324219 85.05347656 77.41210938 85.04882812 C75.27470953 85.03714834 73.13734537 85.01921689 71 85 C70.93868896 85.586604 70.87737793 86.17320801 70.81420898 86.77758789 C70.35832747 91.02682158 69.87538602 95.23870856 69.0625 99.4375 C68.90910156 100.26121094 68.75570312 101.08492188 68.59765625 101.93359375 C68 104 68 104 66 106 C63.96875 106.25878906 63.96875 106.25878906 61.5 106.265625 C60.613125 106.26820313 59.72625 106.27078125 58.8125 106.2734375 C57.884375 106.26570313 56.95625 106.25796875 56 106.25 C55.071875 106.25773437 54.14375 106.26546875 53.1875 106.2734375 C51.8571875 106.26957031 51.8571875 106.26957031 50.5 106.265625 C49.6853125 106.26336914 48.870625 106.26111328 48.03125 106.25878906 C46 106 46 106 44 104 C44.46540866 97.60063098 45.80734654 91.29906292 47 85 C46.40461426 85.01047363 45.80922852 85.02094727 45.19580078 85.03173828 C42.50557657 85.07323949 39.81541963 85.09930704 37.125 85.125 C36.18785156 85.14175781 35.25070313 85.15851563 34.28515625 85.17578125 C33.38925781 85.18222656 32.49335938 85.18867187 31.5703125 85.1953125 C30.74289551 85.20578613 29.91547852 85.21625977 29.06298828 85.22705078 C27 85 27 85 25 83 C25.1015625 80.4453125 25.1015625 80.4453125 25.625 77.125 C25.91890625 75.25328125 25.91890625 75.25328125 26.21875 73.34375 C27.22240046 67.5700619 28.42125702 61.82942193 29.67822266 56.10595703 C29.93418213 54.89721924 29.93418213 54.89721924 30.1953125 53.6640625 C30.42758545 52.60372803 30.42758545 52.60372803 30.66455078 51.52197266 C31.12722444 48.04350185 31 44.50910617 31 41 C25.72 40.67 20.44 40.34 15 40 C14.89429688 41.16015625 14.78859375 42.3203125 14.6796875 43.515625 C13.96168731 49.94991442 12.74606181 56.29473762 11.52587891 62.64892578 C11.12352034 64.75775517 10.73552919 66.86893348 10.34765625 68.98046875 C10.0894198 70.33610507 9.83033495 71.69158012 9.5703125 73.046875 C9.22637451 74.86977051 9.22637451 74.86977051 8.87548828 76.72949219 C7.99156553 80.03150812 7.13344079 82.32845837 5 85 C2.94702148 85.58349609 2.94702148 85.58349609 0.62109375 85.5234375 C-0.63670898 85.50603516 -0.63670898 85.50603516 -1.91992188 85.48828125 C-3.22799805 85.43220703 -3.22799805 85.43220703 -4.5625 85.375 C-5.43841797 85.36082031 -6.31433594 85.34664063 -7.21679688 85.33203125 C-13.63226392 85.18386804 -13.63226392 85.18386804 -16 84 C-15.67 79.05 -15.34 74.1 -15 69 C-15.99 70.216875 -16.98 71.43375 -18 72.6875 C-25.13416974 80.83054223 -33.31205453 84.0565409 -44 85 C-47.16850646 85.10795706 -50.33016668 85.09605687 -53.5 85.0625 C-54.73363281 85.05573242 -54.73363281 85.05573242 -55.9921875 85.04882812 C-57.99482396 85.03718489 -59.99742227 85.01925556 -62 85 C-62.12117188 85.85722656 -62.24234375 86.71445313 -62.3671875 87.59765625 C-64.18696884 100.01416431 -64.18696884 100.01416431 -66 105 C-69.5360396 106.7680198 -73.60571255 106.18464913 -77.5 106.1875 C-78.82064453 106.20586914 -78.82064453 106.20586914 -80.16796875 106.22460938 C-81.00972656 106.22654297 -81.85148437 106.22847656 -82.71875 106.23046875 C-83.49154297 106.23457764 -84.26433594 106.23868652 -85.06054688 106.24291992 C-87 106 -87 106 -89 104 C-89.72186162 93.4364785 -85.86616691 81.72788854 -83.75 71.4375 C-83.13395969 68.41173409 -82.51989299 65.38557266 -81.90612793 62.35934448 C-81.50156738 60.36468911 -81.09638032 58.37016071 -80.69055176 56.37576294 C-78.84364877 47.28269383 -77.09314121 38.17328952 -75.40917969 29.04858398 C-75.23290039 28.10958252 -75.05662109 27.17058105 -74.875 26.203125 C-74.72804688 25.40551758 -74.58109375 24.60791016 -74.4296875 23.78613281 C-74 22 -74 22 -73 21 C-71.64155864 20.88649352 -70.2773696 20.84049168 -68.91430664 20.82299805 C-68.04572525 20.81016281 -67.17714386 20.79732758 -66.28224182 20.78410339 C-65.33445358 20.77671646 -64.38666534 20.76932953 -63.41015625 20.76171875 C-62.43646591 20.753647 -61.46277557 20.74557526 -60.45957947 20.73725891 C-58.38900545 20.72339173 -56.31840832 20.71268143 -54.24780273 20.70483398 C-51.1068029 20.68774109 -47.96688866 20.64389361 -44.82617188 20.59960938 C-42.81250773 20.58947212 -40.79883463 20.58095926 -38.78515625 20.57421875 C-37.39080101 20.54795662 -37.39080101 20.54795662 -35.96827698 20.52116394 C-28.27252387 20.54626503 -21.27823531 22.17493252 -15.34375 27.2890625 C-14.7353125 28.05992188 -14.126875 28.83078125 -13.5 29.625 C-12.8709375 30.40101562 -12.241875 31.17703125 -11.59375 31.9765625 C-11.0678125 32.64429688 -10.541875 33.31203125 -10 34 C-9.34 34.66 -8.68 35.32 -8 36 C-7.82871582 35.08710205 -7.65743164 34.1742041 -7.48095703 33.23364258 C-6.84014887 29.83164788 -6.19479525 26.4305802 -5.54638672 23.0300293 C-5.26722861 21.56097187 -4.98986132 20.09157292 -4.71435547 18.62182617 C-4.3169376 16.50345982 -3.91299357 14.38642469 -3.5078125 12.26953125 C-3.14647217 10.36071167 -3.14647217 10.36071167 -2.77783203 8.41333008 C-2.09642261 5.4231276 -1.23839116 2.79689476 0 0 Z " fill="#ECECEE" transform="translate(137,24)"/>
<path d="M0 0 C5.67418403 -0.09947326 11.3478515 -0.17175249 17.02270508 -0.21972656 C18.94987845 -0.23974243 20.87699186 -0.26696383 22.80395508 -0.30175781 C25.58690252 -0.35072041 28.36904156 -0.37306917 31.15234375 -0.390625 C32.00271713 -0.41127014 32.85309052 -0.43191528 33.72923279 -0.45318604 C41.12195555 -0.45590927 46.59459036 1.88107844 52.8125 5.75 C56.8157333 9.8676114 59.20272636 14.38218814 59.4375 20.1875 C58.85217481 30.79651906 56.35862597 40.11269605 49 48 C39.54470302 56.27996322 29.04107308 57.46335863 16.875 57.1875 C15.72773438 57.17396484 14.58046875 57.16042969 13.3984375 57.14648438 C10.59845042 57.11148454 7.79948783 57.06238859 5 57 C4.91020874 58.09211792 4.91020874 58.09211792 4.81860352 59.20629883 C4.2687282 65.61263908 3.36612082 71.71584424 2 78 C-3.61 78 -9.22 78 -15 78 C-14.25567684 69.73881202 -12.68343722 61.66595221 -11.09375 53.53515625 C-10.80588271 52.05069847 -10.51824829 50.56619552 -10.23083496 49.08164978 C-9.63128347 45.9891216 -9.02922577 42.89709538 -8.42529297 39.80541992 C-7.65075691 35.83951695 -6.88213158 31.87249555 -6.11528778 27.90509892 C-5.52383183 24.84813645 -4.92951916 21.79173494 -4.33430481 18.73550224 C-4.0495952 17.27199888 -3.76572683 15.8083316 -3.48271179 14.34449959 C-3.0883529 12.30729977 -2.69021273 10.27087561 -2.29101562 8.23461914 C-2.06530884 7.0759584 -1.83960205 5.91729767 -1.60705566 4.723526 C-1 2 -1 2 0 0 Z " fill="#010101" transform="translate(200,48)"/>
<path d="M0 0 C5.24697519 -0.04977792 10.4938101 -0.0858971 15.7409668 -0.10986328 C17.52256671 -0.11986411 19.30415044 -0.13346916 21.08569336 -0.15087891 C23.66003433 -0.17538957 26.23415657 -0.18654248 28.80859375 -0.1953125 C29.59334579 -0.20563507 30.37809784 -0.21595764 31.18663025 -0.22659302 C40.02623013 -0.22834978 48.0802807 1.22055047 55 7 C59.91882561 12.53367881 59.69135586 18.90137133 59.37109375 25.9921875 C58.57474071 36.5258791 53.95766156 44.13141187 46 51 C39.43856413 55.17895257 33.67841041 57.13567848 25.921875 57.09765625 C24.18164062 57.09282227 24.18164062 57.09282227 22.40625 57.08789062 C21.1996875 57.07951172 19.993125 57.07113281 18.75 57.0625 C17.52796875 57.05798828 16.3059375 57.05347656 15.046875 57.04882812 C12.03120054 57.03704815 9.01562502 57.02059853 6 57 C5.85675293 57.92643311 5.71350586 58.85286621 5.56591797 59.80737305 C5.2134481 62.08646167 4.8607251 64.36551115 4.5078125 66.64453125 C4.12441451 69.17790717 3.76771239 71.70949497 3.4375 74.25 C3 77 3 77 2 78 C-0.69654854 78.07319621 -3.36691458 78.09242537 -6.0625 78.0625 C-6.82111328 78.05798828 -7.57972656 78.05347656 -8.36132812 78.04882812 C-10.24091871 78.0370068 -12.12046899 78.01907078 -14 78 C-13.38921115 70.11495322 -12.06622896 62.44717861 -10.56640625 54.6875 C-10.20940895 52.81324341 -10.20940895 52.81324341 -9.84519958 50.90112305 C-9.21618148 47.60334471 -8.58338199 44.30633905 -7.94873047 41.00964355 C-7.30810989 37.67635133 -6.67295672 34.34201785 -6.03710938 31.0078125 C-4.06154622 20.66441971 -2.08468965 10.32204875 0 0 Z " fill="#010101" transform="translate(66,48)"/>
<path d="M0 0 C5.61 0 11.22 0 17 0 C16.525625 2.7225 16.05125 5.445 15.5625 8.25 C15.41498291 9.10110352 15.26746582 9.95220703 15.11547852 10.82910156 C14.99615967 11.5094043 14.87684082 12.18970703 14.75390625 12.890625 C14.63345947 13.58188477 14.5130127 14.27314453 14.38891602 14.98535156 C13.99755584 17.01266117 13.51910249 19.00194515 13 21 C13.57331055 20.98428955 14.14662109 20.9685791 14.73730469 20.95239258 C42.57924587 20.29068579 42.57924587 20.29068579 49.25 26.375 C54.74692649 35.30377989 50.07680194 49.40371008 48.0625 59.0625 C47.78077826 60.46266518 47.50017378 61.86305564 47.22070312 63.26367188 C46.22925729 68.19831551 45.22098956 73.11604177 44 78 C38.39 78 32.78 78 27 78 C27.69327697 74.10383462 28.38687864 70.20772916 29.08129883 66.31176758 C29.43281968 64.33876947 29.78379633 62.36567442 30.13476562 60.39257812 C30.35712891 59.14541016 30.57949219 57.89824219 30.80859375 56.61328125 C31.01282959 55.46641846 31.21706543 54.31955566 31.42749023 53.13793945 C31.78794754 51.16226449 32.16258426 49.18907274 32.55737305 47.2199707 C33.27965531 43.59740445 33.35888641 40.70849285 33 37 C28.75569424 33.28516498 24.04886543 33.46060402 18.6875 33.3125 C17.85154297 33.27833984 17.01558594 33.24417969 16.15429688 33.20898438 C14.10332228 33.12694539 12.05168462 33.0617849 10 33 C9.92523438 33.81855469 9.85046875 34.63710938 9.7734375 35.48046875 C8.22961474 49.84407458 5.03120293 63.89251468 2 78 C-3.61 78 -9.22 78 -15 78 C-10.20923499 51.95565933 -5.27907742 25.94996496 0 0 Z " fill="#000000" transform="translate(139,27)"/>
<path d="M0 0 C6.21128939 0.56272003 11.63657611 1.96670123 17.5 4.0625 C18.37221191 4.37268066 19.24442383 4.68286133 20.14306641 5.00244141 C45.46827101 14.25401624 68.69019062 28.53815978 80.80078125 53.36328125 C84.82317042 62.20729653 84.29555749 74.31528747 82.1640625 83.66796875 C73.52737988 105.60746118 52.90483865 119.7728568 32.15527344 129.078125 C25.22404505 132.04281897 18.13355274 134.57100672 11 137 C9.23462891 137.60328125 9.23462891 137.60328125 7.43359375 138.21875 C-0.5904274 140.81794213 -8.70282426 142.5380321 -17 144 C-17.71632599 144.12931412 -18.43265198 144.25862823 -19.17068481 144.39186096 C-33.47214048 146.91126562 -47.49313327 147.43916889 -61.99633789 147.33618164 C-65.58957978 147.31232017 -69.18208801 147.31568315 -72.77539062 147.32226562 C-75.10156685 147.3166946 -77.42774002 147.30958837 -79.75390625 147.30078125 C-81.33396202 147.30214836 -81.33396202 147.30214836 -82.94593811 147.30354309 C-90.12831987 147.23592126 -96.95203295 146.37115272 -104 145 C-104 144.67 -104 144.34 -104 144 C-103.14535156 143.95101562 -102.29070312 143.90203125 -101.41015625 143.8515625 C-99.75306641 143.73941406 -99.75306641 143.73941406 -98.0625 143.625 C-96.40927734 143.52058594 -96.40927734 143.52058594 -94.72265625 143.4140625 C-93.82417969 143.27742187 -92.92570312 143.14078125 -92 143 C-91.505 142.01 -91.505 142.01 -91 141 C-89.86385254 141.01571045 -88.72770508 141.0314209 -87.55712891 141.04760742 C-55.15680019 141.51713928 -55.15680019 141.51713928 -23 138 C-21.82163574 137.79600586 -20.64327148 137.59201172 -19.42919922 137.38183594 C11.29885626 131.87794489 49.62053296 121.74297699 68.71484375 94.55859375 C75.00207675 84.48979763 78.8887043 73.45839321 76.50390625 61.515625 C71.61279996 43.71973543 57.99197258 31.22778103 42.5625 21.9375 C30.2433415 14.96989366 16.48903787 10.16734503 3 6 C3 4.68 3 3.36 3 2 C2.01 1.34 1.02 0.68 0 0 Z " fill="#494D8A" transform="translate(218,13)"/>
<path d="M0 0 C-0.99 0.66 -1.98 1.32 -3 2 C-2.01 3.98 -2.01 3.98 -1 6 C-2.22626099 6.02187378 -2.22626099 6.02187378 -3.47729492 6.04418945 C-53.13594971 7.02358867 -106.94792017 11.47144379 -145 47 C-146.97582196 48.69975901 -148.98031671 50.35236363 -151 52 C-151.12375 51.360625 -151.2475 50.72125 -151.375 50.0625 C-151.58125 49.381875 -151.7875 48.70125 -152 48 C-152.66 47.67 -153.32 47.34 -154 47 C-142.44209607 34.48337592 -129.45830997 25.98081724 -114 19 C-112.99694824 18.54197998 -112.99694824 18.54197998 -111.97363281 18.07470703 C-92.74146505 9.4031013 -72.81945539 4.93386724 -52 2 C-51.21544434 1.88140625 -50.43088867 1.7628125 -49.62255859 1.640625 C-33.2061776 -0.80274333 -16.54969328 -0.19255886 0 0 Z " fill="#AFB3D5" transform="translate(170,4)"/>
<path d="M0 0 C3.04221065 -0.08132642 6.0822238 -0.14065374 9.125 -0.1875 C9.9809375 -0.21263672 10.836875 -0.23777344 11.71875 -0.26367188 C16.90609711 -0.32352588 20.5456379 0.02348701 25 3 C28.14944496 7.72416743 27.65117551 12.47507785 27 18 C25.40534372 23.0303535 23.28759012 27.48471839 18.875 30.5625 C15.23323101 32.38338449 12.57184829 33.12464328 8.55078125 33.09765625 C7.70322266 33.09443359 6.85566406 33.09121094 5.98242188 33.08789062 C4.66081055 33.07532227 4.66081055 33.07532227 3.3125 33.0625 C2.41982422 33.05798828 1.52714844 33.05347656 0.60742188 33.04882812 C-1.59511987 33.03704983 -3.79752599 33.02060164 -6 33 C-5.33020896 25.67849106 -3.98329403 18.62089577 -2.4375 11.4375 C-2.20353516 10.33341797 -1.96957031 9.22933594 -1.72851562 8.09179688 C-1.15618938 5.39368745 -0.57993998 2.69648125 0 0 Z " fill="#787CB3" transform="translate(214,60)"/>
<path d="M0 0 C2.87557703 -0.08138426 5.74882262 -0.14067851 8.625 -0.1875 C9.43324219 -0.21263672 10.24148437 -0.23777344 11.07421875 -0.26367188 C16.14282288 -0.32548412 19.6534022 0.09574171 24 3 C26.73500624 5.80439329 27.43123859 7.79916164 27.4375 11.6875 C27.21539791 18.53228245 24.89476874 23.65647024 20.625 28.9375 C15.0471351 33.32010814 9.403273 33.26553836 2.625 33.125 C1.79355469 33.11597656 0.96210937 33.10695312 0.10546875 33.09765625 C-1.92981337 33.0742622 -3.96494564 33.03839725 -6 33 C-5.59072707 25.68009837 -4.43882001 18.6162116 -3 11.4375 C-2.82178711 10.54450195 -2.64357422 9.65150391 -2.45996094 8.73144531 C-1.13496741 2.26993482 -1.13496741 2.26993482 0 0 Z " fill="#777BB3" transform="translate(81,60)"/>
<path d="M0 0 C2.87557703 -0.08138426 5.74882262 -0.14067851 8.625 -0.1875 C9.43324219 -0.21263672 10.24148437 -0.23777344 11.07421875 -0.26367188 C16.14282288 -0.32548412 19.6534022 0.09574171 24 3 C26.73500624 5.80439329 27.43123859 7.79916164 27.4375 11.6875 C27.21539791 18.53228245 24.89476874 23.65647024 20.625 28.9375 C15.0471351 33.32010814 9.403273 33.26553836 2.625 33.125 C1.79355469 33.11597656 0.96210937 33.10695312 0.10546875 33.09765625 C-1.92981337 33.0742622 -3.96494564 33.03839725 -6 33 C-5.59072707 25.68009837 -4.43882001 18.6162116 -3 11.4375 C-2.82178711 10.54450195 -2.64357422 9.65150391 -2.45996094 8.73144531 C-1.13496741 2.26993482 -1.13496741 2.26993482 0 0 Z M3 4 C-0.59441286 16.8362037 -0.59441286 16.8362037 -2 30 C5.32303413 30.32953654 11.44093147 30.51378671 18 27 C22.29335885 21.82595215 23.14060026 17.81042148 23.0625 11.25 C23.05347656 10.26515625 23.04445313 9.2803125 23.03515625 8.265625 C23.02355469 7.51796875 23.01195313 6.7703125 23 6 C19.1584024 3.43219529 15.1860825 3.77311118 10.75 3.875 C10.00492188 3.88402344 9.25984375 3.89304688 8.4921875 3.90234375 C6.66131941 3.92581642 4.83061762 3.96168475 3 4 Z " fill="#ECECEE" transform="translate(81,60)"/>
<path d="M0 0 C3.04221065 -0.08132642 6.0822238 -0.14065374 9.125 -0.1875 C9.9809375 -0.21263672 10.836875 -0.23777344 11.71875 -0.26367188 C16.90609711 -0.32352588 20.5456379 0.02348701 25 3 C28.14944496 7.72416743 27.65117551 12.47507785 27 18 C25.40534372 23.0303535 23.28759012 27.48471839 18.875 30.5625 C15.23323101 32.38338449 12.57184829 33.12464328 8.55078125 33.09765625 C7.70322266 33.09443359 6.85566406 33.09121094 5.98242188 33.08789062 C4.66081055 33.07532227 4.66081055 33.07532227 3.3125 33.0625 C2.41982422 33.05798828 1.52714844 33.05347656 0.60742188 33.04882812 C-1.59511987 33.03704983 -3.79752599 33.02060164 -6 33 C-5.33020896 25.67849106 -3.98329403 18.62089577 -2.4375 11.4375 C-2.20353516 10.33341797 -1.96957031 9.22933594 -1.72851562 8.09179688 C-1.15618938 5.39368745 -0.57993998 2.69648125 0 0 Z M3 4 C2.15956003 7.5817048 1.32889101 11.16560643 0.5 14.75 C0.26152344 15.76578125 0.02304688 16.7815625 -0.22265625 17.828125 C-0.44824219 18.8078125 -0.67382812 19.7875 -0.90625 20.796875 C-1.11572266 21.69760742 -1.32519531 22.59833984 -1.54101562 23.52636719 C-2.12162449 26.23616924 -2.12162449 26.23616924 -2 30 C9.15654805 30.62946891 9.15654805 30.62946891 19 26 C23.120717 22.01664023 24.07006251 16.30238878 24.4375 10.75 C24.42646272 6.9717808 24.42646272 6.9717808 21.9921875 5.27734375 C18.17422538 3.64748264 14.75578196 3.67071001 10.6875 3.8125 C9.57665039 3.83280273 9.57665039 3.83280273 8.44335938 3.85351562 C6.62858925 3.88864021 4.81419712 3.94244028 3 4 Z " fill="#ECECEE" transform="translate(214,60)"/>
<path d="M0 0 C24.99412197 -0.33725202 24.99412197 -0.33725202 30 3 C24.7757393 6.10268593 18.91532571 5.55303427 13 5.75 C11.83082031 5.80542969 10.66164062 5.86085937 9.45703125 5.91796875 C1.72021399 6.2013372 -5.42282714 5.58551648 -13 4 C-13 3.67 -13 3.34 -13 3 C-12.14535156 2.95101562 -11.29070312 2.90203125 -10.41015625 2.8515625 C-9.30542969 2.77679688 -8.20070313 2.70203125 -7.0625 2.625 C-5.40927734 2.52058594 -5.40927734 2.52058594 -3.72265625 2.4140625 C-2.37494141 2.20910156 -2.37494141 2.20910156 -1 2 C-0.67 1.34 -0.34 0.68 0 0 Z " fill="#595D95" transform="translate(127,154)"/>
<path d="M0 0 C0.66 0 1.32 0 2 0 C3.16796875 2.19921875 3.16796875 2.19921875 4 5 C2.98828125 7.39453125 2.98828125 7.39453125 1.3125 9.8125 C-1.51544961 14.12884415 -3.37136259 18.11408778 -5 23 C-5.66 21.68 -6.32 20.36 -7 19 C-7.99 19 -8.98 19 -10 19 C-8.11362269 12.00054734 -5.21770177 5.21770177 0 0 Z " fill="#8E92BD" transform="translate(16,52)"/>
<path d="M0 0 C2.75105422 -0.10812003 5.49785087 -0.18734945 8.25 -0.25 C9.02730469 -0.28351562 9.80460938 -0.31703125 10.60546875 -0.3515625 C16.42997175 -0.45112665 16.42997175 -0.45112665 19.546875 2.015625 C20.02640625 2.67046875 20.5059375 3.3253125 21 4 C20.67 4.99 20.34 5.98 20 7 C13.07 6.67 6.14 6.34 -1 6 C-1 5.67 -1 5.34 -1 5 C0.98 4.67 2.96 4.34 5 4 C3.74458443 1.48916886 2.49936512 1.12874554 0 0 Z " fill="#8F93BE" transform="translate(163,5)"/>
<path d="M0 0 C0.66 0.33 1.32 0.66 2 1 C0.89717697 8.40466894 -3.61011846 12.10918156 -9 17 C-9.28875 16.360625 -9.5775 15.72125 -9.875 15.0625 C-10.82823451 12.84793921 -10.82823451 12.84793921 -13 12 C-11.3989569 10.3719224 -9.79405264 8.74764115 -8.1875 7.125 C-7.29417969 6.22007813 -6.40085937 5.31515625 -5.48046875 4.3828125 C-3 2 -3 2 0 0 Z " fill="#A0A4C9" transform="translate(29,39)"/>
<path d="M0 0 C2.0622048 -0.054348 4.12482816 -0.09294961 6.1875 -0.125 C7.33605469 -0.14820313 8.48460937 -0.17140625 9.66796875 -0.1953125 C12.96222999 -0.00221395 15.12012405 0.41001364 18 2 C18.33 2.99 18.66 3.98 19 5 C16.89590361 5.02701408 14.79170822 5.04640223 12.6875 5.0625 C11.51574219 5.07410156 10.34398437 5.08570313 9.13671875 5.09765625 C6 5 6 5 3 4 C3 3.01 3 2.02 3 1 C2.01 0.67 1.02 0.34 0 0 Z " fill="#A0A3C9" transform="translate(150,5)"/>
<path d="M0 0 C5.23880078 0.55145271 9.97350697 1.42922093 15 3 C15 4.65 15 6.3 15 8 C11.52128379 9.15957207 10.65780355 8.77456651 7.3125 7.5625 C6.50425781 7.27503906 5.69601563 6.98757812 4.86328125 6.69140625 C3.94095703 6.34916016 3.94095703 6.34916016 3 6 C3 4.68 3 3.36 3 2 C2.01 1.34 1.02 0.68 0 0 Z " fill="#565A93" transform="translate(218,13)"/>
<path d="M0 0 C2.51445576 2.51445576 2.63167345 3.46406513 3 7 C2.78458357 10.34921257 2.42019377 13.67077245 2 17 C-1.76537686 13.23462314 -2.59801386 10.17695605 -3.21484375 5.0859375 C-2.94197307 2.43661127 -2.02155879 1.64875184 0 0 Z " fill="#8387B4" transform="translate(8,69)"/>
<path d="M0 0 C7.30434783 -0.36521739 7.30434783 -0.36521739 10.5 1.3125 C12 3 12 3 12 6 C9.36 6 6.72 6 4 6 C4 4.35 4 2.7 4 1 C2.68 0.67 1.36 0.34 0 0 Z " fill="#8387B4" transform="translate(179,6)"/>
</svg>
