<?xml version="1.0" encoding="UTF-8"?>
<svg version="1.1" xmlns="http://www.w3.org/2000/svg" width="224" height="225">
<path d="M0 0 C73.92 0 147.84 0 224 0 C224 74.25 224 148.5 224 225 C150.08 225 76.16 225 0 225 C0 150.75 0 76.5 0 0 Z " fill="#FA7A24" transform="translate(0,0)"/>
<path d="M0 0 C8.79075128 6.56642482 14.33324019 14.67819529 17.140625 25.23828125 C17.470625 26.22828125 17.800625 27.21828125 18.140625 28.23828125 C18.78400239 38.63705532 18.15236765 48.93175484 13.953125 58.55078125 C12.09570086 62.91955413 11.77902482 65.55778065 13.140625 70.23828125 C14.09747529 72.53870882 15.10504081 74.79080463 16.203125 77.02734375 C20.0734917 86.15495855 18.48034005 96.07866725 15.39453125 105.1640625 C10.6362962 116.8298911 2.09543659 124.44366448 -9.37890625 129.328125 C-18.94198858 132.83709852 -30.01753996 132.46345161 -39.3671875 128.49609375 C-52.31974573 121.95890919 -58.33458079 113.51397722 -63.859375 100.23828125 C-64.13265625 100.78871094 -64.4059375 101.33914062 -64.6875 101.90625 C-71.49517715 115.45352753 -77.70602748 124.82885301 -92.546875 130.11328125 C-103.36822608 132.97625287 -115.45507516 132.37423044 -125.29296875 126.87890625 C-129.64538583 124.10593774 -133.40013225 121.09286603 -136.859375 117.23828125 C-137.54 116.49578125 -138.220625 115.75328125 -138.921875 114.98828125 C-147.32663572 103.05894345 -147.35891296 88.40411448 -145.29296875 74.3984375 C-144.27656196 70.17848679 -143.07517611 66.64755922 -141.046875 62.80078125 C-139.53519505 60.31097772 -139.53519505 60.31097772 -140.65234375 57.90234375 C-141.05066406 57.02320313 -141.44898438 56.1440625 -141.859375 55.23828125 C-146.32105609 44.8982539 -147.87628448 33.46455248 -145.1640625 22.40234375 C-144.23362184 20.17397747 -143.17237519 18.26265925 -141.859375 16.23828125 C-141.41207031 15.47257812 -140.96476562 14.706875 -140.50390625 13.91796875 C-134.68274829 4.46053785 -126.55433831 -1.41848159 -116.109375 -5.07421875 C-104.73650654 -7.39843592 -93.92092607 -5.90511892 -83.91015625 -0.03125 C-75.33023035 5.83306497 -67.65679635 13.72179198 -65.171875 24.11328125 C-65.06875 24.81453125 -64.965625 25.51578125 -64.859375 26.23828125 C-64.529375 26.23828125 -64.199375 26.23828125 -63.859375 26.23828125 C-63.71242188 25.70460937 -63.56546875 25.1709375 -63.4140625 24.62109375 C-59.90347519 12.95948763 -54.07320423 5.01064434 -43.859375 -1.76171875 C-29.30407533 -9.13097537 -14.05416193 -8.65905332 0 0 Z " fill="#FEFDFC" transform="translate(176.859375,48.76171875)"/>
<path d="M0 0 C3.55756513 2.42561259 4.96864109 3.90119936 6.75 7.875 C8.55168382 20.04899441 4.13180794 30.71137994 -2.25 40.875 C-1.321875 41.266875 -0.39375 41.65875 0.5625 42.0625 C4.11103209 44.08029276 4.99069203 45.26998228 6.75 48.875 C7.39567561 52.8156107 7.30530078 56.76163222 7.3125 60.75 C7.34923828 61.81347656 7.38597656 62.87695312 7.42382812 63.97265625 C7.4593047 70.31902046 6.8407497 74.06550966 2.33569336 78.67236328 C-1.27757499 81.41277281 -5.39342662 81.26705622 -9.73828125 81.22265625 C-13.91852267 80.64405363 -15.4641028 79.00913435 -18.25 75.875 C-20.69725916 71.34673816 -20.48406671 67.06698391 -20.375 62.0625 C-20.36597656 61.27423828 -20.35695313 60.48597656 -20.34765625 59.67382812 C-20.32422504 57.74075334 -20.28835838 55.8078362 -20.25 53.875 C-26.70992684 53.9420493 -33.16925082 54.0318753 -39.62866211 54.13745117 C-41.82552927 54.17068055 -44.0224814 54.19871866 -46.21948242 54.22143555 C-49.37976243 54.25501754 -52.53926521 54.30733634 -55.69921875 54.36328125 C-57.16979988 54.37286613 -57.16979988 54.37286613 -58.67008972 54.38264465 C-65.45263806 54.52406116 -65.45263806 54.52406116 -71.25 57.875 C-73.76683537 61.60364499 -74.50593417 65.07195334 -75.1875 69.4375 C-75.92806155 73.94207273 -76.77160943 76.70352624 -80.25 79.875 C-84.51889334 82.39508199 -88.40099251 82.54847326 -93.25 81.875 C-96.92547809 80.10532536 -98.7640788 78.55528967 -101.125 75.25 C-104.13192734 66.22921797 -101.89274585 57.42619153 -98.25 48.875 C-92.53838445 38.67568651 -84.25357581 31.75861499 -73.25 27.875 C-68.74915206 26.7153596 -64.27838725 26.70693093 -59.66015625 26.6640625 C-57.97199539 26.6360011 -56.28384447 26.60733669 -54.59570312 26.578125 C-51.95158087 26.53686815 -49.30764568 26.49995168 -46.66333008 26.47363281 C-44.09939018 26.44594293 -41.53627541 26.40008625 -38.97265625 26.3515625 C-38.18810562 26.34830963 -37.40355499 26.34505676 -36.5952301 26.34170532 C-31.76835719 26.23425496 -28.45297018 25.49211709 -24.25 22.875 C-21.45448445 19.6938961 -21.0947192 17.02354322 -20.8125 12.9375 C-20.45581912 8.23770484 -19.43129823 5.49814521 -16.25 1.875 C-11.25208778 -2.28992685 -5.85084319 -2.02529187 0 0 Z " fill="#FB7A23" transform="translate(160.25,71.125)"/>
<path d="M0 0 C3.93053565 2.03805552 6.87388636 4.10520632 9 8 C9.36769665 11.2578226 9.2817757 14.47694116 9.1875 17.75 C9.16719727 19.08224609 9.16719727 19.08224609 9.14648438 20.44140625 C9.11121309 22.62822578 9.06192752 24.81379966 9 27 C6.12397545 27.10852923 3.25209168 27.1875515 0.375 27.25 C-0.43324219 27.28351563 -1.24148437 27.31703125 -2.07421875 27.3515625 C-7.57809196 27.44105637 -10.6286674 26.66301481 -15 23 C-18.16205748 19.31093294 -18.52383784 15.92109268 -18.3515625 11.21484375 C-17.63443905 6.69696599 -15.18268822 4.01373276 -11.8125 1.125 C-7.80225661 -0.47909736 -4.25954636 -0.6836309 0 0 Z " fill="#FB7B24" transform="translate(76,71)"/>
<path d="M0 0 C0.33 0 0.66 0 1 0 C1 7.26 1 14.52 1 22 C-6.92 22 -14.84 22 -23 22 C-23 21.67 -23 21.34 -23 21 C-21.91332031 20.85304687 -21.91332031 20.85304687 -20.8046875 20.703125 C-12.69665333 19.47911028 -12.69665333 19.47911028 -6 15 C-3.02477422 10.20883261 -0.92807402 5.5784234 0 0 Z " fill="#FEF5F0" transform="translate(223,203)"/>
<path d="M0 0 C0.33 0 0.66 0 1 0 C1.15855469 0.65226563 1.31710938 1.30453125 1.48046875 1.9765625 C3.40191715 9.17403219 5.36974325 13.71135987 11.875 17.8125 C15.26826716 19.10194152 18.39607352 19.63960735 22 20 C22 20.33 22 20.66 22 21 C14.74 21 7.48 21 0 21 C0 14.07 0 7.14 0 0 Z " fill="#FEF9F6" transform="translate(0,204)"/>
<path d="M0 0 C6.27 0 12.54 0 19 0 C19 6.93 19 13.86 19 21 C18.67 21 18.34 21 18 21 C17.85304687 20.12988281 17.85304687 20.12988281 17.703125 19.2421875 C16.42438996 12.56189925 14.58111247 8.0761122 9.125 3.6875 C5.96863634 1.98306362 3.54840869 1.33794368 0 1 C0 0.67 0 0.34 0 0 Z " fill="#FEF8F4" transform="translate(205,0)"/>
<path d="M0 0 C6.6 0 13.2 0 20 0 C20 0.33 20 0.66 20 1 C19.14728516 1.11214844 19.14728516 1.11214844 18.27734375 1.2265625 C12.14819787 2.27025679 8.02398565 4.1690362 4 9 C2.6927179 11.32147248 1.86340974 13.46055959 1 16 C0.67 16 0.34 16 0 16 C0 10.72 0 5.44 0 0 Z " fill="#FEF9F6" transform="translate(0,0)"/>
</svg>
